<?xml version="1.0" encoding="utf-8"?><svg xmlns="http://www.w3.org/2000/svg" xmlns:xlink="http://www.w3.org/1999/xlink"><symbol fill="none" viewBox="0 0 90.11 90.21" id="logo_1" xmlns="http://www.w3.org/2000/svg"><g clip-path="url(#aclip0)"><path d="M16.228 81.466a24.7 24.7 0 012.998-.283c3.58.085 7.15.292 10.73.358 4.152.076 8.314 0 12.467.104.954 0 1.288-.283 1.336-1.198a6.49 6.49 0 01.563-2.178c.077.688.153 1.367.248 2.056.144.943.669 1.348 1.71 1.339 3.694-.057 7.397 0 11.092 0 .31-.025.623.03.907.16-7.017.151-14.033.368-21.059.415-7.026.047-13.985-.104-20.992-.198v-.575zm56.083 8.421c-8.2.32-16.4-.16-24.61-.245l24.6-.481.01.726z" fill="#2F80ED"/><path d="M78.87 56.797l.362-.217a3.838 3.838 0 001.451-.698c.85-.217 1.738-.179 2.587-.33a8.3 8.3 0 013.399.538c1.432.33 1.823 1.254 2.214 2.348 0 0 .067 0 .124.047.344-.151.296-.49.316-.764a20.966 20.966 0 00-.105-4.913 15.128 15.128 0 01.591-7.12 3.244 3.244 0 000-2.187 115.394 115.394 0 00-11.894-25.584c-3.188-5.196-6.577-10.241-10.997-14.513A14.071 14.071 0 0061.61.321c4.878 5.12 5.728 11.74 7.255 18.162a14.51 14.51 0 00-5.918-2.452c-3.198-.585-6.387-.547-9.25.943-2.864 1.49-6.072 3.037-8.21 5.79-.372.471-.659.519-1.06 0a15.607 15.607 0 00-2.634-2.49 22.733 22.733 0 00-6.09-3.055c-4.21-1.546-8.44-2.367-12.716-.094-.391.207-.954.858-1.365.415-.258-.274-.134-1.01 0-1.509a48.28 48.28 0 011.518-6.12c.82-2.367 1.422-5.026 3.245-7.082.745-.858 1.423-1.754 2.272-2.829-2.634 1.132-5.02 2.3-6.777 4.357A115.06 115.06 0 00.134 43.378a3.113 3.113 0 000 1.773c.787 2.915.95 5.96.477 8.94a8.826 8.826 0 00.23 4.554c.114-.179.2-.179.228-.179.081-.17.148-.347.2-.528.373-1.452 1.28-2.018 2.75-2.3 1.852-.369 3.551.169 5.308.32l.42.141 2.033 1.207c.087.123.183.24.286.35 1.241 1.159 2.74 1.998 3.819 3.328 3.331 3.951 6.863 7.723 9.26 12.372.668 1.292 1.956 2.273 2.959 3.395l.229-.16a73.468 73.468 0 01-7.045-24.603c2.062 1.886 4.4 3.366 6.577 5.045 4.305 3.328 9.183 5.752 13.88 8.487a4.59 4.59 0 011.945 1.748c.463.757.692 1.63.661 2.514 0 1.5.134 2.999.21 4.498-.258.49-.143.943.153 1.66v-1.603c.224-.837.32-1.7.286-2.565.002-1.241.196-2.475.573-3.659a3.4 3.4 0 01.633-1.248 3.447 3.447 0 011.085-.893c3.026-1.669 6.1-3.262 9.012-5.101a120.3 120.3 0 0011.732-8.572c.21-.16.344-.528.811-.311a100.278 100.278 0 01-2.367 11.448c-1.28 4.347-2.434 8.76-4.926 12.655a.383.383 0 000 .415v.198a.646.646 0 00.2-.085 14.363 14.363 0 002.864-3.055c1.594-2.631 3.045-5.347 5.365-7.46a.579.579 0 00.067-.094c1.384-1.688 2.663-3.48 4.181-5.045 1.518-1.565 3.103-2.754 4.668-4.112l-.028-.056z" fill="#FEFDFD"/><path d="M9.327 55.939c-1.757-.151-3.456-.689-5.308-.32-1.47.3-2.377.867-2.75 2.272-.052.18-.119.357-.2.528 0 .056-.105.085-.238.189a8.826 8.826 0 01-.23-4.555c.473-2.98.31-6.025-.477-8.94a3.113 3.113 0 01.01-1.735A115.058 115.058 0 0121.88 4.357C23.636 2.3 26.023 1.132 28.638 0c-.85 1.047-1.527 1.943-2.272 2.829-1.823 2.084-2.424 4.715-3.274 7.204a48.187 48.187 0 00-1.518 6.12c-.105.5-.229 1.236 0 1.51.43.443.955-.208 1.365-.416 4.277-2.272 8.506-1.452 12.716.095a22.731 22.731 0 016.09 3.055 15.603 15.603 0 012.635 2.49c.4.5.687.452 1.06 0 2.138-2.754 5.26-4.197 8.209-5.79 2.95-1.594 6.052-1.566 9.25-.943a14.511 14.511 0 015.919 2.414C67.358 12.06 66.488 5.44 61.61.32a14.07 14.07 0 015.308 3.083c4.42 4.272 7.809 9.317 10.997 14.513 5.002 8.01 9 16.592 11.904 25.555.253.708.253 1.48 0 2.188a15.128 15.128 0 00-.602 7.148c.231 1.64.266 3.302.106 4.95 0 .274 0 .614-.316.765-.057 0-.114 0-.124-.048-.391-1.093-.782-2.017-2.214-2.348a8.303 8.303 0 00-3.399-.537c-.85.15-1.737.113-2.587.33 1.585-1.113 3.408-1.122 5.241-1.094 1.499 0 1.661-.123 1.613-1.612a43.66 43.66 0 00-2.386-12.203c-2.2-6.72-4.85-13.289-7.933-19.662a97.519 97.519 0 00-6.51-12.042 19.853 19.853 0 00-3.131-3.772c.22 1.886-.153 3.461.324 5.027.83 2.687 1.518 5.422 2.177 8.157a41.582 41.582 0 011.412 8.986c.086 4.084.115 8.176 0 12.26a50.497 50.497 0 01-.61 7.543c-.678 3.952-1.661 7.856-2.482 11.778-.554 2.64-1.518 5.225-1.356 7.997.286 0 .401-.217.535-.377a69.963 69.963 0 015.928-6.007c1.613-1.575 3.15-3.282 5.384-4.083-1.566 1.358-3.284 2.593-4.716 4.111-1.432 1.519-2.797 3.357-4.181 5.083a.58.58 0 01-.067.094c-2.32 2.113-3.819 4.829-5.365 7.46a14.368 14.368 0 01-2.864 3.055.645.645 0 01-.2.085v-.198a.384.384 0 010-.415c2.491-3.895 3.646-8.308 4.926-12.655a100.3 100.3 0 002.367-11.448c-.468-.217-.601.15-.811.31a120.334 120.334 0 01-11.656 8.535c-2.864 1.839-5.986 3.433-9.012 5.102-.42.22-.79.524-1.085.893a3.4 3.4 0 00-.633 1.247 12.123 12.123 0 00-.573 3.66 8.613 8.613 0 01-.286 2.564.105.105 0 00-.153-.056c-.076-1.5-.229-3-.21-4.499a4.512 4.512 0 00-.661-2.514 4.59 4.59 0 00-1.945-1.748c-4.697-2.697-9.546-5.12-13.88-8.487-2.176-1.679-4.515-3.14-6.577-5.045a73.47 73.47 0 007.083 24.565l-.229.16c-1.002-1.122-2.291-2.102-2.96-3.394-2.395-4.65-5.927-8.421-9.259-12.373-1.117-1.33-2.616-2.169-3.818-3.328-.104-.11-.2-.227-.287-.35.574.066 1.105.33 1.5.746a81.925 81.925 0 018.008 7.704c.44.48.869.943 1.308 1.48.16-1.235.105-2.488-.162-3.705a140.281 140.281 0 01-4.134-29.752 62.94 62.94 0 012.73-19.935c.64-2.216 1.547-4.404 1.089-6.8-.058-.301.21-.772-.22-.876-.43-.104-.525.349-.744.594a41.863 41.863 0 00-5.499 8.666 168.456 168.456 0 00-7.885 17.116c-2.396 6.091-4.563 12.258-5.441 18.775a23.85 23.85 0 00-.096 2.508c0 .754.373 1.103 1.127 1.094h1.48a7.228 7.228 0 014.429 1.094zm60.36-33.005a.233.233 0 000 .085h.066l-.095-.104a4.573 4.573 0 00-.467-2.177 4.635 4.635 0 00-1.442-1.708 12.868 12.868 0 00-5.862-2.584 7.143 7.143 0 00-4.61.528c.763.142 1.279.245 1.794.33 2.09.358 4.22.594 6.033 1.886a41.279 41.279 0 014.582 3.744zM12.791 18.86c-.573.104-.716.641-.955 1.037-.954 1.622-1.909 3.263-2.758 4.923-3 5.536-5.528 11.308-7.56 17.257-.383 1.122-1.099 2.244-.812 3.47.341 1.343.571 2.712.687 4.093.44-.217.4-.585.458-.943a105.654 105.654 0 017.446-22.293c1.127-2.537 2.32-5.055 3.484-7.544.058-.085.287-.132.067-.283l-.057.283zm58.05 19.869c.04-4.006-.197-8.01-.707-11.985a4.371 4.371 0 00-.449-1.726 12.513 12.513 0 00-3.379-4.027c-3.389-2.433-7.083-3.772-11.236-2.829-3.942.849-7.426 2.537-9.45 6.309-.554 1.028-.764.943-1.375-.057a9.576 9.576 0 00-1.794-2.46c-5.528-4.716-12.41-5.536-18.606-1.151-2.415 1.716-3.99 3.772-4.238 6.79-.277 3.45-.22 6.902-.23 10.372 0 2.556.43 5.083.593 7.62a10.6 10.6 0 002.863 6.695c1.91 2.131 4.506 3.423 6.854 5.017 4.592 3.055 9.451 5.601 14.224 8.345a2.083 2.083 0 002.072-.066A142.063 142.063 0 0066.03 52.931c1.508-1.132 3.131-2.386 3.56-4.263a33.959 33.959 0 001.251-9.939zm17.354 10.826l.382-.104a8.603 8.603 0 01.2-2.301 6.359 6.359 0 00-.238-4.573 125.632 125.632 0 00-10.5-22.632 3.863 3.863 0 00-1.347-1.726c5.079 10.156 9.422 20.34 11.503 31.336zM20.4 22.632c1.661-1.198 3.017-2.612 4.668-3.678a14.886 14.886 0 015.728-1.838 2.818 2.818 0 00-.554-.274 11.476 11.476 0 00-4.663.223 11.393 11.393 0 00-4.177 2.06 3.1 3.1 0 00-1.077 1.592c-.18.63-.154 1.3.075 1.915z" fill="#2F80ED"/><path d="M9.326 55.939a7.227 7.227 0 00-4.429-1.132h-1.48c-.754 0-1.145-.34-1.126-1.094-.01-.825.021-1.65.095-2.47.879-6.526 3.046-12.684 5.442-18.776a168.44 168.44 0 017.885-17.115 41.861 41.861 0 015.498-8.666c.22-.246.382-.689.745-.594.363.094.162.575.22.877.458 2.395-.45 4.583-1.089 6.799A62.943 62.943 0 0018.3 33.74a140.281 140.281 0 004.133 29.752c.267 1.217.322 2.47.162 3.706-.439-.5-.868-1-1.307-1.48a81.913 81.913 0 00-8.01-7.705 2.446 2.446 0 00-1.498-.745l-2.034-1.207-.42-.141v.019zm69.514.877c-2.233.801-3.818 2.508-5.383 4.083a69.941 69.941 0 00-5.852 6.054c-.134.16-.248.387-.535.377-.162-2.772.802-5.356 1.356-7.996.821-3.923 1.804-7.827 2.482-11.779.392-2.496.596-5.017.61-7.544.087-4.092.058-8.185 0-12.259a41.582 41.582 0 00-1.412-8.986c-.659-2.735-1.346-5.47-2.176-8.157-.478-1.566-.105-3.122-.325-5.026a19.852 19.852 0 013.131 3.772 97.503 97.503 0 016.51 12.013 158.108 158.108 0 017.905 19.615 43.657 43.657 0 012.386 12.202c0 1.49-.114 1.632-1.613 1.613-1.833 0-3.656 0-5.24 1.094a3.839 3.839 0 01-1.452.688l-.363.208-.028.028z" fill="#3A5199"/><path d="M9.326 55.92l.42.141-.42-.141zm69.544.877l.362-.217-.363.217z" fill="#2F80ED"/><path d="M70.841 38.73a33.948 33.948 0 01-1.155 9.938c-.43 1.886-2.052 3.131-3.56 4.263a142.071 142.071 0 01-20.047 12.645 2.08 2.08 0 01-2.072.066c-4.868-2.744-9.727-5.29-14.271-8.373-2.348-1.632-4.916-2.886-6.826-5.017a10.6 10.6 0 01-2.863-6.696c-.163-2.536-.592-5.063-.592-7.619 0-3.46-.048-6.912.229-10.373.248-3.008 1.823-5.073 4.238-6.79 6.186-4.384 13.078-3.602 18.606 1.15a9.578 9.578 0 011.794 2.462c.611 1.01.821 1.085 1.375.057 2.024-3.772 5.508-5.46 9.45-6.309 4.153-.886 7.847.415 11.236 2.829a12.505 12.505 0 013.303 4.055c.267.539.42 1.126.449 1.726.51 3.974.746 7.979.706 11.985zm-15.75 4.648a9.857 9.857 0 00-.652-3.87 9.95 9.95 0 00-2.113-3.322 10.09 10.09 0 00-3.248-2.26 10.195 10.195 0 00-3.878-.845c-6.873-.189-10.834 4.847-10.834 10.061.066 6.47 3.646 10.373 10.052 10.647 6.176.245 10.605-4.3 10.672-10.41zm33.105 6.176C86.115 38.56 81.77 28.374 76.74 18.171a3.863 3.863 0 011.346 1.726 125.632 125.632 0 0110.5 22.632c.642 1.464.71 3.11.191 4.62a8.604 8.604 0 00-.239 2.302l-.343.103zM12.782 18.86c-1.165 2.518-2.358 5.035-3.484 7.544a105.656 105.656 0 00-7.446 22.292c-.057.321 0 .689-.458.943a25.112 25.112 0 00-.688-4.092c-.286-1.226.43-2.348.812-3.47a112.766 112.766 0 017.57-17.238c.888-1.66 1.814-3.301 2.759-4.923.229-.396.372-.943.954-1.037l-.019-.02z" fill="#3A5199"/><path d="M69.686 22.934a41.291 41.291 0 00-4.62-3.772c-1.814-1.254-3.943-1.49-6.033-1.886-.516-.085-1.031-.189-1.795-.33a7.143 7.143 0 014.716-.51 12.868 12.868 0 015.861 2.584 4.635 4.635 0 011.442 1.709c.333.677.493 1.424.467 2.177l-.038.028zM20.4 22.632a3.066 3.066 0 01-.097-1.906c.171-.63.54-1.19 1.052-1.602a11.396 11.396 0 014.176-2.06 11.477 11.477 0 014.663-.222c.194.07.38.162.554.273a14.884 14.884 0 00-5.728 1.84c-1.604 1.084-2.96 2.498-4.62 3.677zm-7.608-3.772l.057-.292c.22.15 0 .198-.067.283l.01.01z" fill="#3A5199"/><path d="M69.686 22.924l.095.104h-.066a.232.232 0 010-.085l-.029-.019z" fill="#3A5199"/><path d="M55.09 43.378c-.067 6.11-4.496 10.656-10.644 10.373-6.405-.226-9.985-4.14-10.08-10.609 0-5.215 3.961-10.25 10.834-10.062 1.337.026 2.655.314 3.879.847a10.09 10.09 0 013.247 2.259 9.952 9.952 0 012.113 3.322 9.859 9.859 0 01.651 3.87zm-10.415 9.43c6.167-.17 9.117-3.866 9.403-9.204a9.104 9.104 0 00-.6-3.613 9.19 9.19 0 00-1.98-3.097 9.32 9.32 0 00-3.044-2.088 9.416 9.416 0 00-7.266-.044 9.323 9.323 0 00-3.07 2.051 9.193 9.193 0 00-2.019 3.072 9.103 9.103 0 00-.645 3.606c.267 5.545 3.465 9.147 9.221 9.26v.057z" fill="#2F80ED"/><path d="M44.675 52.752c-5.727-.114-8.954-3.772-9.221-9.317a9.103 9.103 0 01.645-3.606 9.193 9.193 0 012.018-3.072 9.325 9.325 0 013.07-2.052 9.418 9.418 0 017.267.044 9.319 9.319 0 013.044 2.089 9.189 9.189 0 011.98 3.096 9.105 9.105 0 01.6 3.614c-.286 5.337-3.236 9.034-9.403 9.204z" fill="#3A5199"/><path d="M70.02 87.803h-.954v-3.065l-.134-.085-1.527 3.273-1.68-3.669v3.527h-.66V83.24c1.91.123 1.347 2.376 2.52 3.14 1.099-.764.593-2.942 2.473-3.15l-.038 4.574zm-27.578-.028h-.669v-4.536c1.91.085 1.365 2.31 2.52 3.168 1.08-.773.602-2.923 2.425-3.197v4.574h-.954v-3.338l-1.652 3.508-1.48-3.31-.171.056-.02 3.075zm-9.785.018v-4.517c1.174.132 2.644-.471 3.694.85a2.154 2.154 0 01.172 2.536c-.888 1.5-2.386 1.14-3.866 1.131zm.897-2.272v.943c0 1.018.63 1.348 1.537.82a2.093 2.093 0 00.115-3.357 1.775 1.775 0 00-1.26-.245c-.21.056-.296.66-.373 1.028-.037.269-.043.54-.019.81zm22.768 2.272l-2.76-3.414v3.395h-.782v-4.517c1.728.123 1.91 2.235 3.284 3.018v-2.98h.63v4.404l-.372.094zm-27.913-.018h-.668c.372-1.886.2-3.697-.506-4.536 2.1.113 2.253 2.263 3.818 3.14l-.2-3.084h.649V87.7l-.353.123-2.74-3.31v3.263zm21.374-4.621c.608.04 1.179.303 1.601.737.422.434.665 1.009.68 1.61a2.247 2.247 0 01-.592 1.651 2.3 2.3 0 01-2.52.59 2.227 2.227 0 01-.774-.512 2.193 2.193 0 01-.62-1.69 2.313 2.313 0 01.623-1.639 2.37 2.37 0 011.602-.747zm1.403 2.716c0-1.566-.44-2.273-1.289-2.33-.85-.056-1.45.632-1.48 1.886-.028 1.255.545 2.282 1.413 2.15.464-.13.864-.421 1.127-.82.143-.275.221-.578.229-.886zM37.63 83.239c.955.245 2.167-.368 3.055.594l-2.024-.32v1.753l1.671-.198.057.82-1.718-.367v2.008l2.377-.433c-.869 1.395-2.272.405-3.408.82l-.01-4.677zm22.415.066h.954a25.75 25.75 0 00.048 3.215 1.43 1.43 0 00.954.943c.411 0 1.175-.386 1.222-.688.092-1.145.11-2.295.058-3.442h.677c-.057.877-.124 1.745-.152 2.612 0 1.415-.592 2-1.91 1.98-1.317-.019-1.68-.547-1.737-1.98-.019-.877-.019-1.744-.114-2.64zm-40.237 2.593l.115 1.886h-.955V83.38c1.842-.292 2.864 0 2.95 1.028.114 1.405-1.003 1.405-2.11 1.49zm0-.622l.286.226c.315-.16.812-.264.907-.51a1.643 1.643 0 00-.238-1.065c-.067-.132-.468-.113-.707-.16l-.248 1.509zm4.821-2.216l2.1 4.715-1.136.056c0-.707.143-1.462-.888-1.528-.84-.056-1.413.123-1.46 1.104 0 .17-.392.32-.716.283l2.1-4.63zm.496 2.829l-.687-1.65-.64 1.65h1.327zm32.781 1.81v-4.385h1.031v4.385h-1.03z" fill="#2F80ED"/></g><defs><clipPath id="aclip0"><path fill="#fff" d="M0 0h90v90H0z"/></clipPath></defs></symbol><symbol fill="none" viewBox="0 0 90.11 90.21" id="logo_2" xmlns="http://www.w3.org/2000/svg"><g clip-path="url(#bclip0)"><path d="M16.228 81.466a24.7 24.7 0 012.998-.283c3.58.085 7.15.292 10.73.358 4.152.076 8.314 0 12.467.104.954 0 1.288-.283 1.336-1.198a6.49 6.49 0 01.563-2.178c.077.688.153 1.367.248 2.056.144.943.669 1.348 1.71 1.339 3.694-.057 7.397 0 11.092 0 .31-.025.623.03.907.16-7.017.151-14.033.368-21.059.415-7.026.047-13.985-.104-20.992-.198v-.575zm56.083 8.421c-8.2.32-16.4-.16-24.61-.245l24.6-.481.01.726z" fill="#2F80ED"/><path d="M78.87 56.797l.362-.217a3.838 3.838 0 001.451-.698c.85-.217 1.738-.179 2.587-.33a8.3 8.3 0 013.399.538c1.432.33 1.823 1.254 2.214 2.348 0 0 .067 0 .124.047.344-.151.296-.49.316-.764a20.966 20.966 0 00-.105-4.913 15.128 15.128 0 01.591-7.12 3.244 3.244 0 000-2.187 115.394 115.394 0 00-11.894-25.584c-3.188-5.196-6.577-10.241-10.997-14.513A14.071 14.071 0 0061.61.321c4.878 5.12 5.728 11.74 7.255 18.162a14.51 14.51 0 00-5.918-2.452c-3.198-.585-6.387-.547-9.25.943-2.864 1.49-6.072 3.037-8.21 5.79-.372.471-.659.519-1.06 0a15.607 15.607 0 00-2.634-2.49 22.733 22.733 0 00-6.09-3.055c-4.21-1.546-8.44-2.367-12.716-.094-.391.207-.954.858-1.365.415-.258-.274-.134-1.01 0-1.509a48.28 48.28 0 011.518-6.12c.82-2.367 1.422-5.026 3.245-7.082.745-.858 1.423-1.754 2.272-2.829-2.634 1.132-5.02 2.3-6.777 4.357A115.06 115.06 0 00.134 43.378a3.113 3.113 0 000 1.773c.787 2.915.95 5.96.477 8.94a8.826 8.826 0 00.23 4.554c.114-.179.2-.179.228-.179.081-.17.148-.347.2-.528.373-1.452 1.28-2.018 2.75-2.3 1.852-.369 3.551.169 5.308.32l.42.141 2.033 1.207c.087.123.183.24.286.35 1.241 1.159 2.74 1.998 3.819 3.328 3.331 3.951 6.863 7.723 9.26 12.372.668 1.292 1.956 2.273 2.959 3.395l.229-.16a73.468 73.468 0 01-7.045-24.603c2.062 1.886 4.4 3.366 6.577 5.045 4.305 3.328 9.183 5.752 13.88 8.487a4.59 4.59 0 011.945 1.748c.463.757.692 1.63.661 2.514 0 1.5.134 2.999.21 4.498-.258.49-.143.943.153 1.66v-1.603c.224-.837.32-1.7.286-2.565.002-1.241.196-2.475.573-3.659a3.4 3.4 0 01.633-1.248 3.447 3.447 0 011.085-.893c3.026-1.669 6.1-3.262 9.012-5.101a120.3 120.3 0 0011.732-8.572c.21-.16.344-.528.811-.311a100.278 100.278 0 01-2.367 11.448c-1.28 4.347-2.434 8.76-4.926 12.655a.383.383 0 000 .415v.198a.646.646 0 00.2-.085 14.363 14.363 0 002.864-3.055c1.594-2.631 3.045-5.347 5.365-7.46a.579.579 0 00.067-.094c1.384-1.688 2.663-3.48 4.181-5.045 1.518-1.565 3.103-2.754 4.668-4.112l-.028-.056z" fill="#FEFDFD"/><path d="M9.327 55.939c-1.757-.151-3.456-.689-5.308-.32-1.47.3-2.377.867-2.75 2.272-.052.18-.119.357-.2.528 0 .056-.105.085-.238.189a8.826 8.826 0 01-.23-4.555c.473-2.98.31-6.025-.477-8.94a3.113 3.113 0 01.01-1.735A115.058 115.058 0 0121.88 4.357C23.636 2.3 26.023 1.132 28.638 0c-.85 1.047-1.527 1.943-2.272 2.829-1.823 2.084-2.424 4.715-3.274 7.204a48.187 48.187 0 00-1.518 6.12c-.105.5-.229 1.236 0 1.51.43.443.955-.208 1.365-.416 4.277-2.272 8.506-1.452 12.716.095a22.731 22.731 0 016.09 3.055 15.603 15.603 0 012.635 2.49c.4.5.687.452 1.06 0 2.138-2.754 5.26-4.197 8.209-5.79 2.95-1.594 6.052-1.566 9.25-.943a14.511 14.511 0 015.919 2.414C67.358 12.06 66.488 5.44 61.61.32a14.07 14.07 0 015.308 3.083c4.42 4.272 7.809 9.317 10.997 14.513 5.002 8.01 9 16.592 11.904 25.555.253.708.253 1.48 0 2.188a15.128 15.128 0 00-.602 7.148c.231 1.64.266 3.302.106 4.95 0 .274 0 .614-.316.765-.057 0-.114 0-.124-.048-.391-1.093-.782-2.017-2.214-2.348a8.303 8.303 0 00-3.399-.537c-.85.15-1.737.113-2.587.33 1.585-1.113 3.408-1.122 5.241-1.094 1.499 0 1.661-.123 1.613-1.612a43.66 43.66 0 00-2.386-12.203c-2.2-6.72-4.85-13.289-7.933-19.662a97.519 97.519 0 00-6.51-12.042 19.853 19.853 0 00-3.131-3.772c.22 1.886-.153 3.461.324 5.027.83 2.687 1.518 5.422 2.177 8.157a41.582 41.582 0 011.412 8.986c.086 4.084.115 8.176 0 12.26a50.497 50.497 0 01-.61 7.543c-.678 3.952-1.661 7.856-2.482 11.778-.554 2.64-1.518 5.225-1.356 7.997.286 0 .401-.217.535-.377a69.963 69.963 0 015.928-6.007c1.613-1.575 3.15-3.282 5.384-4.083-1.566 1.358-3.284 2.593-4.716 4.111-1.432 1.519-2.797 3.357-4.181 5.083a.58.58 0 01-.067.094c-2.32 2.113-3.819 4.829-5.365 7.46a14.368 14.368 0 01-2.864 3.055.645.645 0 01-.2.085v-.198a.384.384 0 010-.415c2.491-3.895 3.646-8.308 4.926-12.655a100.3 100.3 0 002.367-11.448c-.468-.217-.601.15-.811.31a120.334 120.334 0 01-11.656 8.535c-2.864 1.839-5.986 3.433-9.012 5.102-.42.22-.79.524-1.085.893a3.4 3.4 0 00-.633 1.247 12.123 12.123 0 00-.573 3.66 8.613 8.613 0 01-.286 2.564.105.105 0 00-.153-.056c-.076-1.5-.229-3-.21-4.499a4.512 4.512 0 00-.661-2.514 4.59 4.59 0 00-1.945-1.748c-4.697-2.697-9.546-5.12-13.88-8.487-2.176-1.679-4.515-3.14-6.577-5.045a73.47 73.47 0 007.083 24.565l-.229.16c-1.002-1.122-2.291-2.102-2.96-3.394-2.395-4.65-5.927-8.421-9.259-12.373-1.117-1.33-2.616-2.169-3.818-3.328-.104-.11-.2-.227-.287-.35.574.066 1.105.33 1.5.746a81.925 81.925 0 018.008 7.704c.44.48.869.943 1.308 1.48.16-1.235.105-2.488-.162-3.705a140.281 140.281 0 01-4.134-29.752 62.94 62.94 0 012.73-19.935c.64-2.216 1.547-4.404 1.089-6.8-.058-.301.21-.772-.22-.876-.43-.104-.525.349-.744.594a41.863 41.863 0 00-5.499 8.666 168.456 168.456 0 00-7.885 17.116c-2.396 6.091-4.563 12.258-5.441 18.775a23.85 23.85 0 00-.096 2.508c0 .754.373 1.103 1.127 1.094h1.48a7.228 7.228 0 014.429 1.094zm60.36-33.005a.233.233 0 000 .085h.066l-.095-.104a4.573 4.573 0 00-.467-2.177 4.635 4.635 0 00-1.442-1.708 12.868 12.868 0 00-5.862-2.584 7.143 7.143 0 00-4.61.528c.763.142 1.279.245 1.794.33 2.09.358 4.22.594 6.033 1.886a41.279 41.279 0 014.582 3.744zM12.791 18.86c-.573.104-.716.641-.955 1.037-.954 1.622-1.909 3.263-2.758 4.923-3 5.536-5.528 11.308-7.56 17.257-.383 1.122-1.099 2.244-.812 3.47.341 1.343.571 2.712.687 4.093.44-.217.4-.585.458-.943a105.654 105.654 0 017.446-22.293c1.127-2.537 2.32-5.055 3.484-7.544.058-.085.287-.132.067-.283l-.057.283zm58.05 19.869c.04-4.006-.197-8.01-.707-11.985a4.371 4.371 0 00-.449-1.726 12.513 12.513 0 00-3.379-4.027c-3.389-2.433-7.083-3.772-11.236-2.829-3.942.849-7.426 2.537-9.45 6.309-.554 1.028-.764.943-1.375-.057a9.576 9.576 0 00-1.794-2.46c-5.528-4.716-12.41-5.536-18.606-1.151-2.415 1.716-3.99 3.772-4.238 6.79-.277 3.45-.22 6.902-.23 10.372 0 2.556.43 5.083.593 7.62a10.6 10.6 0 002.863 6.695c1.91 2.131 4.506 3.423 6.854 5.017 4.592 3.055 9.451 5.601 14.224 8.345a2.083 2.083 0 002.072-.066A142.063 142.063 0 0066.03 52.931c1.508-1.132 3.131-2.386 3.56-4.263a33.959 33.959 0 001.251-9.939zm17.354 10.826l.382-.104a8.603 8.603 0 01.2-2.301 6.359 6.359 0 00-.238-4.573 125.632 125.632 0 00-10.5-22.632 3.863 3.863 0 00-1.347-1.726c5.079 10.156 9.422 20.34 11.503 31.336zM20.4 22.632c1.661-1.198 3.017-2.612 4.668-3.678a14.886 14.886 0 015.728-1.838 2.818 2.818 0 00-.554-.274 11.476 11.476 0 00-4.663.223 11.393 11.393 0 00-4.177 2.06 3.1 3.1 0 00-1.077 1.592c-.18.63-.154 1.3.075 1.915z" fill="#2F80ED"/><path d="M9.326 55.939a7.227 7.227 0 00-4.429-1.132h-1.48c-.754 0-1.145-.34-1.126-1.094-.01-.825.021-1.65.095-2.47.879-6.526 3.046-12.684 5.442-18.776a168.44 168.44 0 017.885-17.115 41.861 41.861 0 015.498-8.666c.22-.246.382-.689.745-.594.363.094.162.575.22.877.458 2.395-.45 4.583-1.089 6.799A62.943 62.943 0 0018.3 33.74a140.281 140.281 0 004.133 29.752c.267 1.217.322 2.47.162 3.706-.439-.5-.868-1-1.307-1.48a81.913 81.913 0 00-8.01-7.705 2.446 2.446 0 00-1.498-.745l-2.034-1.207-.42-.141v.019zm69.514.877c-2.233.801-3.818 2.508-5.383 4.083a69.94 69.94 0 00-5.852 6.054c-.134.16-.248.387-.535.377-.162-2.772.802-5.356 1.356-7.996.82-3.923 1.804-7.827 2.482-11.779.392-2.496.596-5.017.61-7.544.087-4.092.058-8.185 0-12.259a41.582 41.582 0 00-1.412-8.986c-.659-2.735-1.346-5.47-2.176-8.157-.478-1.566-.106-3.122-.325-5.026a19.856 19.856 0 013.131 3.772 97.53 97.53 0 016.51 12.013 158.139 158.139 0 017.905 19.615 43.66 43.66 0 012.386 12.202c0 1.49-.115 1.632-1.613 1.613-1.833 0-3.656 0-5.241 1.094a3.838 3.838 0 01-1.451.688l-.363.208-.028.028z" fill="#D7C7FF"/><path d="M9.327 55.92l.42.141-.42-.141zm69.543.877l.362-.217-.363.217z" fill="#2F80ED"/><path d="M70.841 38.73a33.948 33.948 0 01-1.155 9.938c-.43 1.886-2.052 3.131-3.56 4.263a142.071 142.071 0 01-20.047 12.645 2.08 2.08 0 01-2.072.066c-4.868-2.744-9.727-5.29-14.271-8.373-2.348-1.632-4.916-2.886-6.826-5.017a10.6 10.6 0 01-2.863-6.696c-.163-2.536-.592-5.063-.592-7.619 0-3.46-.048-6.912.229-10.373.248-3.008 1.823-5.073 4.238-6.79 6.186-4.384 13.078-3.602 18.606 1.15a9.578 9.578 0 011.794 2.462c.611 1.01.821 1.085 1.375.057 2.024-3.772 5.508-5.46 9.45-6.309 4.153-.886 7.847.415 11.236 2.829a12.505 12.505 0 013.303 4.055c.267.539.42 1.126.449 1.726.51 3.974.746 7.979.706 11.985zm-15.75 4.648a9.857 9.857 0 00-.652-3.87 9.95 9.95 0 00-2.113-3.322 10.09 10.09 0 00-3.248-2.26 10.195 10.195 0 00-3.878-.845c-6.873-.189-10.834 4.847-10.834 10.061.066 6.47 3.646 10.373 10.052 10.647 6.176.245 10.605-4.3 10.672-10.41zm33.105 6.176C86.115 38.56 81.77 28.374 76.74 18.171a3.863 3.863 0 011.346 1.726 125.632 125.632 0 0110.5 22.632c.642 1.464.71 3.11.191 4.62a8.604 8.604 0 00-.239 2.302l-.343.103zM12.782 18.86c-1.164 2.518-2.358 5.035-3.484 7.544a105.656 105.656 0 00-7.446 22.292c-.057.321 0 .689-.458.943a25.114 25.114 0 00-.688-4.092c-.286-1.226.43-2.348.812-3.47a112.766 112.766 0 017.57-17.238c.888-1.66 1.814-3.301 2.759-4.923.229-.396.372-.943.954-1.037l-.019-.02z" fill="#D7C7FF"/><path d="M69.686 22.934a41.291 41.291 0 00-4.62-3.772c-1.814-1.254-3.943-1.49-6.033-1.886-.516-.085-1.031-.189-1.795-.33a7.143 7.143 0 014.716-.51 12.868 12.868 0 015.861 2.584 4.635 4.635 0 011.442 1.709c.333.677.493 1.424.467 2.177l-.038.028zM20.4 22.632a3.066 3.066 0 01-.097-1.906c.171-.63.54-1.19 1.052-1.602a11.396 11.396 0 014.176-2.06 11.477 11.477 0 014.663-.222c.194.07.38.162.554.273a14.884 14.884 0 00-5.728 1.84c-1.604 1.084-2.96 2.498-4.62 3.677zm-7.608-3.772l.057-.292c.22.15 0 .198-.067.283l.01.01z" fill="#D7C7FF"/><path d="M69.686 22.924l.095.104h-.066a.232.232 0 010-.085l-.029-.019z" fill="#D7C7FF"/><path d="M55.09 43.378c-.067 6.11-4.496 10.656-10.644 10.373-6.405-.226-9.985-4.14-10.08-10.609 0-5.215 3.961-10.25 10.834-10.062 1.337.026 2.655.314 3.879.847a10.09 10.09 0 013.247 2.259 9.952 9.952 0 012.113 3.322 9.859 9.859 0 01.651 3.87zm-10.415 9.43c6.167-.17 9.117-3.866 9.403-9.204a9.104 9.104 0 00-.6-3.613 9.19 9.19 0 00-1.98-3.097 9.32 9.32 0 00-3.044-2.088 9.416 9.416 0 00-7.266-.044 9.323 9.323 0 00-3.07 2.051 9.193 9.193 0 00-2.019 3.072 9.103 9.103 0 00-.645 3.606c.267 5.545 3.465 9.147 9.221 9.26v.057z" fill="#2F80ED"/><path d="M44.675 52.752c-5.727-.114-8.954-3.772-9.221-9.317a9.105 9.105 0 01.645-3.606 9.193 9.193 0 012.018-3.072 9.325 9.325 0 013.07-2.052 9.418 9.418 0 017.267.044 9.32 9.32 0 013.044 2.089 9.19 9.19 0 011.98 3.096 9.102 9.102 0 01.6 3.614c-.286 5.337-3.236 9.034-9.403 9.204z" fill="#D7C7FF"/><path d="M70.02 87.803h-.954v-3.065l-.134-.085-1.527 3.273-1.68-3.669v3.527h-.66V83.24c1.91.123 1.347 2.376 2.52 3.14 1.099-.764.593-2.942 2.473-3.15l-.038 4.574zm-27.578-.028h-.669v-4.536c1.91.085 1.365 2.31 2.52 3.168 1.08-.773.602-2.923 2.425-3.197v4.574h-.954v-3.338l-1.652 3.508-1.48-3.31-.171.056-.02 3.075zm-9.785.018v-4.517c1.174.132 2.644-.471 3.694.85a2.154 2.154 0 01.172 2.536c-.888 1.5-2.386 1.14-3.866 1.131zm.897-2.272v.943c0 1.018.63 1.348 1.537.82a2.093 2.093 0 00.115-3.357 1.775 1.775 0 00-1.26-.245c-.21.056-.296.66-.373 1.028-.037.269-.043.54-.019.81zm22.768 2.272l-2.76-3.414v3.395h-.782v-4.517c1.728.123 1.91 2.235 3.284 3.018v-2.98h.63v4.404l-.372.094zm-27.913-.018h-.668c.372-1.886.2-3.697-.506-4.536 2.1.113 2.253 2.263 3.818 3.14l-.2-3.084h.649V87.7l-.353.123-2.74-3.31v3.263zm21.373-4.621c.609.04 1.18.303 1.602.737a2.4 2.4 0 01.68 1.61 2.247 2.247 0 01-.592 1.651 2.299 2.299 0 01-2.52.59 2.227 2.227 0 01-.774-.512 2.194 2.194 0 01-.62-1.69 2.314 2.314 0 01.623-1.639 2.37 2.37 0 011.602-.747zm1.404 2.716c0-1.566-.44-2.273-1.289-2.33-.85-.056-1.45.632-1.48 1.886-.028 1.255.545 2.282 1.413 2.15.464-.13.864-.421 1.127-.82.143-.275.221-.578.229-.886zM37.63 83.239c.955.245 2.167-.368 3.055.594l-2.024-.32v1.753l1.671-.198.057.82-1.718-.367v2.008l2.377-.433c-.869 1.395-2.272.405-3.408.82l-.01-4.677zm22.415.066h.954a25.75 25.75 0 00.048 3.215 1.43 1.43 0 00.954.943c.411 0 1.175-.386 1.222-.688.092-1.145.11-2.295.058-3.442h.677c-.057.877-.124 1.745-.152 2.612 0 1.415-.592 2-1.91 1.98-1.317-.019-1.68-.547-1.737-1.98-.019-.877-.019-1.744-.114-2.64zm-40.237 2.593l.115 1.886h-.955V83.38c1.842-.292 2.864 0 2.95 1.028.114 1.405-1.003 1.405-2.11 1.49zm0-.622l.286.226c.316-.16.812-.264.907-.51a1.644 1.644 0 00-.238-1.065c-.067-.132-.468-.113-.707-.16l-.248 1.509zm4.821-2.216l2.1 4.715-1.136.056c0-.707.143-1.462-.888-1.528-.84-.056-1.413.123-1.46 1.104 0 .17-.392.32-.716.283l2.1-4.63zm.496 2.829l-.687-1.65-.64 1.65h1.327zm32.781 1.81v-4.385h1.031v4.385h-1.03z" fill="#2F80ED"/></g><defs><clipPath id="bclip0"><path fill="#fff" d="M0 0h90v90H0z"/></clipPath></defs></symbol></svg>