<?xml version="1.0" encoding="utf-8"?><svg xmlns="http://www.w3.org/2000/svg" xmlns:xlink="http://www.w3.org/1999/xlink"><symbol viewBox="0 0 32.01 32.17" id="edit" xmlns="http://www.w3.org/2000/svg"><path d="M3.501 10.91v17.659h17.66V20.83a24.056 24.056 0 002.43-1.824c.184-.144.543-.438 1.007-.882V30.28a1.72 1.72 0 01-1.719 1.719H1.782A1.721 1.721 0 01.063 30.28V9.191c0-.948.772-1.72 1.72-1.72H7.52a21.811 21.811 0 00-1.615 3.439H3.501zM31.52.263a20.288 20.288 0 00-2.124-.209l-.209-.007-.379-.02h-.02l-.313-.012h-.007c-5.686-.19-9.646 1.503-9.646 1.503C13.43 3.701 9.718 7.603 8.044 13.557c-.542 1.928-.372 3.934-.098 5.908.033.183.131.45.706.085 1.144-3.124 3.052-6.046 5.32-8.562 2.87-3.176 6.091-5.706 10.085-7.294.732-.294 1.43-.516 2.176-.77.026.065-.033.13-.091.156l-.066.02c-2.124.817-4.02 2.032-5.784 3.457-2.974 2.405-5.464 5.255-7.64 8.385-2.523 3.627-4.549 7.503-5.875 11.725 0 0-.236 1.052.562.287l3.516-4.372a.527.527 0 01.15-.183.787.787 0 01.274-.15c1.602-.601 3.223-1.15 4.778-1.856 2.091-.948 4.013-2.13 5.725-3.601.19-.144 2.092-1.628 4.091-4.7a.713.713 0 00.092-.137c.013-.02.026-.045.04-.065.483-.765.973-1.62 1.45-2.575l-4.032-.549s4.561-.647 5.235-2.124c.039-.079.085-.216.117-.3.353-.798.713-1.68 1.111-2.412.124-.38 1.033-1.994 1.961-2.941.222-.242.007-.674-.327-.726z"/></symbol><symbol viewBox="0 0 20.02 20" id="message" xmlns="http://www.w3.org/2000/svg"><path d="M10.001 0c-5.519 0-10 4.481-10 10a9.995 9.995 0 001.372 5.019L.018 19.085a.334.334 0 00.422.422l3.89-1.296A9.991 9.991 0 0010 20c5.52 0 10-4.481 10-10S15.52 0 10.001 0zM6.659 9c.549 0 1 .452 1 1s-.451 1-1 1c-.548 0-1-.452-1-1s.452-1 1-1zm3.342 0c.548 0 1 .452 1 1s-.452 1-1 1-1-.452-1-1 .452-1 1-1zm3.325 0c.548 0 1 .452 1 1s-.452 1-1 1c-.549 0-1-.452-1-1s.451-1 1-1z"/></symbol><symbol viewBox="0 0 30 30" id="save" xmlns="http://www.w3.org/2000/svg"><path d="M30.71 7.29l-6-6A1 1 0 0024 1h-2v8a2 2 0 01-2 2h-8a2 2 0 01-2-2V1H4a3 3 0 00-3 3v24a3 3 0 003 3h2v-9a3 3 0 013-3h14a3 3 0 013 3v9h2a3 3 0 003-3V8a1 1 0 00-.29-.71z"/><path d="M12 1h8v8h-8V1zm11 20H9a1 1 0 00-1 1v9h16v-9a1 1 0 00-1-1z"/></symbol><symbol viewBox="0 0 32 32" id="search" xmlns="http://www.w3.org/2000/svg"><path d="M14.87 10.26a4.38 4.38 0 10.001 8.76 4.38 4.38 0 00-.001-8.76z" fill-opacity=".75"/><path d="M16 0C7.163 0 0 7.164 0 16s7.163 16 16 16c8.836 0 16-7.164 16-16 0-8.837-7.164-16-16-16zm8.047 23.6a1.292 1.292 0 01-1.833 0l-3.642-3.642a6.48 6.48 0 111.788-1.877l3.687 3.687a1.295 1.295 0 010 1.833z" fill-opacity=".75"/></symbol><symbol viewBox="0 0 32 32" id="user" xmlns="http://www.w3.org/2000/svg"><path d="M16 0C7.163 0 0 7.164 0 16s7.163 16 16 16c8.836 0 16-7.164 16-16 0-8.837-7.164-16-16-16zm.049 23.548H9.116c0-4.998 4.39-4.997 5.364-6.304l.111-.596c-1.368-.693-2.334-2.365-2.334-4.32 0-2.577 1.676-4.666 3.743-4.666s3.743 2.089 3.743 4.665c0 1.94-.95 3.6-2.3 4.305l.127.678c1.069 1.243 5.313 1.324 5.313 6.238h-6.834z" fill-opacity=".5"/></symbol><symbol viewBox="0 0 20 20" id="users" xmlns="http://www.w3.org/2000/svg"><path d="M10 0C4.477 0 0 4.477 0 10c0 5.522 4.477 10 10 10s10-4.478 10-10c0-5.523-4.477-10-10-10zM2.715 13.767c0-3.124 2.744-3.124 3.353-3.94l.07-.373c-.856-.434-1.46-1.479-1.46-2.701 0-1.61 1.048-2.916 2.34-2.916 1.017 0 1.88.811 2.202 1.941-1.294.412-2.25 1.815-2.25 3.483 0 1.148.453 2.204 1.196 2.874-.12.062-.252.124-.366.177-.6.282-1.43.672-2.03 1.455H2.715zm7.315 2.507H5.698c0-3.124 2.743-3.123 3.352-3.94l.07-.373c-.855-.433-1.46-1.478-1.46-2.7 0-1.61 1.048-2.916 2.34-2.916 1.292 0 2.34 1.305 2.34 2.916 0 1.211-.594 2.25-1.438 2.69l.08.424c.668.777 3.32.828 3.32 3.899H10.03zm4.2-2.507c-.599-.783-1.43-1.173-2.029-1.454a11.773 11.773 0 01-.366-.177c.743-.672 1.196-1.73 1.196-2.875 0-1.668-.957-3.071-2.25-3.482.321-1.13 1.185-1.942 2.202-1.942 1.292 0 2.34 1.306 2.34 2.916 0 1.212-.594 2.25-1.438 2.69l.08.424c.668.777 3.32.828 3.32 3.9H14.23z"/></symbol></svg>