<?xml version="1.0" encoding="utf-8"?><svg xmlns="http://www.w3.org/2000/svg" xmlns:xlink="http://www.w3.org/1999/xlink"><symbol viewBox="0 0 490.88 436.15" id="basket" xmlns="http://www.w3.org/2000/svg"><path d="M451.611 178.111h-31.244c3.668 20.593-5.14 42.301-23.979 53.957a52.522 52.522 0 01-27.635 7.869c-18.359 0-35.082-9.312-44.729-24.912-6.822-11.033-9.033-24.246-6.75-36.915h-143.67c2.273 12.669.063 25.881-6.758 36.922-9.639 15.592-26.362 24.904-44.721 24.904a52.554 52.554 0 01-27.646-7.869c-18.835-11.656-27.646-33.364-23.974-53.957H39.263C17.575 178.11 0 195.685 0 217.373c0 21.676 17.575 39.25 39.263 39.25h4.331l28.793 175.116c3.019 18.319 18.847 31.771 37.423 31.771h271.254c18.575 0 34.403-13.452 37.42-31.771l28.784-175.114h4.343c21.686 0 39.264-17.576 39.264-39.251 0-21.688-17.58-39.263-39.264-39.263zM167.419 418.083c-1.186.174-2.36.266-3.523.266-11.459 0-21.503-8.391-23.269-20.069l-16.306-108.682c-1.931-12.87 6.931-24.861 19.801-26.792 12.886-1.875 24.853 6.931 26.792 19.793l16.31 108.692c1.931 12.866-6.935 24.86-19.805 26.792zm101.578-23.301c0 13.018-10.541 23.564-23.552 23.564-13.016 0-23.552-10.549-23.552-23.564V286.093c0-13.004 10.537-23.553 23.552-23.553 13.011 0 23.552 10.549 23.552 23.553v108.689zm97.564-105.186l-16.317 108.682c-1.754 11.68-11.797 20.069-23.256 20.069-1.168 0-2.338-.091-3.527-.266-12.869-1.931-21.732-13.926-19.801-26.792l16.307-108.692c1.938-12.87 13.857-21.732 26.791-19.794 12.867 1.931 21.732 13.924 19.803 26.793z"/><path d="M102.748 218.713a36.694 36.694 0 0019.379 5.521c12.341 0 24.407-6.199 31.362-17.464 6.415-10.375 6.967-22.646 2.739-33.151l69.947-113.048c6.321-10.222 3.16-23.611-7.062-29.944a21.692 21.692 0 00-11.423-3.263c-7.286 0-14.402 3.661-18.528 10.324l-69.924 113.048c-11.282.906-22.02 6.86-28.435 17.232-10.717 17.315-5.354 40.035 11.945 50.745zm231.904-45.094c-4.228 10.505-3.688 22.776 2.729 33.151 6.967 11.266 19.021 17.464 31.373 17.464a36.724 36.724 0 0019.379-5.521c17.299-10.71 22.65-33.431 11.937-50.745-6.398-10.372-17.146-16.326-28.418-17.232L301.7 37.688c-4.114-6.664-11.231-10.324-18.519-10.324-3.899 0-7.855 1.06-11.427 3.263-10.218 6.333-13.354 19.722-7.058 29.944l69.956 113.048z"/></symbol><symbol viewBox="0 0 491.996 491.996" id="down-arrow" xmlns="http://www.w3.org/2000/svg"><path d="M484.132 124.986l-16.116-16.228c-5.072-5.068-11.82-7.86-19.032-7.86-7.208 0-13.964 2.792-19.036 7.86l-183.84 183.848L62.056 108.554c-5.064-5.068-11.82-7.856-19.028-7.856s-13.968 2.788-19.036 7.856l-16.12 16.128c-10.496 10.488-10.496 27.572 0 38.06l219.136 219.924c5.064 5.064 11.812 8.632 19.084 8.632h.084c7.212 0 13.96-3.572 19.024-8.632l218.932-219.328c5.072-5.064 7.856-12.016 7.864-19.224 0-7.212-2.792-14.068-7.864-19.128z"/></symbol><symbol viewBox="0 0 513.64 513.64" id="phone-call" xmlns="http://www.w3.org/2000/svg"><path d="M499.66 376.96l-71.68-71.68c-25.6-25.6-69.12-15.359-79.36 17.92-7.68 23.041-33.28 35.841-56.32 30.72-51.2-12.8-120.32-79.36-133.12-133.12-7.68-23.041 7.68-48.641 30.72-56.32 33.28-10.24 43.52-53.76 17.92-79.36l-71.68-71.68c-20.48-17.92-51.2-17.92-69.12 0L18.38 62.08c-48.64 51.2 5.12 186.88 125.44 307.2s256 176.641 307.2 125.44l48.64-48.64c17.921-20.48 17.921-51.2 0-69.12z"/></symbol></svg>