<?xml version="1.0" encoding="utf-8"?>
<!-- Generator: Adobe Illustrator 24.0.0, SVG Export Plug-In . SVG Version: 6.00 Build 0)  -->
<svg version="1.1" id="Слой_1" xmlns="http://www.w3.org/2000/svg" xmlns:xlink="http://www.w3.org/1999/xlink" x="0px" y="0px"
	 viewBox="0 0 500 500" style="enable-background:new 0 0 500 500;" xml:space="preserve">
<style type="text/css">
	.st0{fill:none;stroke:#000000;stroke-width:6;}
	.st1{fill:none;stroke:#000000;stroke-width:6;stroke-linecap:round;}
	.st2{fill:#FFFFFF;}
</style>
<circle class="st2" cx="250" cy="250.206" r="248.791"/>
<g>
	<path d="M267.92,471.788l-16.286-38.867l-75.788,26.344l1.409-42.397l-80.438-7.077l19.014-37.838l-71.379-38.813l33.512-27.176
		l-49.462-59.005l41.844-16.626l-17.034-84.135l40.745,11.627l14.558-80.092l36.52,23.84l45.958-67.099l23.647,36.375l68.45-42.635
		l7.622,42.894l79.867-10.259l-10.456,41.433l77.115,23.586l-26.379,33.113l60.535,51.909L434.223,231.4l33.826,72.89l-42.011,2.765
		l1.611,80.148l-39.861-14.387l-30.961,73.227l-30.723-28.71L267.92,471.788z M251.833,423.063c3.685,0,7.171,2.186,8.669,5.758
		l10.996,26.244l48.192-45.102c3.594-3.361,9.224-3.364,12.822-0.005l20.768,19.406l25.656-60.679
		c1.939-4.595,7.139-6.864,11.828-5.175l26.84,9.686l-1.333-66.305c-0.1-5.031,3.752-9.227,8.768-9.555l28.16-1.854l-27.98-60.292
		c-2.069-4.454-0.318-9.801,3.987-12.173l25.243-13.891l-50.117-42.972c-3.853-3.302-4.397-9.002-1.233-12.972l17.666-22.177
		l-63.737-19.494c-4.791-1.47-7.581-6.421-6.354-11.274l7.036-27.881l-66.006,8.479c-4.969,0.643-9.559-2.731-10.438-7.667
		l-5.159-29.04l-56.517,35.202c-4.306,2.685-10.06,1.407-12.829-2.85l-15.877-24.422l-37.9,55.335
		c-2.857,4.173-8.631,5.322-12.871,2.557l-24.518-16.005l-12.003,66.034c-0.47,2.601-2.029,4.894-4.274,6.291
		c-2.245,1.398-4.997,1.783-7.535,1.057l-25.713-7.336l13.912,68.714c0.901,4.457-1.511,8.908-5.735,10.586l-29.577,11.752
		l41.026,48.944c1.629,1.942,2.393,4.401,2.15,6.925c-0.242,2.525-1.46,4.796-3.429,6.394l-22.478,18.227l58.881,32.018
		c4.476,2.438,6.189,7.91,3.903,12.461l-12.72,25.314l66.467,5.849c4.966,0.437,8.724,4.68,8.558,9.661l-0.949,28.54l62.687-21.791
		C249.777,423.231,250.813,423.063,251.833,423.063z"/>
	<path d="M183.564,258.508c-14.763,0.002-29.404-3.323-42.365-10.095c-17.903-9.351-47.819-33.551-47.031-90.545
		c0.038-2.673,2.215-4.815,4.88-4.815c0.024,0,0.046,0,0.068,0c2.697,0.038,4.851,2.253,4.815,4.948
		c-0.531,38.369,14.31,67.405,41.789,81.76c27.291,14.256,62.976,11.404,88.796-7.096c14.612-10.473,38.056-34.927,30.885-81.059
		c-0.413-2.665,1.411-5.159,4.074-5.574c2.662-0.396,5.159,1.409,5.574,4.074c5.824,37.467-6.877,70.451-34.846,90.494
		C223.684,252.436,203.515,258.508,183.564,258.508z"/>
	<path d="M272.427,147.685c-1.752-1.216-4.157-0.784-5.375,0.968c-1.216,1.75-0.784,4.157,0.968,5.373L272.427,147.685z
		 M268.021,154.026c36.056,25.056,41.369,70.918,23.84,106.328c-8.731,17.637-23.056,32.453-41.814,40.585
		c-18.715,8.113-42.127,9.7-69.309,0.413l-2.497,7.306c28.804,9.843,54.218,8.323,74.878-0.634
		c20.617-8.938,36.216-25.159,45.664-44.244c18.829-38.04,13.524-88.383-26.355-116.096L268.021,154.026z"/>
	<path d="M182.326,312.026l-1.815-9.591c9.383-1.776,16.885-8.646,20.066-18.378c3.396-10.387,0.915-21.407-6.634-29.477
		l7.128-6.671c10.02,10.711,13.303,25.357,8.785,39.18C205.617,300.061,195.068,309.616,182.326,312.026z"/>
	<circle cx="228.395" cy="260.897" r="11.583"/>
	<circle cx="176.914" cy="305.944" r="9.009"/>
</g>
</svg>
