<?xml version="1.0" encoding="utf-8"?><svg xmlns="http://www.w3.org/2000/svg" xmlns:xlink="http://www.w3.org/1999/xlink"><symbol viewBox="0 0 480 480" id="arrow" xmlns="http://www.w3.org/2000/svg"><path d="M194.736 461.248l-128-128c-24.96-24.928-24.96-65.568 0-90.496C78.8 230.656 94.896 224 111.984 224s33.184 6.656 45.248 18.752l82.752 82.752 82.752-82.752C334.832 230.656 350.896 224 367.984 224s33.152 6.656 45.248 18.752c12.096 12.096 18.752 28.16 18.752 45.248s-6.656 33.152-18.752 45.248l-128 128C273.168 473.344 257.072 480 239.984 480s-33.184-6.656-45.248-18.752zm67.872-22.624l128-128c12.096-12.128 12.096-33.12 0-45.248-12.48-12.48-32.768-12.48-45.248 0L239.984 370.752 134.608 265.376c-6.048-6.048-14.08-9.376-22.624-9.376s-16.576 3.328-22.624 9.376A31.912 31.912 0 0079.984 288a32.013 32.013 0 009.344 22.624l128 128c6.08 6.048 14.112 9.376 22.656 9.376s16.576-3.328 22.624-9.376z" xmlns="http://www.w3.org/2000/svg"/><path d="M194.736 237.248l-128-128c-24.96-24.928-24.96-65.568 0-90.496C78.8 6.656 94.896 0 111.984 0s33.184 6.656 45.248 18.752l82.752 82.752 82.752-82.752C334.832 6.656 350.896 0 367.984 0s33.152 6.656 45.248 18.752c12.096 12.096 18.752 28.16 18.752 45.248s-6.656 33.152-18.752 45.248l-128 128C273.168 249.344 257.072 256 239.984 256s-33.184-6.656-45.248-18.752zm67.872-22.624l128-128c12.096-12.128 12.096-33.12 0-45.248-12.48-12.48-32.768-12.48-45.248 0L239.984 146.752 134.608 41.376C128.56 35.328 120.528 32 111.984 32s-16.576 3.328-22.624 9.376c-6.24 6.24-9.376 14.432-9.376 22.624s3.136 16.384 9.344 22.624l128 128c6.08 6.048 14.112 9.376 22.656 9.376s16.576-3.328 22.624-9.376z" xmlns="http://www.w3.org/2000/svg"/></symbol><symbol viewBox="0 0 64 64" id="arrow_1" xmlns="http://www.w3.org/2000/svg"><path d="M56.84 32l-2.24-1.11h-.05L7.16 7.17 21 31.87l-13.76 25zM12.08 11.86l38 19H22.69zm10.61 21h28L12 52.16z"/></symbol><symbol viewBox="0 0 74.42 91.56" id="arrow_2" xmlns="http://www.w3.org/2000/svg"><path d="M37.426 46.086c-.342.391-21.391 22.668-25.339 28.934-.811 1.288.854 3.089 2.16 2.162 5.325-3.774 9.769-8.958 14.438-13.499C32.09 60.37 44.642 48.41 44.947 47.874c1.665-2.913-1.797-5.667-3.589-7.533-3.281-3.418-24.095-24.74-26.263-25.579a3.165 3.165 0 00-2.454-.249c-.021.004-.041.004-.062.009.007 0 .014.002.022.004-2.111.66-3.619 3.302-1.973 5.376.86 1.668 25.75 25.145 26.798 26.184z"/><path d="M39.215.717c3.154 1.191 32.3 31.116 37.038 35.986 2.691 2.769 7.148 6.22 6.431 10.486-.188 1.117-1.03 2.097-2.023 2.728-.367.375-34.475 34.777-42.558 40.507-1.877 1.332-4.268-1.257-3.104-3.104 5.551-8.81 35.755-40.814 36.414-41.531-1.396-1.384-37.272-35.233-38.53-37.656-2.339-2.993-.142-6.791 2.905-7.709L35.665.39c.153-.029 2.523-.198 3.55.327z"/></symbol><symbol viewBox="0 0 100 100" id="arrow_3" xmlns="http://www.w3.org/2000/svg"><path d="M28.213 27.267v8.294c0 .571.305 1.1.8 1.385l20.212 11.669a1.6 1.6 0 010 2.771L29.013 63.055a1.6 1.6 0 00-.8 1.385v8.294a1.6 1.6 0 002.399 1.385l39.375-22.733a1.6 1.6 0 000-2.771L30.612 25.881a1.6 1.6 0 00-2.399 1.386z"/><path d="M69.987 48.615L30.612 25.881a1.56 1.56 0 00-.597-.19l37.972 21.923a1.6 1.6 0 010 2.771L28.612 73.119c-.1.058-.205.092-.308.126.308.914 1.401 1.398 2.308.874l39.375-22.733a1.6 1.6 0 000-2.771z"/><path d="M28.213 27.267v8.294c0 .571.305 1.1.8 1.385l20.212 11.669a1.6 1.6 0 010 2.771L29.013 63.055a1.6 1.6 0 00-.8 1.385v8.294a1.6 1.6 0 002.399 1.385l39.375-22.733a1.6 1.6 0 000-2.771L30.612 25.881a1.6 1.6 0 00-2.399 1.386z"/></symbol><symbol viewBox="0 0 48 48" id="arrow_4" xmlns="http://www.w3.org/2000/svg"><path d="M24 0C10.745 0 0 10.745 0 24c0 13.254 10.745 24 24 24s24-10.746 24-24C48 10.745 37.255 0 24 0zm12.038 25.797c-.001 0-.001 0 0 0l-9.432 6.639c-1.297.91-1.458-.422-1.458-.422v-.342s-.011-1.492 1.309-2.396l1.32-.902v.033l1.587-1.117.02-.014 2.797-1.969c1.153-.814.304-1.658.06-1.867l-.05-.041-.012-.01-3.426-2.823c-.885-.728-1.043.167-1.043.167h-.002c-.156.639-.662 1.506-2.27 1.506H15.246c-.475.031-1.32.242-1.32 1.377v.538c.051.434.345 1.118 1.75 1.118h7.912c.521.025 1.561.207 1.561 1.244v.076s.063 1.309-1.682 1.309h-9.459c-2.377 0-2.762-1.461-2.812-2.15v-4.125c0-1.991 1.883-1.915 1.883-1.915h9.743c1.835 0 2.248-.898 2.326-1.47v-1.525s.017-2.551 1.985-.929l8.904 7.339c.005.002 1.722 1.46.001 2.671z"/></symbol><symbol viewBox="0 0 1110 1083" id="github" xmlns="http://www.w3.org/2000/svg"><path d="M538.5 1.7c-127 4.2-248.4 51.5-345 134.4-14.7 12.6-44.9 42.7-57.1 56.9C76.5 262.5 34.9 344.3 14.6 432c-23.1 100.1-18 205.7 14.5 303.3 14.5 43.6 38.2 91.9 64.3 131.2 62.2 93.4 153.9 167.7 258.3 208.9l19.1 7.6h18.4c20.2-.1 20.5-.2 25.5-7.5 4.5-6.6 4.6-7.9 4.4-65.4-.1-30-.3-54.7-.5-54.8-.1-.2-6.8.8-14.7 2.1-20.2 3.4-40.1 4.9-54.4 4.1-40.5-2.3-72-14.9-95.2-38.2-10.1-10.3-16.9-20.4-23-34.7-16.4-38.4-35.5-63.8-60-80-11.4-7.5-20.3-15.7-22.2-20.4-1.2-2.8-1.1-3.5.4-5.8.9-1.4 3.8-3.5 6.3-4.7 7.2-3.3 23.6-3 35.6.7 26.6 8.1 47.7 25.5 67.9 56.3 16.5 25 29.5 37.5 49.2 47.4 29.5 14.7 66.4 14.4 105.6-.8l6.7-2.7.7-5.3c.9-7.4 5-22.1 8.6-31.2 4.3-10.9 11-21.8 18.8-30.9l6.8-7.9-16.1-2.2c-36.9-5.2-67.2-12.8-94.1-23.8C258.8 742 213.2 673.8 204 565.5c-.8-8.6-1-24-.8-39.5.6-27.9 2.5-41.6 8.7-62.1 7.9-25.9 21.7-52.1 38.2-72.3 3.5-4.3 7.2-8.8 8.1-10 1.6-2 1.5-2.5-1.2-10.6-6.2-18.5-8.5-36.3-7.7-61.9.5-18.4 1.9-28.7 5.8-44.6 3-12 8.9-29.3 10.6-31 1.1-1.1 3.9-1.5 11.2-1.5 33.1 0 75.7 16.7 128.8 50.3l12.2 7.8 9.3-2.5C489 271 565.6 267.1 634 277.1c16.7 2.4 40.5 7.1 52.8 10.5l9.3 2.5 13.2-8.4c42.5-27.1 78.6-43 109.1-48.2 9.4-1.6 27.2-2 29.3-.7.7.5 3.3 7 5.8 14.5 14.1 42.8 15.2 86.1 3.4 123.4l-3 9.2 6.6 7.8c14.2 16.7 28.4 40.6 35.8 60.3 11.4 29.9 15.4 56.3 14.4 94-1.5 53-10.4 94.8-28.3 131.5-34.3 70.8-100.8 112-203.9 126.4-8.2 1.2-16.5 2.4-18.3 2.7l-3.4.5 6 6.3c14.7 15.3 24.2 36.3 30 66.1 1.5 8.1 1.7 17.8 1.7 100v91l2.8 5.7c1.5 3.1 4.2 6.9 5.8 8.3 3 2.5 3.2 2.5 21.3 2.5h18.2l13.9-5.4c98.3-37.8 183.5-102.4 246.8-187.1 52.3-70 87.6-152.5 102.1-238.5 4.7-27.8 4.8-29.1 4.4-99.5l-.4-67-2.7-15.5c-7.7-43.5-15.7-73.4-28.9-108.5-49.1-130.5-147-239-271.7-301.4C746.5 30.2 683.3 11.8 616 4.5c-15.6-1.6-52.4-3.6-63-3.3-3.6.1-10.1.3-14.5.5z"/><path d="M198.3 791.5c-5.6 4-.3 11.5 8 11.5 4.1 0 6-1.9 5.5-5.6-.6-5.2-9.3-9-13.5-5.9zm23.6 18.9c-4.9 2.4-2.9 12 3.1 15.1 8.1 4.2 13.7-1.3 9.6-9.4-2.7-5.2-8.5-7.8-12.7-5.7zm20.7 29.2c-2.7 2.6-2.9 5.9-.8 10.8 3.4 7.5 11 10.8 15.2 6.6 2.4-2.4 2.6-7 .3-11.7-2.9-6.2-11.1-9.4-14.7-5.7zm24.8 32.9c-5.8 8.9 11.1 24 18.6 16.5 6.3-6.3-2.3-19-12.7-19-3.4 0-4.6.5-5.9 2.5zm38.8 23.1c-1.6 1.1-2.2 2.5-2.2 5.4 0 3.1.6 4.4 3.5 6.8 7.7 6.9 20.5 4.7 20.5-3.4 0-2.7-3.4-7-7-8.9-3.8-2-12-1.9-14.8.1zm90.1 2.4c-5.8 3.5-6.9 8.5-2.8 12.5 2 2.1 3.4 2.5 8.2 2.5 9.3 0 15.3-5.1 13.7-11.6-1.3-5.2-12.8-7.3-19.1-3.4zm-42.3 4.7c-10 5.1-5.7 15.6 6.3 15.6 8.9 0 13.5-3.8 12.5-10.3-.8-5.7-12-8.8-18.8-5.3z"/></symbol><symbol viewBox="0 0 1140 823" id="gmail" xmlns="http://www.w3.org/2000/svg"><path d="M84 5.5c-20.3 3.7-35.8 12-50.5 27C19.4 46.9 10.3 66 8 86c-.8 6.7-1 105.7-.8 332l.3 322.5 2.3 8.4c9.7 36 38.5 63 73.8 69 10.3 1.8 953.5 1.1 964.9-.7 31.6-5 47.5-11 61.6-23.1 10.6-9.1 18.4-25.3 22-45.1 2.1-11.1 2.1-660.3.1-670-7.4-35.4-32.2-61.8-67.7-72.2l-8-2.3L574 4.3c-402.6-.1-483.7.1-490 1.2zm884 23.9c-2.3 2.1-397 292.7-398.4 293.2-.6.2-88.8-64.7-196.1-144.2C266.3 98.9 176.7 32.5 174.6 30.9l-4-2.9H570c340.7 0 399.2.2 398 1.4zM346.8 390.5c145.8 100.3 181.1 125.1 180 126C525.2 518.1 157 774 156.4 774c-.2 0-.4-115.9-.4-257.6V258.8l4.8 3.4c2.6 1.9 86.3 59.6 186 128.3zM982 517.1v257.1l-2.8-1.9c-1.6-1-85.4-59.2-186.2-129.3-162.6-113.1-183-127.6-181.4-128.7 1.1-.7 84.5-58.1 185.4-127.7s183.8-126.5 184.3-126.5c.4-.1.7 115.6.7 257zm-417.6 20.8c5.5 1 8.3.3 18.3-4.8l6.1-3 190.9 132.7 190.9 132.7-200.2.3c-110.1.1-290.8.1-401.4 0l-201.2-.3 190.7-132.7 190.8-132.6 5.1 3.4c2.8 1.8 7.3 3.8 10 4.3z"/></symbol><symbol viewBox="0 0 512.092 512.092" id="link" xmlns="http://www.w3.org/2000/svg"><path d="M312.453 199.601a116.167 116.167 0 00-20.053-16.128 119.472 119.472 0 00-64.427-18.859 118.952 118.952 0 00-84.48 34.987L34.949 308.23a119.466 119.466 0 00-34.91 84.318c-.042 65.98 53.41 119.501 119.39 119.543a118.7 118.7 0 0084.395-34.816l89.6-89.6a8.534 8.534 0 00-6.059-14.592h-3.413a143.626 143.626 0 01-54.613-10.581 8.533 8.533 0 00-9.301 1.877l-64.427 64.512c-20.006 20.006-52.442 20.006-72.448 0-20.006-20.006-20.006-52.442 0-72.448l108.971-108.885c19.99-19.965 52.373-19.965 72.363 0 13.472 12.679 34.486 12.679 47.957 0a34.134 34.134 0 009.899-21.675 34.137 34.137 0 00-9.9-26.282z"/><path d="M477.061 34.993c-46.657-46.657-122.303-46.657-168.96 0l-89.515 89.429a8.533 8.533 0 00-1.792 9.387 8.532 8.532 0 008.021 5.205h3.157a143.357 143.357 0 0154.528 10.667 8.533 8.533 0 009.301-1.877l64.256-64.171c20.006-20.006 52.442-20.006 72.448 0 20.006 20.006 20.006 52.442 0 72.448l-80.043 79.957-.683.768-27.989 27.819c-19.99 19.965-52.373 19.965-72.363 0-13.472-12.679-34.486-12.679-47.957 0a34.139 34.139 0 00-9.899 21.845 34.137 34.137 0 009.899 26.283 118.447 118.447 0 0034.133 23.893c1.792.853 3.584 1.536 5.376 2.304 1.792.768 3.669 1.365 5.461 2.048a67.799 67.799 0 005.461 1.792l5.035 1.365c3.413.853 6.827 1.536 10.325 2.133 4.214.626 8.458 1.025 12.715 1.195h6.485l5.12-.597c1.877-.085 3.84-.512 6.059-.512h2.901l5.888-.853 2.731-.512 4.949-1.024h.939a119.456 119.456 0 0055.381-31.403l108.629-108.629c46.66-46.657 46.66-122.303.003-168.96z"/></symbol><symbol viewBox="0 0 375.48 427.1" id="logo" xmlns="http://www.w3.org/2000/svg"><path d="M236.51 207.297l-22.962-90.494-22.958 90.494h22.958z"/><path d="M60.843 187.738c0 78.88 136.327 184.162 152.705 196.521 16.379-12.358 152.711-117.661 152.711-196.521V35.032H60.843v152.706zm94.011 81.033h14.588L210.09 108.55h-13.839a2.687 2.687 0 110-5.376h34.599a2.687 2.687 0 110 5.376h-13.839l40.657 160.221h14.589c1.486 0 2.688 1.207 2.688 2.688s-1.202 2.688-2.688 2.688h-34.604c-1.48 0-2.688-1.207-2.688-2.688s1.207-2.688 2.688-2.688h14.455l-14.226-56.106h-48.659l-14.233 56.106h14.459c1.483 0 2.688 1.207 2.688 2.688s-1.205 2.688-2.688 2.688h-34.602c-1.483 0-2.688-1.207-2.688-2.688s1.207-2.688 2.695-2.688z"/><path d="M398.602 0H28.496a2.689 2.689 0 00-2.688 2.688v185.05c0 99.321 151.343 213.286 168.597 225.948l17.552 12.882c.473.335 1.03.529 1.59.529a2.68 2.68 0 001.592-.529l17.548-12.882c17.261-12.662 168.602-126.638 168.602-225.948V2.688A2.688 2.688 0 00398.602 0zm-26.967 187.738c0 36.327-26.405 81.41-78.474 134.01-38.552 38.951-77.629 67.754-78.032 68.042a2.765 2.765 0 01-1.592.515c-.56 0-1.117-.163-1.59-.515-.394-.293-39.468-29.091-78.02-68.031-52.065-52.601-78.47-97.693-78.47-134.015V32.345a2.693 2.693 0 012.688-2.688h310.792a2.698 2.698 0 012.688 2.688l.01 155.393z"/></symbol><symbol viewBox="0 0 1280 1024" id="mail" xmlns="http://www.w3.org/2000/svg"><path d="M145 25c-20.3 1.4-39.5 6.7-58.5 16.1-15.7 7.8-28.6 17.1-41 29.5-21.3 21.4-35 46.3-42.4 76.9l-2.6 11v707l2.6 11c9.1 37.8 29.5 69.3 59.3 91.7 25 18.7 52.9 28.7 86.1 30.9 10.8.7 175.3.9 503.5.7 454-.3 488.1-.5 496.5-2 34.4-6.5 62.9-21.2 86-44.3 20.9-20.9 35.1-46.7 42.4-77l2.6-11v-353c0-338-.1-353.4-1.8-361.5-9.3-43-33.2-78.2-69-101.4-22.6-14.8-46.8-22.7-75.2-24.6-15.3-1.1-972.9-1-988.5 0zm999 74.7c16.9 4.9 28.6 12 40.2 24.1 12.1 12.7 20.1 28.4 22.7 45.2.8 4.4 1.1 114.7 1.1 344.2 0 286.3-.2 338.7-1.4 345-6.4 33.1-32.8 60-65.6 66.8-9.3 1.9-17.5 2-500.7 2-529.3 0-496.7.3-511.7-4.9C99.7 912 77.9 885.6 73 855c-1.4-9.1-1.4-677 .1-686 5.8-36.3 35.4-65.6 71.7-70.9 3.1-.5 227.6-.8 498.7-.7l493 .1 7.5 2.2z"/><path d="M173.3 161.4c-23.2 7.6-33.2 34-20.5 54.3 1.8 3 56.1 52.1 162.2 147 87.7 78.4 159.6 142.9 159.8 143.2.1.4-71.2 67.6-158.5 149.4-97.1 90.8-159.8 150.3-161.4 152.9-4 6.5-5.3 11.5-5.2 19.8.1 10.5 3 17.9 9.9 24.8 7.9 7.8 14.6 10.6 25.9 10.6 16.6.1 1.5 13.1 182.5-156.4 88.3-82.6 161-150.4 161.7-150.7.7-.3 21.1 17.4 45.5 39.1 31.2 27.9 45.9 40.5 49.8 42.4 10.2 5 26.4 4.1 35.5-2.1 1.8-1.2 23.3-20.2 47.9-42.2 24.6-22 45-40.1 45.4-40.2.4-.2 72.9 68.4 161.2 152.3 129.1 122.6 161.6 153 166 155.2 7.7 3.8 20.9 4.3 29.1 1.3 6.3-2.4 13.9-8.5 17.3-14 7.7-12.2 7.4-29.1-.7-40.5-1.7-2.5-73.8-71.6-160.2-153.6-86.3-81.9-157.1-149.4-157.3-149.9-.2-.5 70.8-64.6 157.6-142.5C1111.2 232.1 1125 219.4 1127.9 214c8-15 5.5-31.9-6.5-43.7-7.2-7-14.1-9.6-25.5-9.7-8-.1-9.1.2-15.3 3.4-5.6 2.9-44.9 37.8-222.8 197.5C738.9 468.2 641.4 555.6 641 555.8c-.8.3-9.9-7.8-260.5-232.3C187 150.3 199.8 160.9 185.1 160.3c-4.6-.2-9.3.3-11.8 1.1z"/></symbol><symbol viewBox="0 0 612 612" id="message" xmlns="http://www.w3.org/2000/svg"><path d="M401.625 325.125h-191.25c-10.557 0-19.125 8.568-19.125 19.125s8.568 19.125 19.125 19.125h191.25c10.557 0 19.125-8.568 19.125-19.125s-8.568-19.125-19.125-19.125zm38.25-114.75h-267.75c-10.557 0-19.125 8.568-19.125 19.125s8.568 19.125 19.125 19.125h267.75c10.557 0 19.125-8.568 19.125-19.125s-8.568-19.125-19.125-19.125zM306 0C137.012 0 0 119.875 0 267.75c0 84.514 44.848 159.751 114.75 208.826V612l134.047-81.339c18.552 3.061 37.638 4.839 57.203 4.839 169.008 0 306-119.875 306-267.75S475.008 0 306 0zm0 497.25c-22.338 0-43.911-2.601-64.643-7.019l-90.041 54.123 1.205-88.701C83.5 414.133 38.25 345.513 38.25 267.75c0-126.741 119.875-229.5 267.75-229.5s267.75 102.759 267.75 229.5S453.875 497.25 306 497.25z"/></symbol><symbol viewBox="0 0 322 322" id="phone" xmlns="http://www.w3.org/2000/svg"><path d="M275.445 135.123c.387-45.398-38.279-87.016-86.192-92.771-.953-.113-1.991-.285-3.09-.467-2.372-.393-4.825-.797-7.3-.797-9.82 0-12.445 6.898-13.136 11.012-.672 4-.031 7.359 1.902 9.988 3.252 4.422 8.974 5.207 13.57 5.836 1.347.186 2.618.359 3.682.598 43.048 9.619 57.543 24.742 64.627 67.424.173 1.043.251 2.328.334 3.691.309 5.102.953 15.717 12.365 15.717h.001c.95 0 1.971-.082 3.034-.244 10.627-1.615 10.294-11.318 10.134-15.98-.045-1.313-.088-2.555.023-3.381.03-.208.045-.417.046-.626z"/><path d="M176.077 25.688c1.275.092 2.482.18 3.487.334 70.689 10.871 103.198 44.363 112.207 115.605.153 1.211.177 2.688.202 4.252.09 5.566.275 17.145 12.71 17.385l.386.004c3.9 0 7.002-1.176 9.221-3.498 3.871-4.049 3.601-10.064 3.383-14.898-.053-1.186-.104-2.303-.091-3.281.899-72.862-62.171-138.933-134.968-141.39-.302-.01-.59.006-.881.047a6.09 6.09 0 01-.862.047c-.726 0-1.619-.063-2.566-.127C177.16.09 175.862 0 174.546 0c-11.593 0-13.797 8.24-14.079 13.152-.65 11.352 10.332 12.151 15.61 12.536zM288.36 233.703a224.924 224.924 0 01-4.512-3.508c-7.718-6.211-15.929-11.936-23.87-17.473a1800.92 1800.92 0 01-4.938-3.449c-10.172-7.145-19.317-10.617-27.957-10.617-11.637 0-21.783 6.43-30.157 19.109-3.71 5.621-8.211 8.354-13.758 8.354-3.28 0-7.007-.936-11.076-2.783-32.833-14.889-56.278-37.717-69.685-67.85-6.481-14.564-4.38-24.084 7.026-31.832 6.477-4.396 18.533-12.58 17.679-28.252-.967-17.797-40.235-71.346-56.78-77.428-7.005-2.576-14.365-2.6-21.915-.06-19.02 6.394-32.669 17.623-39.475 32.471-6.577 14.347-6.28 31.193.859 48.717 20.638 50.666 49.654 94.84 86.245 131.293 35.816 35.684 79.837 64.914 130.839 86.875 4.597 1.978 9.419 3.057 12.94 3.844 1.2.27 2.236.5 2.991.707.415.113.843.174 1.272.178l.403.002h.002c23.988 0 52.791-21.92 61.637-46.91 7.75-21.882-6.4-32.698-17.77-41.388zM186.687 83.564c-4.107.104-12.654.316-15.653 9.021-1.403 4.068-1.235 7.6.5 10.498 2.546 4.252 7.424 5.555 11.861 6.27 16.091 2.582 24.355 11.48 26.008 28 .768 7.703 5.955 13.082 12.615 13.082h.001c.492 0 .995-.029 1.496-.09 8.01-.953 11.893-6.838 11.542-17.49.128-11.117-5.69-23.738-15.585-33.791-9.929-10.084-21.898-15.763-32.785-15.5z"/></symbol><symbol viewBox="0 0 97.83 79.61" id="quote" xmlns="http://www.w3.org/2000/svg"><path d="M30.512 43.939c-2.348-.676-4.696-1.019-6.98-1.019-3.527 0-6.47.806-8.752 1.793 2.2-8.054 7.485-21.951 18.013-23.516a2.501 2.501 0 002.04-1.799l2.301-8.23a2.5 2.5 0 00-2.068-3.15 17.477 17.477 0 00-2.354-.16c-12.637 0-25.152 13.19-30.433 32.076-3.1 11.08-4.009 27.738 3.627 38.223 4.273 5.867 10.507 9 18.529 9.313l.098.002c9.898 0 18.675-6.666 21.345-16.209a22.032 22.032 0 00-2.032-16.851c-2.875-5.105-7.61-8.826-13.334-10.473zm61.959 10.474c-2.875-5.106-7.61-8.827-13.334-10.474-2.348-.676-4.696-1.019-6.979-1.019a21.94 21.94 0 00-8.753 1.793c2.2-8.054 7.485-21.951 18.014-23.516a2.503 2.503 0 002.04-1.799l2.301-8.23a2.5 2.5 0 00-2.068-3.15 17.455 17.455 0 00-2.354-.16c-12.637 0-25.152 13.19-30.434 32.076-3.099 11.08-4.008 27.738 3.629 38.225 4.272 5.866 10.507 9 18.528 9.312l.099.002c9.897 0 18.675-6.666 21.345-16.209a22.045 22.045 0 00-2.034-16.851z"/></symbol><symbol viewBox="0 0 100 100" id="telegram" xmlns="http://www.w3.org/2000/svg"><path d="M95 9.9c-1.3-1.1-3.4-1.2-7-.1-2.5.8-24.7 9.2-44.3 17.3-17.6 7.3-31.9 13.7-33.6 14.5-1.9.6-6 2.4-6.2 5.2-.1 1.8 1.4 3.4 4.3 4.7 3.1 1.6 16.8 6.2 19.7 7.1 1 3.4 6.9 23.3 7.2 24.5.4 1.8 1.6 2.8 2.2 3.2.1.1.3.3.5.4.3.2.7.3 1.2.3.7 0 1.5-.3 2.2-.8 3.7-3 10.1-9.7 11.9-11.6 7.9 6.2 16.5 13.1 17.3 13.9l.1.1c1.9 1.6 3.9 2.5 5.7 2.5.6 0 1.2-.1 1.8-.3 2.1-.7 3.6-2.7 4.1-5.4 0-.1.1-.5.3-1.2 3.4-14.8 6.1-27.8 8.3-38.7 2.1-10.7 3.8-21.2 4.8-26.8.2-1.4.4-2.5.5-3.2.3-2 .5-4.3-1-5.6zM30 58.3l47.7-31.6c.1-.1.3-.2.4-.3.1 0 .1-.1.2-.1s.1 0 .2-.1c-.1.1-.2.4-.4.6L66 38.1c-8.4 7.7-19.4 17.8-26.7 24.4v.1l-.1.1s0 .1-.1.1c0 .1 0 .1-.1.2v.2c-.5 5.6-1.4 15.2-1.8 19.5v-.1c-.4-1.2-6-20.3-7.2-24.3z"/></symbol><symbol viewBox="0 0 482.9 482.9" id="user" xmlns="http://www.w3.org/2000/svg"><path d="M239.7 260.2h3.2c29.3-.5 53-10.8 70.5-30.5 38.5-43.4 32.1-117.8 31.4-124.9-2.5-53.3-27.7-78.8-48.5-90.7C280.8 5.2 262.7.4 242.5 0h-1.7c-11.1 0-32.9 1.8-53.8 13.7-21 11.9-46.6 37.4-49.1 91.1-.7 7.1-7.1 81.5 31.4 124.9 17.4 19.7 41.1 30 70.4 30.5zm-75.1-152.9c0-.3.1-.6.1-.8 3.3-71.7 54.2-79.4 76-79.4h1.2c27 .6 72.9 11.6 76 79.4 0 .3 0 .6.1.8.1.7 7.1 68.7-24.7 104.5-12.6 14.2-29.4 21.2-51.5 21.4h-1c-22-.2-38.9-7.2-51.4-21.4-31.7-35.6-24.9-103.9-24.8-104.5z"/><path d="M446.8 383.6v-.3c0-.8-.1-1.6-.1-2.5-.6-19.8-1.9-66.1-45.3-80.9-.3-.1-.7-.2-1-.3-45.1-11.5-82.6-37.5-83-37.8-6.1-4.3-14.5-2.8-18.8 3.3-4.3 6.1-2.8 14.5 3.3 18.8 1.7 1.2 41.5 28.9 91.3 41.7 23.3 8.3 25.9 33.2 26.6 56 0 .9 0 1.7.1 2.5.1 9-.5 22.9-2.1 30.9-16.2 9.2-79.7 41-176.3 41-96.2 0-160.1-31.9-176.4-41.1-1.6-8-2.3-21.9-2.1-30.9 0-.8.1-1.6.1-2.5.7-22.8 3.3-47.7 26.6-56 49.8-12.8 89.6-40.6 91.3-41.7 6.1-4.3 7.6-12.7 3.3-18.8-4.3-6.1-12.7-7.6-18.8-3.3-.4.3-37.7 26.3-83 37.8-.4.1-.7.2-1 .3-43.4 14.9-44.7 61.2-45.3 80.9 0 .9 0 1.7-.1 2.5v.3c-.1 5.2-.2 31.9 5.1 45.3 1 2.6 2.8 4.8 5.2 6.3 3 2 74.9 47.8 195.2 47.8s192.2-45.9 195.2-47.8c2.3-1.5 4.2-3.7 5.2-6.3 5-13.3 4.9-40 4.8-45.2z"/></symbol><symbol viewBox="0 0 1083 626" id="vk" xmlns="http://www.w3.org/2000/svg"><path d="M424.5 8.1c-14.3 2.1-32.6 9.6-45.5 18.7-7 4.9-18.1 15.6-21.9 20.9l-2.2 3.3h6.3c27.8.1 49.4 17.7 56.7 46.3 3.4 13 4 25.6 5.2 103.7.8 58.4.8 76.6-.1 80-4.1 15.3-16.5 26.6-31.7 29-9.9 1.6-22.3-1.8-30-8.4-6.1-5.1-34.9-47.9-56-83.1-29.2-48.6-58.4-106.7-78.4-156-5.5-13.5-11.4-20.6-21.1-25.1l-6.3-2.9-86.9-.3c-96.6-.3-92.3-.5-100.4 6.4-2.2 1.9-5.3 5.9-6.8 8.9-2.4 5-2.6 6.3-2.2 13.3.5 6.8 1.6 10.3 9 28.7 13.5 33.4 24.9 58.3 45 98.5C145.1 365.7 247.9 499.5 348 568.2c41.4 28.5 83.4 45.8 124 51.2 10.8 1.5 21.3 1.7 76 1.4l63.5-.3 5.6-2.8c8.8-4.3 14.3-9.8 18.6-18.5l3.8-7.6.5-39.5.5-39.6 3.2-6.7c4.2-8.9 10.1-15.1 18.2-19.1 6.1-3 7.3-3.2 16.6-3.2 16.8 0 13.2-2.8 86.1 65.7 34.7 32.6 64.4 60.3 66.1 61.4 4.9 3.6 12.6 7.2 19.1 8.9 5.6 1.4 16.5 1.5 100.5 1.3l94.2-.3 7.5-2.3c14.1-4.4 24.7-11.8 29.1-20.4 1.6-3.1 1.9-5.9 1.9-17.8 0-12.6-.2-14.7-2.5-20.1-4.9-12-13-22.4-35-44.9-27.9-28.4-84.4-87.3-119.1-124.1-13-13.8-18.4-25.8-18.4-40.7 0-7.9 2.5-17.5 6.3-24.6 1.8-3.4 21.7-30.4 44.3-60.1 85.2-112.1 92-121.6 105.3-145.4 27-48.3 25-78.2-5.7-84.6-6.2-1.3-20.9-1.5-104.5-1.3l-97.2.3-6.7 3.2c-9.4 4.4-15.1 10.6-22.2 23.8-3.2 6-17.9 33.3-32.6 60.5-14.7 27.2-34.7 64.6-44.5 83-24.7 46.6-31 57.1-43.6 72.6-13 16-28 26.4-37.8 26.4-12.3-.1-21.2-9.8-26.7-29-1.7-6.1-1.8-13.5-2.4-114l-.5-107.5-2.2-5.8c-7-18.5-19.5-30.9-37.5-37.5l-7.3-2.7-81-.1c-44.5-.1-83.7.2-87 .7z"/></symbol></svg>