<?xml version="1.0" encoding="utf-8"?><svg xmlns="http://www.w3.org/2000/svg" xmlns:xlink="http://www.w3.org/1999/xlink"><symbol fill="none" viewBox="0 0 94.4 95.66" id="loading_1" xmlns="http://www.w3.org/2000/svg"><g clip-path="url(#aclip0)"><path d="M17 86.39a25.657 25.657 0 013.14-.3c3.75.09 7.49.31 11.24.38 4.35.08 8.71 0 13.06.11 1 0 1.35-.3 1.4-1.27a6.91 6.91 0 01.59-2.31c.08.73.16 1.45.26 2.18.15 1 .7 1.43 1.79 1.42 3.87-.06 7.75 0 11.62 0a1.9 1.9 0 01.95.17c-7.35.16-14.7.39-22.06.44-7.36.05-14.65-.11-21.99-.21v-.61zm58.75 8.93c-8.59.34-17.18-.17-25.78-.26l25.77-.51.01.77z" fill="#4381E5"/><path d="M82.62 60.23L83 60a4.002 4.002 0 001.52-.74c.89-.23 1.82-.19 2.71-.35a8.6 8.6 0 013.56.57c1.5.35 1.91 1.33 2.32 2.49 0 0 .07 0 .13.05.36-.16.31-.52.33-.81a22.504 22.504 0 00-.11-5.21 16.23 16.23 0 01.62-7.55 3.48 3.48 0 000-2.32A123.068 123.068 0 0081.62 19C78.28 13.49 74.73 8.14 70.1 3.61A14.7 14.7 0 0064.54.34c5.11 5.43 6 12.45 7.6 19.26a15.1 15.1 0 00-6.2-2.6c-3.35-.62-6.69-.58-9.69 1-3 1.58-6.36 3.22-8.6 6.14-.39.5-.69.55-1.11 0a16.432 16.432 0 00-2.76-2.64 23.699 23.699 0 00-6.38-3.24c-4.41-1.64-8.84-2.51-13.32-.1-.41.22-1 .91-1.43.44-.27-.29-.14-1.07 0-1.6.39-2.195.92-4.363 1.59-6.49C25.1 8 25.73 5.18 27.64 3c.78-.91 1.49-1.86 2.38-3-2.76 1.2-5.26 2.44-7.1 4.62A122.44 122.44 0 00.14 46a3.34 3.34 0 000 1.88 23 23 0 01.5 9.48 9.47 9.47 0 00.24 4.83C1 62 1.09 62 1.12 62a3.78 3.78 0 00.21-.56C1.72 59.9 2.67 59.3 4.21 59c1.94-.39 3.72.18 5.56.34l.44.15 2.13 1.28c.091.13.191.254.3.37 1.3 1.23 2.87 2.12 4 3.53 3.49 4.19 7.19 8.19 9.7 13.12.7 1.37 2.05 2.41 3.1 3.6l.24-.17a78.64 78.64 0 01-7.38-26.09c2.16 2 4.61 3.57 6.89 5.35 4.51 3.53 9.62 6.1 14.54 9A4.83 4.83 0 0146.46 74c0 1.59.14 3.18.22 4.77-.27.52-.15 1 .16 1.76v-1.7a9.243 9.243 0 00.3-2.72c.002-1.316.205-2.624.6-3.88a3.62 3.62 0 011.8-2.27c3.17-1.77 6.39-3.46 9.44-5.41a126.117 126.117 0 0012.29-9.09c.22-.17.36-.56.85-.33a107.502 107.502 0 01-2.48 12.14c-1.34 4.61-2.55 9.29-5.16 13.42a.41.41 0 000 .44v.21a.671.671 0 00.21-.09 15.16 15.16 0 003-3.24c1.67-2.79 3.19-5.67 5.62-7.91a.608.608 0 00.07-.1c1.45-1.79 2.79-3.69 4.38-5.35 1.59-1.66 3.25-2.92 4.89-4.36l-.03-.06z" fill="#FEFDFD"/><path d="M9.77 59.32c-1.84-.16-3.62-.73-5.56-.34-1.54.32-2.49.92-2.88 2.41a3.78 3.78 0 01-.21.56c0 .06-.11.09-.25.2a9.47 9.47 0 01-.24-4.83 23 23 0 00-.5-9.48A3.34 3.34 0 01.14 46 122.44 122.44 0 0122.92 4.62C24.76 2.44 27.26 1.2 30 0c-.89 1.11-1.6 2.06-2.38 3-1.91 2.21-2.54 5-3.43 7.64a51.624 51.624 0 00-1.59 6.49c-.11.53-.24 1.31 0 1.6.45.47 1-.22 1.43-.44 4.48-2.41 8.91-1.54 13.32.1a23.65 23.65 0 016.38 3.24c1.02.77 1.946 1.656 2.76 2.64.42.53.72.48 1.11 0 2.24-2.92 5.51-4.45 8.6-6.14 3.09-1.69 6.34-1.66 9.69-1a15.1 15.1 0 016.2 2.56c-1.53-6.9-2.44-13.92-7.55-19.35a14.7 14.7 0 015.56 3.27c4.63 4.53 8.18 9.88 11.52 15.39a123.066 123.066 0 0112.47 27.1 3.48 3.48 0 010 2.32 16.23 16.23 0 00-.63 7.58c.242 1.74.279 3.502.11 5.25 0 .29 0 .65-.33.81-.06 0-.12 0-.13-.05-.41-1.16-.82-2.14-2.32-2.49a8.6 8.6 0 00-3.56-.57c-.89.16-1.82.12-2.71.35 1.66-1.18 3.57-1.19 5.49-1.16 1.57 0 1.74-.13 1.69-1.71a46.802 46.802 0 00-2.5-12.94 168.885 168.885 0 00-8.31-20.85 103.818 103.818 0 00-6.82-12.77 21 21 0 00-3.28-4c.23 2-.16 3.67.34 5.33.87 2.85 1.59 5.75 2.28 8.65a44.596 44.596 0 011.48 9.53c.09 4.33.12 8.67 0 13a54.187 54.187 0 01-.64 8c-.71 4.19-1.74 8.33-2.6 12.49-.58 2.8-1.59 5.54-1.42 8.48.3 0 .42-.23.56-.4A73.777 73.777 0 0177 64.58c1.69-1.67 3.3-3.48 5.64-4.33C81 61.69 79.2 63 77.7 64.61c-1.5 1.61-2.93 3.56-4.38 5.39a.608.608 0 01-.07.1c-2.43 2.24-4 5.12-5.62 7.91a15.16 15.16 0 01-3 3.24.671.671 0 01-.21.09v-.21a.41.41 0 010-.44c2.61-4.13 3.82-8.81 5.16-13.42a107.48 107.48 0 002.48-12.14c-.49-.23-.63.16-.85.33A126.128 126.128 0 0159 64.51c-3 1.95-6.27 3.64-9.44 5.41a3.621 3.621 0 00-1.8 2.27 12.998 12.998 0 00-.6 3.88 9.237 9.237 0 01-.3 2.72.111.111 0 00-.066-.068.11.11 0 00-.094.008c-.08-1.59-.24-3.18-.22-4.77a4.83 4.83 0 00-2.73-4.52c-4.92-2.86-10-5.43-14.54-9-2.28-1.78-4.73-3.33-6.89-5.35a78.64 78.64 0 007.42 26.05l-.24.17c-1.05-1.19-2.4-2.23-3.1-3.6-2.51-4.93-6.21-8.93-9.7-13.12-1.17-1.41-2.74-2.3-4-3.53a3.47 3.47 0 01-.3-.37 2.55 2.55 0 011.57.79 86.279 86.279 0 018.39 8.17c.46.51.91 1 1.37 1.57.167-1.31.11-2.64-.17-3.93a150.479 150.479 0 01-4.33-31.55 67.509 67.509 0 012.86-21.14c.67-2.35 1.62-4.67 1.14-7.21-.06-.32.22-.82-.23-.93-.45-.11-.55.37-.78.63a44.47 44.47 0 00-5.76 9.19A179.688 179.688 0 008.2 34.43c-2.51 6.46-4.78 13-5.7 19.91A25.39 25.39 0 002.4 57c0 .8.39 1.17 1.18 1.16h1.55a7.5 7.5 0 014.64 1.16zm63.23-35a.252.252 0 000 .09h.07l-.1-.11a4.9 4.9 0 00-2-4.12 13.4 13.4 0 00-6.14-2.74A7.4 7.4 0 0060 18c.8.15 1.34.26 1.88.35 2.19.38 4.42.63 6.32 2a43.35 43.35 0 014.8 3.97zM13.4 20c-.6.11-.75.68-1 1.1-1 1.72-2 3.46-2.89 5.22a120.34 120.34 0 00-7.92 18.3C1.19 45.81.44 47 .74 48.3a26.93 26.93 0 01.72 4.34c.46-.23.42-.62.48-1A113 113 0 019.74 28c1.18-2.69 2.43-5.36 3.65-8 .06-.09.3-.14.07-.3l-.06.3zm60.81 21.07a93.688 93.688 0 00-.74-12.71 4.679 4.679 0 00-.47-1.83 13.229 13.229 0 00-3.54-4.27c-3.55-2.58-7.42-4-11.77-3-4.13.9-7.78 2.69-9.9 6.69-.58 1.09-.8 1-1.44-.06a10.148 10.148 0 00-1.88-2.61c-5.79-5-13-5.87-19.49-1.22-2.53 1.82-4.18 4-4.44 7.2-.29 3.66-.23 7.32-.24 11 0 2.71.45 5.39.62 8.08a11.31 11.31 0 003 7.1c2 2.26 4.72 3.63 7.18 5.32C35.91 64 41 66.7 46 69.61a2.161 2.161 0 002.17-.07 148.566 148.566 0 0021-13.41c1.58-1.2 3.28-2.53 3.73-4.52a36.43 36.43 0 001.31-10.54zm18.18 11.48l.4-.11c-.039-.82.032-1.64.21-2.44a6.82 6.82 0 00-.25-4.85 134 134 0 00-11-24 4.09 4.09 0 00-1.41-1.83c5.32 10.77 9.87 21.57 12.05 33.23zM21.37 24c1.74-1.27 3.16-2.77 4.89-3.9a15.46 15.46 0 016-1.95 2.935 2.935 0 00-.58-.29 11.881 11.881 0 00-9.26 2.42A3.29 3.29 0 0021.37 24z" fill="#4381E5"/><path d="M9.77 59.32a7.5 7.5 0 00-4.64-1.2H3.58c-.79 0-1.2-.36-1.18-1.16-.012-.874.022-1.749.1-2.62.92-6.92 3.19-13.45 5.7-19.91a179.692 179.692 0 018.26-18.15 44.468 44.468 0 015.76-9.19c.23-.26.4-.73.78-.63.38.1.17.61.23.93.48 2.54-.47 4.86-1.14 7.21a67.51 67.51 0 00-2.92 21.18 150.472 150.472 0 004.33 31.55c.28 1.29.337 2.62.17 3.93-.46-.53-.91-1.06-1.37-1.57a86.302 86.302 0 00-8.39-8.17 2.55 2.55 0 00-1.57-.79l-2.13-1.28-.44-.15v.02zm72.82.93c-2.34.85-4 2.66-5.64 4.33A73.774 73.774 0 0070.82 71c-.14.17-.26.41-.56.4-.17-2.94.84-5.68 1.42-8.48.86-4.16 1.89-8.3 2.6-12.49.411-2.647.625-5.321.64-8 .09-4.34.06-8.68 0-13a44.597 44.597 0 00-1.48-9.53c-.69-2.9-1.41-5.8-2.28-8.65-.5-1.66-.11-3.31-.34-5.33a21 21 0 013.28 4 103.82 103.82 0 016.82 12.74 168.889 168.889 0 018.28 20.8 46.799 46.799 0 012.5 12.94c0 1.58-.12 1.73-1.69 1.71-1.92 0-3.83 0-5.49 1.16A3.998 3.998 0 0183 60l-.38.22-.03.03z" fill="#3E5294"/><path d="M9.77 59.3l.44.15-.44-.15zm72.85.93L83 60l-.38.23z" fill="#4381E5"/><path d="M74.054 41.07a36.432 36.432 0 01-1.21 10.54c-.45 2-2.15 3.32-3.73 4.52a148.577 148.577 0 01-21 13.41 2.16 2.16 0 01-2.17.07c-5.1-2.91-10.19-5.61-14.95-8.88-2.46-1.73-5.15-3.06-7.15-5.32a11.31 11.31 0 01-3-7.1c-.17-2.69-.62-5.37-.62-8.08 0-3.67-.05-7.33.24-11 .26-3.19 1.91-5.38 4.44-7.2 6.48-4.65 13.7-3.82 19.49 1.22a10.15 10.15 0 011.88 2.61c.64 1.07.86 1.15 1.44.06 2.12-4 5.77-5.79 9.9-6.69 4.35-.94 8.22.44 11.77 3a13.229 13.229 0 013.46 4.3c.28.572.44 1.195.47 1.83.535 4.215.782 8.462.74 12.71zM92.39 52.55c-2.18-11.66-6.73-22.46-12-33.28a4.09 4.09 0 011.41 1.83 134.007 134.007 0 0111 24A6.82 6.82 0 0193 50a9.234 9.234 0 00-.25 2.44l-.36.11zM13.39 20c-1.22 2.67-2.47 5.34-3.65 8a113 113 0 00-7.8 23.64c-.06.34 0 .73-.48 1a26.93 26.93 0 00-.72-4.34c-.3-1.3.45-2.49.85-3.68a120.338 120.338 0 017.93-18.28c.93-1.76 1.9-3.5 2.89-5.22.24-.42.39-1 1-1.1l-.02-.02z" fill="#3E5294"/><path d="M73 24.32a43.365 43.365 0 00-4.84-4c-1.9-1.33-4.13-1.58-6.32-2-.54-.09-1.08-.2-1.88-.35a7.4 7.4 0 014.94-.54 13.4 13.4 0 016.14 2.74 4.899 4.899 0 012 4.12l-.04.03zM21.37 24a3.29 3.29 0 011-3.72 11.88 11.88 0 019.26-2.42c.203.075.397.172.58.29-2.113.23-4.156.894-6 1.95-1.68 1.15-3.1 2.65-4.84 3.9zm-7.97-4l.06-.31c.23.16 0 .21-.07.3l.01.01z" fill="#3E5294"/><path d="M73 24.31l.1.11h-.07a.252.252 0 010-.09l-.03-.02z" fill="#3E5294"/><path d="M73.35 93.11h-1v-3.25l-.14-.09-1.6 3.47-1.76-3.89v3.74h-.69v-4.82c2 .13 1.41 2.52 2.64 3.33 1.15-.81.62-3.12 2.59-3.34l-.04 4.85zm-28.89-.03h-.7v-4.81c2 .09 1.43 2.45 2.64 3.36 1.13-.82.63-3.1 2.54-3.39v4.85h-1v-3.54l-1.73 3.72-1.55-3.51-.18.06-.02 3.26zm-10.25.02v-4.79c1.23.14 2.77-.5 3.87.9a2.3 2.3 0 01.18 2.69c-.93 1.59-2.5 1.21-4.05 1.2zm.94-2.41v1c0 1.08.66 1.43 1.61.87a2.24 2.24 0 00.12-3.56 1.84 1.84 0 00-1.32-.26c-.22.06-.31.7-.39 1.09a3.835 3.835 0 00-.02.86zM59 93.1l-2.89-3.62v3.6h-.82v-4.79c1.81.13 2 2.37 3.44 3.2v-3.16h.66V93l-.39.1zm-29.24-.02h-.7c.39-2 .21-3.92-.53-4.81 2.2.12 2.36 2.4 4 3.33l-.21-3.27H33V93l-.37.13-2.87-3.51v3.46zm22.39-4.9a2.56 2.56 0 012.39 2.49 2.408 2.408 0 01-2.3 2.54 2.329 2.329 0 01-2.42-2.5 2.47 2.47 0 012.33-2.53zm1.47 2.88c0-1.66-.46-2.41-1.35-2.47-.89-.06-1.52.67-1.55 2-.03 1.33.57 2.42 1.48 2.28a2.09 2.09 0 001.18-.87 2.17 2.17 0 00.24-.94zm-14.2-2.79c1 .26 2.27-.39 3.2.63l-2.12-.34v1.86l1.75-.21.06.87-1.8-.39v2.13l2.49-.46c-.91 1.48-2.38.43-3.57.87l-.01-4.96zm23.48.07h1a27.656 27.656 0 00.05 3.41 1.5 1.5 0 001 1c.43 0 1.23-.41 1.28-.73.095-1.214.115-2.433.06-3.65H67c-.06.93-.13 1.85-.16 2.77 0 1.5-.62 2.12-2 2.1-1.38-.02-1.76-.58-1.82-2.1-.02-.93-.02-1.85-.12-2.8zm-42.15 2.75l.12 2h-1v-4.67c1.93-.31 3 0 3.09 1.09.12 1.49-1.05 1.49-2.21 1.58zm0-.66l.3.24c.33-.17.85-.28.95-.54a1.76 1.76 0 00-.25-1.13c-.07-.14-.49-.12-.74-.17l-.26 1.6zm5.05-2.35l2.2 5-1.19.06c0-.75.15-1.55-.93-1.62-.88-.06-1.48.13-1.53 1.17 0 .18-.41.34-.75.3l2.2-4.91zm.52 3l-.72-1.75-.67 1.75h1.39zM60.66 93v-4.65h1.08V93h-1.08zm-3.513-53.74a7.324 7.324 0 01-.62 2.982c-.778 1.806-2.221 3.04-4.329 3.703-.618.206-1.191.309-1.718.309-1.627 0-3.081-.423-4.364-1.269v-.343c1.718.046 3.104-.514 4.158-1.68.916-1.005 1.374-2.32 1.374-3.943 0-1.645-.4-2.914-1.203-3.805-.779-.914-1.844-1.372-3.195-1.372h-2.303V53.9c0 .594.218 1.108.653 1.542.435.412.95.617 1.547.617h.446v.343H37.146v-.343h.447c.596 0 1.1-.205 1.512-.617.436-.434.665-.948.688-1.542V34.734c0-.572-.218-1.04-.653-1.406a2.245 2.245 0 00-1.547-.583h-.447v-.343h11.478c2.795 0 4.903.595 6.323 1.783 1.466 1.257 2.2 2.949 2.2 5.075z" fill="#4381E5"/></g><defs><clipPath id="aclip0"><path fill="#fff" d="M0 0h94.28v95.44H0z"/></clipPath></defs></symbol><symbol fill="none" viewBox="0 0 94.4 95.66" id="loading_2" xmlns="http://www.w3.org/2000/svg"><g clip-path="url(#bclip0)"><path d="M17 86.39a25.657 25.657 0 013.14-.3c3.75.09 7.49.31 11.24.38 4.35.08 8.71 0 13.06.11 1 0 1.35-.3 1.4-1.27a6.91 6.91 0 01.59-2.31c.08.73.16 1.45.26 2.18.15 1 .7 1.43 1.79 1.42 3.87-.06 7.75 0 11.62 0a1.9 1.9 0 01.95.17c-7.35.16-14.7.39-22.06.44-7.36.05-14.65-.11-21.99-.21v-.61zm58.75 8.93c-8.59.34-17.18-.17-25.78-.26l25.77-.51.01.77z" fill="#4381E5"/><path d="M82.62 60.23L83 60a4.002 4.002 0 001.52-.74c.89-.23 1.82-.19 2.71-.35a8.6 8.6 0 013.56.57c1.5.35 1.91 1.33 2.32 2.49 0 0 .07 0 .13.05.36-.16.31-.52.33-.81a22.504 22.504 0 00-.11-5.21 16.23 16.23 0 01.62-7.55 3.48 3.48 0 000-2.32A123.068 123.068 0 0081.62 19C78.28 13.49 74.73 8.14 70.1 3.61A14.7 14.7 0 0064.54.34c5.11 5.43 6 12.45 7.6 19.26a15.1 15.1 0 00-6.2-2.6c-3.35-.62-6.69-.58-9.69 1-3 1.58-6.36 3.22-8.6 6.14-.39.5-.69.55-1.11 0a16.432 16.432 0 00-2.76-2.64 23.699 23.699 0 00-6.38-3.24c-4.41-1.64-8.84-2.51-13.32-.1-.41.22-1 .91-1.43.44-.27-.29-.14-1.07 0-1.6.39-2.195.92-4.363 1.59-6.49C25.1 8 25.73 5.18 27.64 3c.78-.91 1.49-1.86 2.38-3-2.76 1.2-5.26 2.44-7.1 4.62A122.44 122.44 0 00.14 46a3.34 3.34 0 000 1.88 23 23 0 01.5 9.48 9.47 9.47 0 00.24 4.83C1 62 1.09 62 1.12 62a3.78 3.78 0 00.21-.56C1.72 59.9 2.67 59.3 4.21 59c1.94-.39 3.72.18 5.56.34l.44.15 2.13 1.28c.091.13.191.254.3.37 1.3 1.23 2.87 2.12 4 3.53 3.49 4.19 7.19 8.19 9.7 13.12.7 1.37 2.05 2.41 3.1 3.6l.24-.17a78.64 78.64 0 01-7.38-26.09c2.16 2 4.61 3.57 6.89 5.35 4.51 3.53 9.62 6.1 14.54 9A4.83 4.83 0 0146.46 74c0 1.59.14 3.18.22 4.77-.27.52-.15 1 .16 1.76v-1.7a9.243 9.243 0 00.3-2.72c.002-1.316.205-2.624.6-3.88a3.62 3.62 0 011.8-2.27c3.17-1.77 6.39-3.46 9.44-5.41a126.117 126.117 0 0012.29-9.09c.22-.17.36-.56.85-.33a107.502 107.502 0 01-2.48 12.14c-1.34 4.61-2.55 9.29-5.16 13.42a.41.41 0 000 .44v.21a.671.671 0 00.21-.09 15.16 15.16 0 003-3.24c1.67-2.79 3.19-5.67 5.62-7.91a.608.608 0 00.07-.1c1.45-1.79 2.79-3.69 4.38-5.35 1.59-1.66 3.25-2.92 4.89-4.36l-.03-.06z" fill="#FEFDFD"/><path d="M9.77 59.32c-1.84-.16-3.62-.73-5.56-.34-1.54.32-2.49.92-2.88 2.41a3.78 3.78 0 01-.21.56c0 .06-.11.09-.25.2a9.47 9.47 0 01-.24-4.83 23 23 0 00-.5-9.48A3.34 3.34 0 01.14 46 122.44 122.44 0 0122.92 4.62C24.76 2.44 27.26 1.2 30 0c-.89 1.11-1.6 2.06-2.38 3-1.91 2.21-2.54 5-3.43 7.64a51.624 51.624 0 00-1.59 6.49c-.11.53-.24 1.31 0 1.6.45.47 1-.22 1.43-.44 4.48-2.41 8.91-1.54 13.32.1a23.65 23.65 0 016.38 3.24c1.02.77 1.946 1.656 2.76 2.64.42.53.72.48 1.11 0 2.24-2.92 5.51-4.45 8.6-6.14 3.09-1.69 6.34-1.66 9.69-1a15.1 15.1 0 016.2 2.56c-1.53-6.9-2.44-13.92-7.55-19.35a14.7 14.7 0 015.56 3.27c4.63 4.53 8.18 9.88 11.52 15.39a123.066 123.066 0 0112.47 27.1 3.48 3.48 0 010 2.32 16.23 16.23 0 00-.63 7.58c.242 1.74.279 3.502.11 5.25 0 .29 0 .65-.33.81-.06 0-.12 0-.13-.05-.41-1.16-.82-2.14-2.32-2.49a8.6 8.6 0 00-3.56-.57c-.89.16-1.82.12-2.71.35 1.66-1.18 3.57-1.19 5.49-1.16 1.57 0 1.74-.13 1.69-1.71a46.802 46.802 0 00-2.5-12.94 168.885 168.885 0 00-8.31-20.85 103.818 103.818 0 00-6.82-12.77 21 21 0 00-3.28-4c.23 2-.16 3.67.34 5.33.87 2.85 1.59 5.75 2.28 8.65a44.596 44.596 0 011.48 9.53c.09 4.33.12 8.67 0 13a54.187 54.187 0 01-.64 8c-.71 4.19-1.74 8.33-2.6 12.49-.58 2.8-1.59 5.54-1.42 8.48.3 0 .42-.23.56-.4A73.777 73.777 0 0177 64.58c1.69-1.67 3.3-3.48 5.64-4.33C81 61.69 79.2 63 77.7 64.61c-1.5 1.61-2.93 3.56-4.38 5.39a.608.608 0 01-.07.1c-2.43 2.24-4 5.12-5.62 7.91a15.16 15.16 0 01-3 3.24.671.671 0 01-.21.09v-.21a.41.41 0 010-.44c2.61-4.13 3.82-8.81 5.16-13.42a107.48 107.48 0 002.48-12.14c-.49-.23-.63.16-.85.33A126.128 126.128 0 0159 64.51c-3 1.95-6.27 3.64-9.44 5.41a3.621 3.621 0 00-1.8 2.27 12.998 12.998 0 00-.6 3.88 9.237 9.237 0 01-.3 2.72.111.111 0 00-.066-.068.11.11 0 00-.094.008c-.08-1.59-.24-3.18-.22-4.77a4.83 4.83 0 00-2.73-4.52c-4.92-2.86-10-5.43-14.54-9-2.28-1.78-4.73-3.33-6.89-5.35a78.64 78.64 0 007.42 26.05l-.24.17c-1.05-1.19-2.4-2.23-3.1-3.6-2.51-4.93-6.21-8.93-9.7-13.12-1.17-1.41-2.74-2.3-4-3.53a3.47 3.47 0 01-.3-.37 2.55 2.55 0 011.57.79 86.279 86.279 0 018.39 8.17c.46.51.91 1 1.37 1.57.167-1.31.11-2.64-.17-3.93a150.479 150.479 0 01-4.33-31.55 67.509 67.509 0 012.86-21.14c.67-2.35 1.62-4.67 1.14-7.21-.06-.32.22-.82-.23-.93-.45-.11-.55.37-.78.63a44.47 44.47 0 00-5.76 9.19A179.688 179.688 0 008.2 34.43c-2.51 6.46-4.78 13-5.7 19.91A25.39 25.39 0 002.4 57c0 .8.39 1.17 1.18 1.16h1.55a7.5 7.5 0 014.64 1.16zm63.23-35a.252.252 0 000 .09h.07l-.1-.11a4.9 4.9 0 00-2-4.12 13.4 13.4 0 00-6.14-2.74A7.4 7.4 0 0060 18c.8.15 1.34.26 1.88.35 2.19.38 4.42.63 6.32 2a43.35 43.35 0 014.8 3.97zM13.4 20c-.6.11-.75.68-1 1.1-1 1.72-2 3.46-2.89 5.22a120.34 120.34 0 00-7.92 18.3C1.19 45.81.44 47 .74 48.3a26.93 26.93 0 01.72 4.34c.46-.23.42-.62.48-1A113 113 0 019.74 28c1.18-2.69 2.43-5.36 3.65-8 .06-.09.3-.14.07-.3l-.06.3zm60.81 21.07a93.688 93.688 0 00-.74-12.71 4.679 4.679 0 00-.47-1.83 13.229 13.229 0 00-3.54-4.27c-3.55-2.58-7.42-4-11.77-3-4.13.9-7.78 2.69-9.9 6.69-.58 1.09-.8 1-1.44-.06a10.148 10.148 0 00-1.88-2.61c-5.79-5-13-5.87-19.49-1.22-2.53 1.82-4.18 4-4.44 7.2-.29 3.66-.23 7.32-.24 11 0 2.71.45 5.39.62 8.08a11.31 11.31 0 003 7.1c2 2.26 4.72 3.63 7.18 5.32C35.91 64 41 66.7 46 69.61a2.161 2.161 0 002.17-.07 148.566 148.566 0 0021-13.41c1.58-1.2 3.28-2.53 3.73-4.52a36.43 36.43 0 001.31-10.54zm18.18 11.48l.4-.11c-.039-.82.032-1.64.21-2.44a6.82 6.82 0 00-.25-4.85 134 134 0 00-11-24 4.09 4.09 0 00-1.41-1.83c5.32 10.77 9.87 21.57 12.05 33.23zM21.37 24c1.74-1.27 3.16-2.77 4.89-3.9a15.46 15.46 0 016-1.95 2.935 2.935 0 00-.58-.29 11.881 11.881 0 00-9.26 2.42A3.29 3.29 0 0021.37 24z" fill="#4381E5"/><path d="M9.77 59.32a7.5 7.5 0 00-4.64-1.2H3.58c-.79 0-1.2-.36-1.18-1.16-.012-.874.022-1.749.1-2.62.92-6.92 3.19-13.45 5.7-19.91a179.692 179.692 0 018.26-18.15 44.468 44.468 0 015.76-9.19c.23-.26.4-.73.78-.63.38.1.17.61.23.93.48 2.54-.47 4.86-1.14 7.21a67.51 67.51 0 00-2.92 21.18 150.472 150.472 0 004.33 31.55c.28 1.29.337 2.62.17 3.93-.46-.53-.91-1.06-1.37-1.57a86.302 86.302 0 00-8.39-8.17 2.55 2.55 0 00-1.57-.79l-2.13-1.28-.44-.15v.02zm72.82.93c-2.34.85-4 2.66-5.64 4.33A73.774 73.774 0 0070.82 71c-.14.17-.26.41-.56.4-.17-2.94.84-5.68 1.42-8.48.86-4.16 1.89-8.3 2.6-12.49.411-2.647.625-5.321.64-8 .09-4.34.06-8.68 0-13a44.597 44.597 0 00-1.48-9.53c-.69-2.9-1.41-5.8-2.28-8.65-.5-1.66-.11-3.31-.34-5.33a21 21 0 013.28 4 103.82 103.82 0 016.82 12.74 168.889 168.889 0 018.28 20.8 46.799 46.799 0 012.5 12.94c0 1.58-.12 1.73-1.69 1.71-1.92 0-3.83 0-5.49 1.16A3.998 3.998 0 0183 60l-.38.22-.03.03z" fill="#D4C8FB"/><path d="M9.77 59.3l.44.15-.44-.15zm72.85.93L83 60l-.38.23z" fill="#4381E5"/><path d="M74.054 41.07a36.432 36.432 0 01-1.21 10.54c-.45 2-2.15 3.32-3.73 4.52a148.577 148.577 0 01-21 13.41 2.16 2.16 0 01-2.17.07c-5.1-2.91-10.19-5.61-14.95-8.88-2.46-1.73-5.15-3.06-7.15-5.32a11.31 11.31 0 01-3-7.1c-.17-2.69-.62-5.37-.62-8.08 0-3.67-.05-7.33.24-11 .26-3.19 1.91-5.38 4.44-7.2 6.48-4.65 13.7-3.82 19.49 1.22a10.15 10.15 0 011.88 2.61c.64 1.07.86 1.15 1.44.06 2.12-4 5.77-5.79 9.9-6.69 4.35-.94 8.22.44 11.77 3a13.229 13.229 0 013.46 4.3c.28.572.44 1.195.47 1.83.535 4.215.782 8.462.74 12.71zM92.39 52.55c-2.18-11.66-6.73-22.46-12-33.28a4.09 4.09 0 011.41 1.83 134.007 134.007 0 0111 24A6.82 6.82 0 0193 50a9.234 9.234 0 00-.25 2.44l-.36.11zM13.39 20c-1.22 2.67-2.47 5.34-3.65 8a113 113 0 00-7.8 23.64c-.06.34 0 .73-.48 1a26.93 26.93 0 00-.72-4.34c-.3-1.3.45-2.49.85-3.68a120.338 120.338 0 017.93-18.28c.93-1.76 1.9-3.5 2.89-5.22.24-.42.39-1 1-1.1l-.02-.02z" fill="#D4C8FB"/><path d="M73 24.32a43.365 43.365 0 00-4.84-4c-1.9-1.33-4.13-1.58-6.32-2-.54-.09-1.08-.2-1.88-.35a7.4 7.4 0 014.94-.54 13.4 13.4 0 016.14 2.74 4.899 4.899 0 012 4.12l-.04.03zM21.37 24a3.29 3.29 0 011-3.72 11.88 11.88 0 019.26-2.42c.203.075.397.172.58.29-2.113.23-4.156.894-6 1.95-1.68 1.15-3.1 2.65-4.84 3.9zm-7.97-4l.06-.31c.23.16 0 .21-.07.3l.01.01z" fill="#D4C8FB"/><path d="M73 24.31l.1.11h-.07a.252.252 0 010-.09l-.03-.02z" fill="#D4C8FB"/><path d="M73.35 93.11h-1v-3.25l-.14-.09-1.6 3.47-1.76-3.89v3.74h-.69v-4.82c2 .13 1.41 2.52 2.64 3.33 1.15-.81.62-3.12 2.59-3.34l-.04 4.85zm-28.89-.03h-.7v-4.81c2 .09 1.43 2.45 2.64 3.36 1.13-.82.63-3.1 2.54-3.39v4.85h-1v-3.54l-1.73 3.72-1.55-3.51-.18.06-.02 3.26zm-10.25.02v-4.79c1.23.14 2.77-.5 3.87.9a2.3 2.3 0 01.18 2.69c-.93 1.59-2.5 1.21-4.05 1.2zm.94-2.41v1c0 1.08.66 1.43 1.61.87a2.24 2.24 0 00.12-3.56 1.84 1.84 0 00-1.32-.26c-.22.06-.31.7-.39 1.09a3.835 3.835 0 00-.02.86zM59 93.1l-2.89-3.62v3.6h-.82v-4.79c1.81.13 2 2.37 3.44 3.2v-3.16h.66V93l-.39.1zm-29.24-.02h-.7c.39-2 .21-3.92-.53-4.81 2.2.12 2.36 2.4 4 3.33l-.21-3.27H33V93l-.37.13-2.87-3.51v3.46zm22.39-4.9a2.56 2.56 0 012.39 2.49 2.408 2.408 0 01-2.3 2.54 2.329 2.329 0 01-2.42-2.5 2.47 2.47 0 012.33-2.53zm1.47 2.88c0-1.66-.46-2.41-1.35-2.47-.89-.06-1.52.67-1.55 2-.03 1.33.57 2.42 1.48 2.28a2.09 2.09 0 001.18-.87 2.17 2.17 0 00.24-.94zm-14.2-2.79c1 .26 2.27-.39 3.2.63l-2.12-.34v1.86l1.75-.21.06.87-1.8-.39v2.13l2.49-.46c-.91 1.48-2.38.43-3.57.87l-.01-4.96zm23.48.07h1a27.656 27.656 0 00.05 3.41 1.5 1.5 0 001 1c.43 0 1.23-.41 1.28-.73.095-1.214.115-2.433.06-3.65H67c-.06.93-.13 1.85-.16 2.77 0 1.5-.62 2.12-2 2.1-1.38-.02-1.76-.58-1.82-2.1-.02-.93-.02-1.85-.12-2.8zm-42.15 2.75l.12 2h-1v-4.67c1.93-.31 3 0 3.09 1.09.12 1.49-1.05 1.49-2.21 1.58zm0-.66l.3.24c.33-.17.85-.28.95-.54a1.76 1.76 0 00-.25-1.13c-.07-.14-.49-.12-.74-.17l-.26 1.6zm5.05-2.35l2.2 5-1.19.06c0-.75.15-1.55-.93-1.62-.88-.06-1.48.13-1.53 1.17 0 .18-.41.34-.75.3l2.2-4.91zm.52 3l-.72-1.75-.67 1.75h1.39zM60.66 93v-4.65h1.08V93h-1.08zm-3.513-53.74a7.324 7.324 0 01-.62 2.982c-.778 1.806-2.221 3.04-4.329 3.703-.618.206-1.191.309-1.718.309-1.627 0-3.081-.423-4.364-1.269v-.343c1.718.046 3.104-.514 4.158-1.68.916-1.005 1.374-2.32 1.374-3.943 0-1.645-.4-2.914-1.203-3.805-.779-.914-1.844-1.372-3.195-1.372h-2.303V53.9c0 .594.218 1.108.653 1.542.435.412.95.617 1.547.617h.446v.343H37.146v-.343h.447c.596 0 1.1-.205 1.512-.617.436-.434.665-.948.688-1.542V34.734c0-.572-.218-1.04-.653-1.406a2.245 2.245 0 00-1.547-.583h-.447v-.343h11.478c2.795 0 4.903.595 6.323 1.783 1.466 1.257 2.2 2.949 2.2 5.075z" fill="#4381E5"/></g><defs><clipPath id="bclip0"><path fill="#fff" d="M0 0h94.28v95.44H0z"/></clipPath></defs></symbol><symbol fill="none" viewBox="0 0 90.11 90.21" id="logo_1" xmlns="http://www.w3.org/2000/svg"><g clip-path="url(#cclip0)"><path d="M16.228 81.466a24.7 24.7 0 012.998-.283c3.58.085 7.15.292 10.73.358 4.152.076 8.314 0 12.467.104.954 0 1.288-.283 1.336-1.198a6.49 6.49 0 01.563-2.178c.077.688.153 1.367.248 2.056.144.943.669 1.348 1.71 1.339 3.694-.057 7.397 0 11.092 0 .31-.025.623.03.907.16-7.017.151-14.033.368-21.059.415-7.026.047-13.985-.104-20.992-.198v-.575zm56.083 8.421c-8.2.32-16.4-.16-24.61-.245l24.6-.481.01.726z" fill="#2F80ED"/><path d="M78.87 56.797l.362-.217a3.838 3.838 0 001.451-.698c.85-.217 1.738-.179 2.587-.33a8.3 8.3 0 013.399.538c1.432.33 1.823 1.254 2.214 2.348 0 0 .067 0 .124.047.344-.151.296-.49.316-.764a20.966 20.966 0 00-.105-4.913 15.128 15.128 0 01.591-7.12 3.244 3.244 0 000-2.187 115.394 115.394 0 00-11.894-25.584c-3.188-5.196-6.577-10.241-10.997-14.513A14.071 14.071 0 0061.61.321c4.878 5.12 5.728 11.74 7.255 18.162a14.51 14.51 0 00-5.918-2.452c-3.198-.585-6.387-.547-9.25.943-2.864 1.49-6.072 3.037-8.21 5.79-.372.471-.659.519-1.06 0a15.607 15.607 0 00-2.634-2.49 22.733 22.733 0 00-6.09-3.055c-4.21-1.546-8.44-2.367-12.716-.094-.391.207-.954.858-1.365.415-.258-.274-.134-1.01 0-1.509a48.28 48.28 0 011.518-6.12c.82-2.367 1.422-5.026 3.245-7.082.745-.858 1.423-1.754 2.272-2.829-2.634 1.132-5.02 2.3-6.777 4.357A115.06 115.06 0 00.134 43.378a3.113 3.113 0 000 1.773c.787 2.915.95 5.96.477 8.94a8.826 8.826 0 00.23 4.554c.114-.179.2-.179.228-.179.081-.17.148-.347.2-.528.373-1.452 1.28-2.018 2.75-2.3 1.852-.369 3.551.169 5.308.32l.42.141 2.033 1.207c.087.123.183.24.286.35 1.241 1.159 2.74 1.998 3.819 3.328 3.331 3.951 6.863 7.723 9.26 12.372.668 1.292 1.956 2.273 2.959 3.395l.229-.16a73.468 73.468 0 01-7.045-24.603c2.062 1.886 4.4 3.366 6.577 5.045 4.305 3.328 9.183 5.752 13.88 8.487a4.59 4.59 0 011.945 1.748c.463.757.692 1.63.661 2.514 0 1.5.134 2.999.21 4.498-.258.49-.143.943.153 1.66v-1.603c.224-.837.32-1.7.286-2.565.002-1.241.196-2.475.573-3.659a3.4 3.4 0 01.633-1.248 3.447 3.447 0 011.085-.893c3.026-1.669 6.1-3.262 9.012-5.101a120.3 120.3 0 0011.732-8.572c.21-.16.344-.528.811-.311a100.278 100.278 0 01-2.367 11.448c-1.28 4.347-2.434 8.76-4.926 12.655a.383.383 0 000 .415v.198a.646.646 0 00.2-.085 14.363 14.363 0 002.864-3.055c1.594-2.631 3.045-5.347 5.365-7.46a.579.579 0 00.067-.094c1.384-1.688 2.663-3.48 4.181-5.045 1.518-1.565 3.103-2.754 4.668-4.112l-.028-.056z" fill="#FEFDFD"/><path d="M9.327 55.939c-1.757-.151-3.456-.689-5.308-.32-1.47.3-2.377.867-2.75 2.272-.052.18-.119.357-.2.528 0 .056-.105.085-.238.189a8.826 8.826 0 01-.23-4.555c.473-2.98.31-6.025-.477-8.94a3.113 3.113 0 01.01-1.735A115.058 115.058 0 0121.88 4.357C23.636 2.3 26.023 1.132 28.638 0c-.85 1.047-1.527 1.943-2.272 2.829-1.823 2.084-2.424 4.715-3.274 7.204a48.187 48.187 0 00-1.518 6.12c-.105.5-.229 1.236 0 1.51.43.443.955-.208 1.365-.416 4.277-2.272 8.506-1.452 12.716.095a22.731 22.731 0 016.09 3.055 15.603 15.603 0 012.635 2.49c.4.5.687.452 1.06 0 2.138-2.754 5.26-4.197 8.209-5.79 2.95-1.594 6.052-1.566 9.25-.943a14.511 14.511 0 015.919 2.414C67.358 12.06 66.488 5.44 61.61.32a14.07 14.07 0 015.308 3.083c4.42 4.272 7.809 9.317 10.997 14.513 5.002 8.01 9 16.592 11.904 25.555.253.708.253 1.48 0 2.188a15.128 15.128 0 00-.602 7.148c.231 1.64.266 3.302.106 4.95 0 .274 0 .614-.316.765-.057 0-.114 0-.124-.048-.391-1.093-.782-2.017-2.214-2.348a8.303 8.303 0 00-3.399-.537c-.85.15-1.737.113-2.587.33 1.585-1.113 3.408-1.122 5.241-1.094 1.499 0 1.661-.123 1.613-1.612a43.66 43.66 0 00-2.386-12.203c-2.2-6.72-4.85-13.289-7.933-19.662a97.519 97.519 0 00-6.51-12.042 19.853 19.853 0 00-3.131-3.772c.22 1.886-.153 3.461.324 5.027.83 2.687 1.518 5.422 2.177 8.157a41.582 41.582 0 011.412 8.986c.086 4.084.115 8.176 0 12.26a50.497 50.497 0 01-.61 7.543c-.678 3.952-1.661 7.856-2.482 11.778-.554 2.64-1.518 5.225-1.356 7.997.286 0 .401-.217.535-.377a69.963 69.963 0 015.928-6.007c1.613-1.575 3.15-3.282 5.384-4.083-1.566 1.358-3.284 2.593-4.716 4.111-1.432 1.519-2.797 3.357-4.181 5.083a.58.58 0 01-.067.094c-2.32 2.113-3.819 4.829-5.365 7.46a14.368 14.368 0 01-2.864 3.055.645.645 0 01-.2.085v-.198a.384.384 0 010-.415c2.491-3.895 3.646-8.308 4.926-12.655a100.3 100.3 0 002.367-11.448c-.468-.217-.601.15-.811.31a120.334 120.334 0 01-11.656 8.535c-2.864 1.839-5.986 3.433-9.012 5.102-.42.22-.79.524-1.085.893a3.4 3.4 0 00-.633 1.247 12.123 12.123 0 00-.573 3.66 8.613 8.613 0 01-.286 2.564.105.105 0 00-.153-.056c-.076-1.5-.229-3-.21-4.499a4.512 4.512 0 00-.661-2.514 4.59 4.59 0 00-1.945-1.748c-4.697-2.697-9.546-5.12-13.88-8.487-2.176-1.679-4.515-3.14-6.577-5.045a73.47 73.47 0 007.083 24.565l-.229.16c-1.002-1.122-2.291-2.102-2.96-3.394-2.395-4.65-5.927-8.421-9.259-12.373-1.117-1.33-2.616-2.169-3.818-3.328-.104-.11-.2-.227-.287-.35.574.066 1.105.33 1.5.746a81.925 81.925 0 018.008 7.704c.44.48.869.943 1.308 1.48.16-1.235.105-2.488-.162-3.705a140.281 140.281 0 01-4.134-29.752 62.94 62.94 0 012.73-19.935c.64-2.216 1.547-4.404 1.089-6.8-.058-.301.21-.772-.22-.876-.43-.104-.525.349-.744.594a41.863 41.863 0 00-5.499 8.666 168.456 168.456 0 00-7.885 17.116c-2.396 6.091-4.563 12.258-5.441 18.775a23.85 23.85 0 00-.096 2.508c0 .754.373 1.103 1.127 1.094h1.48a7.228 7.228 0 014.429 1.094zm60.36-33.005a.233.233 0 000 .085h.066l-.095-.104a4.573 4.573 0 00-.467-2.177 4.635 4.635 0 00-1.442-1.708 12.868 12.868 0 00-5.862-2.584 7.143 7.143 0 00-4.61.528c.763.142 1.279.245 1.794.33 2.09.358 4.22.594 6.033 1.886a41.279 41.279 0 014.582 3.744zM12.791 18.86c-.573.104-.716.641-.955 1.037-.954 1.622-1.909 3.263-2.758 4.923-3 5.536-5.528 11.308-7.56 17.257-.383 1.122-1.099 2.244-.812 3.47.341 1.343.571 2.712.687 4.093.44-.217.4-.585.458-.943a105.654 105.654 0 017.446-22.293c1.127-2.537 2.32-5.055 3.484-7.544.058-.085.287-.132.067-.283l-.057.283zm58.05 19.869c.04-4.006-.197-8.01-.707-11.985a4.371 4.371 0 00-.449-1.726 12.513 12.513 0 00-3.379-4.027c-3.389-2.433-7.083-3.772-11.236-2.829-3.942.849-7.426 2.537-9.45 6.309-.554 1.028-.764.943-1.375-.057a9.576 9.576 0 00-1.794-2.46c-5.528-4.716-12.41-5.536-18.606-1.151-2.415 1.716-3.99 3.772-4.238 6.79-.277 3.45-.22 6.902-.23 10.372 0 2.556.43 5.083.593 7.62a10.6 10.6 0 002.863 6.695c1.91 2.131 4.506 3.423 6.854 5.017 4.592 3.055 9.451 5.601 14.224 8.345a2.083 2.083 0 002.072-.066A142.063 142.063 0 0066.03 52.931c1.508-1.132 3.131-2.386 3.56-4.263a33.959 33.959 0 001.251-9.939zm17.354 10.826l.382-.104a8.603 8.603 0 01.2-2.301 6.359 6.359 0 00-.238-4.573 125.632 125.632 0 00-10.5-22.632 3.863 3.863 0 00-1.347-1.726c5.079 10.156 9.422 20.34 11.503 31.336zM20.4 22.632c1.661-1.198 3.017-2.612 4.668-3.678a14.886 14.886 0 015.728-1.838 2.818 2.818 0 00-.554-.274 11.476 11.476 0 00-4.663.223 11.393 11.393 0 00-4.177 2.06 3.1 3.1 0 00-1.077 1.592c-.18.63-.154 1.3.075 1.915z" fill="#2F80ED"/><path d="M9.326 55.939a7.227 7.227 0 00-4.429-1.132h-1.48c-.754 0-1.145-.34-1.126-1.094-.01-.825.021-1.65.095-2.47.879-6.526 3.046-12.684 5.442-18.776a168.44 168.44 0 017.885-17.115 41.861 41.861 0 015.498-8.666c.22-.246.382-.689.745-.594.363.094.162.575.22.877.458 2.395-.45 4.583-1.089 6.799A62.943 62.943 0 0018.3 33.74a140.281 140.281 0 004.133 29.752c.267 1.217.322 2.47.162 3.706-.439-.5-.868-1-1.307-1.48a81.913 81.913 0 00-8.01-7.705 2.446 2.446 0 00-1.498-.745l-2.034-1.207-.42-.141v.019zm69.514.877c-2.233.801-3.818 2.508-5.383 4.083a69.941 69.941 0 00-5.852 6.054c-.134.16-.248.387-.535.377-.162-2.772.802-5.356 1.356-7.996.821-3.923 1.804-7.827 2.482-11.779.392-2.496.596-5.017.61-7.544.087-4.092.058-8.185 0-12.259a41.582 41.582 0 00-1.412-8.986c-.659-2.735-1.346-5.47-2.176-8.157-.478-1.566-.105-3.122-.325-5.026a19.852 19.852 0 013.131 3.772 97.503 97.503 0 016.51 12.013 158.108 158.108 0 017.905 19.615 43.657 43.657 0 012.386 12.202c0 1.49-.114 1.632-1.613 1.613-1.833 0-3.656 0-5.24 1.094a3.839 3.839 0 01-1.452.688l-.363.208-.028.028z" fill="#3A5199"/><path d="M9.326 55.92l.42.141-.42-.141zm69.544.877l.362-.217-.363.217z" fill="#2F80ED"/><path d="M70.841 38.73a33.948 33.948 0 01-1.155 9.938c-.43 1.886-2.052 3.131-3.56 4.263a142.071 142.071 0 01-20.047 12.645 2.08 2.08 0 01-2.072.066c-4.868-2.744-9.727-5.29-14.271-8.373-2.348-1.632-4.916-2.886-6.826-5.017a10.6 10.6 0 01-2.863-6.696c-.163-2.536-.592-5.063-.592-7.619 0-3.46-.048-6.912.229-10.373.248-3.008 1.823-5.073 4.238-6.79 6.186-4.384 13.078-3.602 18.606 1.15a9.578 9.578 0 011.794 2.462c.611 1.01.821 1.085 1.375.057 2.024-3.772 5.508-5.46 9.45-6.309 4.153-.886 7.847.415 11.236 2.829a12.505 12.505 0 013.303 4.055c.267.539.42 1.126.449 1.726.51 3.974.746 7.979.706 11.985zm-15.75 4.648a9.857 9.857 0 00-.652-3.87 9.95 9.95 0 00-2.113-3.322 10.09 10.09 0 00-3.248-2.26 10.195 10.195 0 00-3.878-.845c-6.873-.189-10.834 4.847-10.834 10.061.066 6.47 3.646 10.373 10.052 10.647 6.176.245 10.605-4.3 10.672-10.41zm33.105 6.176C86.115 38.56 81.77 28.374 76.74 18.171a3.863 3.863 0 011.346 1.726 125.632 125.632 0 0110.5 22.632c.642 1.464.71 3.11.191 4.62a8.604 8.604 0 00-.239 2.302l-.343.103zM12.782 18.86c-1.165 2.518-2.358 5.035-3.484 7.544a105.656 105.656 0 00-7.446 22.292c-.057.321 0 .689-.458.943a25.112 25.112 0 00-.688-4.092c-.286-1.226.43-2.348.812-3.47a112.766 112.766 0 017.57-17.238c.888-1.66 1.814-3.301 2.759-4.923.229-.396.372-.943.954-1.037l-.019-.02z" fill="#3A5199"/><path d="M69.686 22.934a41.291 41.291 0 00-4.62-3.772c-1.814-1.254-3.943-1.49-6.033-1.886-.516-.085-1.031-.189-1.795-.33a7.143 7.143 0 014.716-.51 12.868 12.868 0 015.861 2.584 4.635 4.635 0 011.442 1.709c.333.677.493 1.424.467 2.177l-.038.028zM20.4 22.632a3.066 3.066 0 01-.097-1.906c.171-.63.54-1.19 1.052-1.602a11.396 11.396 0 014.176-2.06 11.477 11.477 0 014.663-.222c.194.07.38.162.554.273a14.884 14.884 0 00-5.728 1.84c-1.604 1.084-2.96 2.498-4.62 3.677zm-7.608-3.772l.057-.292c.22.15 0 .198-.067.283l.01.01z" fill="#3A5199"/><path d="M69.686 22.924l.095.104h-.066a.232.232 0 010-.085l-.029-.019z" fill="#3A5199"/><path d="M55.09 43.378c-.067 6.11-4.496 10.656-10.644 10.373-6.405-.226-9.985-4.14-10.08-10.609 0-5.215 3.961-10.25 10.834-10.062 1.337.026 2.655.314 3.879.847a10.09 10.09 0 013.247 2.259 9.952 9.952 0 012.113 3.322 9.859 9.859 0 01.651 3.87zm-10.415 9.43c6.167-.17 9.117-3.866 9.403-9.204a9.104 9.104 0 00-.6-3.613 9.19 9.19 0 00-1.98-3.097 9.32 9.32 0 00-3.044-2.088 9.416 9.416 0 00-7.266-.044 9.323 9.323 0 00-3.07 2.051 9.193 9.193 0 00-2.019 3.072 9.103 9.103 0 00-.645 3.606c.267 5.545 3.465 9.147 9.221 9.26v.057z" fill="#2F80ED"/><path d="M44.675 52.752c-5.727-.114-8.954-3.772-9.221-9.317a9.103 9.103 0 01.645-3.606 9.193 9.193 0 012.018-3.072 9.325 9.325 0 013.07-2.052 9.418 9.418 0 017.267.044 9.319 9.319 0 013.044 2.089 9.189 9.189 0 011.98 3.096 9.105 9.105 0 01.6 3.614c-.286 5.337-3.236 9.034-9.403 9.204z" fill="#3A5199"/><path d="M70.02 87.803h-.954v-3.065l-.134-.085-1.527 3.273-1.68-3.669v3.527h-.66V83.24c1.91.123 1.347 2.376 2.52 3.14 1.099-.764.593-2.942 2.473-3.15l-.038 4.574zm-27.578-.028h-.669v-4.536c1.91.085 1.365 2.31 2.52 3.168 1.08-.773.602-2.923 2.425-3.197v4.574h-.954v-3.338l-1.652 3.508-1.48-3.31-.171.056-.02 3.075zm-9.785.018v-4.517c1.174.132 2.644-.471 3.694.85a2.154 2.154 0 01.172 2.536c-.888 1.5-2.386 1.14-3.866 1.131zm.897-2.272v.943c0 1.018.63 1.348 1.537.82a2.093 2.093 0 00.115-3.357 1.775 1.775 0 00-1.26-.245c-.21.056-.296.66-.373 1.028-.037.269-.043.54-.019.81zm22.768 2.272l-2.76-3.414v3.395h-.782v-4.517c1.728.123 1.91 2.235 3.284 3.018v-2.98h.63v4.404l-.372.094zm-27.913-.018h-.668c.372-1.886.2-3.697-.506-4.536 2.1.113 2.253 2.263 3.818 3.14l-.2-3.084h.649V87.7l-.353.123-2.74-3.31v3.263zm21.374-4.621c.608.04 1.179.303 1.601.737.422.434.665 1.009.68 1.61a2.247 2.247 0 01-.592 1.651 2.3 2.3 0 01-2.52.59 2.227 2.227 0 01-.774-.512 2.193 2.193 0 01-.62-1.69 2.313 2.313 0 01.623-1.639 2.37 2.37 0 011.602-.747zm1.403 2.716c0-1.566-.44-2.273-1.289-2.33-.85-.056-1.45.632-1.48 1.886-.028 1.255.545 2.282 1.413 2.15.464-.13.864-.421 1.127-.82.143-.275.221-.578.229-.886zM37.63 83.239c.955.245 2.167-.368 3.055.594l-2.024-.32v1.753l1.671-.198.057.82-1.718-.367v2.008l2.377-.433c-.869 1.395-2.272.405-3.408.82l-.01-4.677zm22.415.066h.954a25.75 25.75 0 00.048 3.215 1.43 1.43 0 00.954.943c.411 0 1.175-.386 1.222-.688.092-1.145.11-2.295.058-3.442h.677c-.057.877-.124 1.745-.152 2.612 0 1.415-.592 2-1.91 1.98-1.317-.019-1.68-.547-1.737-1.98-.019-.877-.019-1.744-.114-2.64zm-40.237 2.593l.115 1.886h-.955V83.38c1.842-.292 2.864 0 2.95 1.028.114 1.405-1.003 1.405-2.11 1.49zm0-.622l.286.226c.315-.16.812-.264.907-.51a1.643 1.643 0 00-.238-1.065c-.067-.132-.468-.113-.707-.16l-.248 1.509zm4.821-2.216l2.1 4.715-1.136.056c0-.707.143-1.462-.888-1.528-.84-.056-1.413.123-1.46 1.104 0 .17-.392.32-.716.283l2.1-4.63zm.496 2.829l-.687-1.65-.64 1.65h1.327zm32.781 1.81v-4.385h1.031v4.385h-1.03z" fill="#2F80ED"/></g><defs><clipPath id="cclip0"><path fill="#fff" d="M0 0h90v90H0z"/></clipPath></defs></symbol><symbol fill="none" viewBox="0 0 90.11 90.21" id="logo_2" xmlns="http://www.w3.org/2000/svg"><g clip-path="url(#dclip0)"><path d="M16.228 81.466a24.7 24.7 0 012.998-.283c3.58.085 7.15.292 10.73.358 4.152.076 8.314 0 12.467.104.954 0 1.288-.283 1.336-1.198a6.49 6.49 0 01.563-2.178c.077.688.153 1.367.248 2.056.144.943.669 1.348 1.71 1.339 3.694-.057 7.397 0 11.092 0 .31-.025.623.03.907.16-7.017.151-14.033.368-21.059.415-7.026.047-13.985-.104-20.992-.198v-.575zm56.083 8.421c-8.2.32-16.4-.16-24.61-.245l24.6-.481.01.726z" fill="#2F80ED"/><path d="M78.87 56.797l.362-.217a3.838 3.838 0 001.451-.698c.85-.217 1.738-.179 2.587-.33a8.3 8.3 0 013.399.538c1.432.33 1.823 1.254 2.214 2.348 0 0 .067 0 .124.047.344-.151.296-.49.316-.764a20.966 20.966 0 00-.105-4.913 15.128 15.128 0 01.591-7.12 3.244 3.244 0 000-2.187 115.394 115.394 0 00-11.894-25.584c-3.188-5.196-6.577-10.241-10.997-14.513A14.071 14.071 0 0061.61.321c4.878 5.12 5.728 11.74 7.255 18.162a14.51 14.51 0 00-5.918-2.452c-3.198-.585-6.387-.547-9.25.943-2.864 1.49-6.072 3.037-8.21 5.79-.372.471-.659.519-1.06 0a15.607 15.607 0 00-2.634-2.49 22.733 22.733 0 00-6.09-3.055c-4.21-1.546-8.44-2.367-12.716-.094-.391.207-.954.858-1.365.415-.258-.274-.134-1.01 0-1.509a48.28 48.28 0 011.518-6.12c.82-2.367 1.422-5.026 3.245-7.082.745-.858 1.423-1.754 2.272-2.829-2.634 1.132-5.02 2.3-6.777 4.357A115.06 115.06 0 00.134 43.378a3.113 3.113 0 000 1.773c.787 2.915.95 5.96.477 8.94a8.826 8.826 0 00.23 4.554c.114-.179.2-.179.228-.179.081-.17.148-.347.2-.528.373-1.452 1.28-2.018 2.75-2.3 1.852-.369 3.551.169 5.308.32l.42.141 2.033 1.207c.087.123.183.24.286.35 1.241 1.159 2.74 1.998 3.819 3.328 3.331 3.951 6.863 7.723 9.26 12.372.668 1.292 1.956 2.273 2.959 3.395l.229-.16a73.468 73.468 0 01-7.045-24.603c2.062 1.886 4.4 3.366 6.577 5.045 4.305 3.328 9.183 5.752 13.88 8.487a4.59 4.59 0 011.945 1.748c.463.757.692 1.63.661 2.514 0 1.5.134 2.999.21 4.498-.258.49-.143.943.153 1.66v-1.603c.224-.837.32-1.7.286-2.565.002-1.241.196-2.475.573-3.659a3.4 3.4 0 01.633-1.248 3.447 3.447 0 011.085-.893c3.026-1.669 6.1-3.262 9.012-5.101a120.3 120.3 0 0011.732-8.572c.21-.16.344-.528.811-.311a100.278 100.278 0 01-2.367 11.448c-1.28 4.347-2.434 8.76-4.926 12.655a.383.383 0 000 .415v.198a.646.646 0 00.2-.085 14.363 14.363 0 002.864-3.055c1.594-2.631 3.045-5.347 5.365-7.46a.579.579 0 00.067-.094c1.384-1.688 2.663-3.48 4.181-5.045 1.518-1.565 3.103-2.754 4.668-4.112l-.028-.056z" fill="#FEFDFD"/><path d="M9.327 55.939c-1.757-.151-3.456-.689-5.308-.32-1.47.3-2.377.867-2.75 2.272-.052.18-.119.357-.2.528 0 .056-.105.085-.238.189a8.826 8.826 0 01-.23-4.555c.473-2.98.31-6.025-.477-8.94a3.113 3.113 0 01.01-1.735A115.058 115.058 0 0121.88 4.357C23.636 2.3 26.023 1.132 28.638 0c-.85 1.047-1.527 1.943-2.272 2.829-1.823 2.084-2.424 4.715-3.274 7.204a48.187 48.187 0 00-1.518 6.12c-.105.5-.229 1.236 0 1.51.43.443.955-.208 1.365-.416 4.277-2.272 8.506-1.452 12.716.095a22.731 22.731 0 016.09 3.055 15.603 15.603 0 012.635 2.49c.4.5.687.452 1.06 0 2.138-2.754 5.26-4.197 8.209-5.79 2.95-1.594 6.052-1.566 9.25-.943a14.511 14.511 0 015.919 2.414C67.358 12.06 66.488 5.44 61.61.32a14.07 14.07 0 015.308 3.083c4.42 4.272 7.809 9.317 10.997 14.513 5.002 8.01 9 16.592 11.904 25.555.253.708.253 1.48 0 2.188a15.128 15.128 0 00-.602 7.148c.231 1.64.266 3.302.106 4.95 0 .274 0 .614-.316.765-.057 0-.114 0-.124-.048-.391-1.093-.782-2.017-2.214-2.348a8.303 8.303 0 00-3.399-.537c-.85.15-1.737.113-2.587.33 1.585-1.113 3.408-1.122 5.241-1.094 1.499 0 1.661-.123 1.613-1.612a43.66 43.66 0 00-2.386-12.203c-2.2-6.72-4.85-13.289-7.933-19.662a97.519 97.519 0 00-6.51-12.042 19.853 19.853 0 00-3.131-3.772c.22 1.886-.153 3.461.324 5.027.83 2.687 1.518 5.422 2.177 8.157a41.582 41.582 0 011.412 8.986c.086 4.084.115 8.176 0 12.26a50.497 50.497 0 01-.61 7.543c-.678 3.952-1.661 7.856-2.482 11.778-.554 2.64-1.518 5.225-1.356 7.997.286 0 .401-.217.535-.377a69.963 69.963 0 015.928-6.007c1.613-1.575 3.15-3.282 5.384-4.083-1.566 1.358-3.284 2.593-4.716 4.111-1.432 1.519-2.797 3.357-4.181 5.083a.58.58 0 01-.067.094c-2.32 2.113-3.819 4.829-5.365 7.46a14.368 14.368 0 01-2.864 3.055.645.645 0 01-.2.085v-.198a.384.384 0 010-.415c2.491-3.895 3.646-8.308 4.926-12.655a100.3 100.3 0 002.367-11.448c-.468-.217-.601.15-.811.31a120.334 120.334 0 01-11.656 8.535c-2.864 1.839-5.986 3.433-9.012 5.102-.42.22-.79.524-1.085.893a3.4 3.4 0 00-.633 1.247 12.123 12.123 0 00-.573 3.66 8.613 8.613 0 01-.286 2.564.105.105 0 00-.153-.056c-.076-1.5-.229-3-.21-4.499a4.512 4.512 0 00-.661-2.514 4.59 4.59 0 00-1.945-1.748c-4.697-2.697-9.546-5.12-13.88-8.487-2.176-1.679-4.515-3.14-6.577-5.045a73.47 73.47 0 007.083 24.565l-.229.16c-1.002-1.122-2.291-2.102-2.96-3.394-2.395-4.65-5.927-8.421-9.259-12.373-1.117-1.33-2.616-2.169-3.818-3.328-.104-.11-.2-.227-.287-.35.574.066 1.105.33 1.5.746a81.925 81.925 0 018.008 7.704c.44.48.869.943 1.308 1.48.16-1.235.105-2.488-.162-3.705a140.281 140.281 0 01-4.134-29.752 62.94 62.94 0 012.73-19.935c.64-2.216 1.547-4.404 1.089-6.8-.058-.301.21-.772-.22-.876-.43-.104-.525.349-.744.594a41.863 41.863 0 00-5.499 8.666 168.456 168.456 0 00-7.885 17.116c-2.396 6.091-4.563 12.258-5.441 18.775a23.85 23.85 0 00-.096 2.508c0 .754.373 1.103 1.127 1.094h1.48a7.228 7.228 0 014.429 1.094zm60.36-33.005a.233.233 0 000 .085h.066l-.095-.104a4.573 4.573 0 00-.467-2.177 4.635 4.635 0 00-1.442-1.708 12.868 12.868 0 00-5.862-2.584 7.143 7.143 0 00-4.61.528c.763.142 1.279.245 1.794.33 2.09.358 4.22.594 6.033 1.886a41.279 41.279 0 014.582 3.744zM12.791 18.86c-.573.104-.716.641-.955 1.037-.954 1.622-1.909 3.263-2.758 4.923-3 5.536-5.528 11.308-7.56 17.257-.383 1.122-1.099 2.244-.812 3.47.341 1.343.571 2.712.687 4.093.44-.217.4-.585.458-.943a105.654 105.654 0 017.446-22.293c1.127-2.537 2.32-5.055 3.484-7.544.058-.085.287-.132.067-.283l-.057.283zm58.05 19.869c.04-4.006-.197-8.01-.707-11.985a4.371 4.371 0 00-.449-1.726 12.513 12.513 0 00-3.379-4.027c-3.389-2.433-7.083-3.772-11.236-2.829-3.942.849-7.426 2.537-9.45 6.309-.554 1.028-.764.943-1.375-.057a9.576 9.576 0 00-1.794-2.46c-5.528-4.716-12.41-5.536-18.606-1.151-2.415 1.716-3.99 3.772-4.238 6.79-.277 3.45-.22 6.902-.23 10.372 0 2.556.43 5.083.593 7.62a10.6 10.6 0 002.863 6.695c1.91 2.131 4.506 3.423 6.854 5.017 4.592 3.055 9.451 5.601 14.224 8.345a2.083 2.083 0 002.072-.066A142.063 142.063 0 0066.03 52.931c1.508-1.132 3.131-2.386 3.56-4.263a33.959 33.959 0 001.251-9.939zm17.354 10.826l.382-.104a8.603 8.603 0 01.2-2.301 6.359 6.359 0 00-.238-4.573 125.632 125.632 0 00-10.5-22.632 3.863 3.863 0 00-1.347-1.726c5.079 10.156 9.422 20.34 11.503 31.336zM20.4 22.632c1.661-1.198 3.017-2.612 4.668-3.678a14.886 14.886 0 015.728-1.838 2.818 2.818 0 00-.554-.274 11.476 11.476 0 00-4.663.223 11.393 11.393 0 00-4.177 2.06 3.1 3.1 0 00-1.077 1.592c-.18.63-.154 1.3.075 1.915z" fill="#2F80ED"/><path d="M9.326 55.939a7.227 7.227 0 00-4.429-1.132h-1.48c-.754 0-1.145-.34-1.126-1.094-.01-.825.021-1.65.095-2.47.879-6.526 3.046-12.684 5.442-18.776a168.44 168.44 0 017.885-17.115 41.861 41.861 0 015.498-8.666c.22-.246.382-.689.745-.594.363.094.162.575.22.877.458 2.395-.45 4.583-1.089 6.799A62.943 62.943 0 0018.3 33.74a140.281 140.281 0 004.133 29.752c.267 1.217.322 2.47.162 3.706-.439-.5-.868-1-1.307-1.48a81.913 81.913 0 00-8.01-7.705 2.446 2.446 0 00-1.498-.745l-2.034-1.207-.42-.141v.019zm69.514.877c-2.233.801-3.818 2.508-5.383 4.083a69.94 69.94 0 00-5.852 6.054c-.134.16-.248.387-.535.377-.162-2.772.802-5.356 1.356-7.996.82-3.923 1.804-7.827 2.482-11.779.392-2.496.596-5.017.61-7.544.087-4.092.058-8.185 0-12.259a41.582 41.582 0 00-1.412-8.986c-.659-2.735-1.346-5.47-2.176-8.157-.478-1.566-.106-3.122-.325-5.026a19.856 19.856 0 013.131 3.772 97.53 97.53 0 016.51 12.013 158.139 158.139 0 017.905 19.615 43.66 43.66 0 012.386 12.202c0 1.49-.115 1.632-1.613 1.613-1.833 0-3.656 0-5.241 1.094a3.838 3.838 0 01-1.451.688l-.363.208-.028.028z" fill="#D7C7FF"/><path d="M9.327 55.92l.42.141-.42-.141zm69.543.877l.362-.217-.363.217z" fill="#2F80ED"/><path d="M70.841 38.73a33.948 33.948 0 01-1.155 9.938c-.43 1.886-2.052 3.131-3.56 4.263a142.071 142.071 0 01-20.047 12.645 2.08 2.08 0 01-2.072.066c-4.868-2.744-9.727-5.29-14.271-8.373-2.348-1.632-4.916-2.886-6.826-5.017a10.6 10.6 0 01-2.863-6.696c-.163-2.536-.592-5.063-.592-7.619 0-3.46-.048-6.912.229-10.373.248-3.008 1.823-5.073 4.238-6.79 6.186-4.384 13.078-3.602 18.606 1.15a9.578 9.578 0 011.794 2.462c.611 1.01.821 1.085 1.375.057 2.024-3.772 5.508-5.46 9.45-6.309 4.153-.886 7.847.415 11.236 2.829a12.505 12.505 0 013.303 4.055c.267.539.42 1.126.449 1.726.51 3.974.746 7.979.706 11.985zm-15.75 4.648a9.857 9.857 0 00-.652-3.87 9.95 9.95 0 00-2.113-3.322 10.09 10.09 0 00-3.248-2.26 10.195 10.195 0 00-3.878-.845c-6.873-.189-10.834 4.847-10.834 10.061.066 6.47 3.646 10.373 10.052 10.647 6.176.245 10.605-4.3 10.672-10.41zm33.105 6.176C86.115 38.56 81.77 28.374 76.74 18.171a3.863 3.863 0 011.346 1.726 125.632 125.632 0 0110.5 22.632c.642 1.464.71 3.11.191 4.62a8.604 8.604 0 00-.239 2.302l-.343.103zM12.782 18.86c-1.164 2.518-2.358 5.035-3.484 7.544a105.656 105.656 0 00-7.446 22.292c-.057.321 0 .689-.458.943a25.114 25.114 0 00-.688-4.092c-.286-1.226.43-2.348.812-3.47a112.766 112.766 0 017.57-17.238c.888-1.66 1.814-3.301 2.759-4.923.229-.396.372-.943.954-1.037l-.019-.02z" fill="#D7C7FF"/><path d="M69.686 22.934a41.291 41.291 0 00-4.62-3.772c-1.814-1.254-3.943-1.49-6.033-1.886-.516-.085-1.031-.189-1.795-.33a7.143 7.143 0 014.716-.51 12.868 12.868 0 015.861 2.584 4.635 4.635 0 011.442 1.709c.333.677.493 1.424.467 2.177l-.038.028zM20.4 22.632a3.066 3.066 0 01-.097-1.906c.171-.63.54-1.19 1.052-1.602a11.396 11.396 0 014.176-2.06 11.477 11.477 0 014.663-.222c.194.07.38.162.554.273a14.884 14.884 0 00-5.728 1.84c-1.604 1.084-2.96 2.498-4.62 3.677zm-7.608-3.772l.057-.292c.22.15 0 .198-.067.283l.01.01z" fill="#D7C7FF"/><path d="M69.686 22.924l.095.104h-.066a.232.232 0 010-.085l-.029-.019z" fill="#D7C7FF"/><path d="M55.09 43.378c-.067 6.11-4.496 10.656-10.644 10.373-6.405-.226-9.985-4.14-10.08-10.609 0-5.215 3.961-10.25 10.834-10.062 1.337.026 2.655.314 3.879.847a10.09 10.09 0 013.247 2.259 9.952 9.952 0 012.113 3.322 9.859 9.859 0 01.651 3.87zm-10.415 9.43c6.167-.17 9.117-3.866 9.403-9.204a9.104 9.104 0 00-.6-3.613 9.19 9.19 0 00-1.98-3.097 9.32 9.32 0 00-3.044-2.088 9.416 9.416 0 00-7.266-.044 9.323 9.323 0 00-3.07 2.051 9.193 9.193 0 00-2.019 3.072 9.103 9.103 0 00-.645 3.606c.267 5.545 3.465 9.147 9.221 9.26v.057z" fill="#2F80ED"/><path d="M44.675 52.752c-5.727-.114-8.954-3.772-9.221-9.317a9.105 9.105 0 01.645-3.606 9.193 9.193 0 012.018-3.072 9.325 9.325 0 013.07-2.052 9.418 9.418 0 017.267.044 9.32 9.32 0 013.044 2.089 9.19 9.19 0 011.98 3.096 9.102 9.102 0 01.6 3.614c-.286 5.337-3.236 9.034-9.403 9.204z" fill="#D7C7FF"/><path d="M70.02 87.803h-.954v-3.065l-.134-.085-1.527 3.273-1.68-3.669v3.527h-.66V83.24c1.91.123 1.347 2.376 2.52 3.14 1.099-.764.593-2.942 2.473-3.15l-.038 4.574zm-27.578-.028h-.669v-4.536c1.91.085 1.365 2.31 2.52 3.168 1.08-.773.602-2.923 2.425-3.197v4.574h-.954v-3.338l-1.652 3.508-1.48-3.31-.171.056-.02 3.075zm-9.785.018v-4.517c1.174.132 2.644-.471 3.694.85a2.154 2.154 0 01.172 2.536c-.888 1.5-2.386 1.14-3.866 1.131zm.897-2.272v.943c0 1.018.63 1.348 1.537.82a2.093 2.093 0 00.115-3.357 1.775 1.775 0 00-1.26-.245c-.21.056-.296.66-.373 1.028-.037.269-.043.54-.019.81zm22.768 2.272l-2.76-3.414v3.395h-.782v-4.517c1.728.123 1.91 2.235 3.284 3.018v-2.98h.63v4.404l-.372.094zm-27.913-.018h-.668c.372-1.886.2-3.697-.506-4.536 2.1.113 2.253 2.263 3.818 3.14l-.2-3.084h.649V87.7l-.353.123-2.74-3.31v3.263zm21.373-4.621c.609.04 1.18.303 1.602.737a2.4 2.4 0 01.68 1.61 2.247 2.247 0 01-.592 1.651 2.299 2.299 0 01-2.52.59 2.227 2.227 0 01-.774-.512 2.194 2.194 0 01-.62-1.69 2.314 2.314 0 01.623-1.639 2.37 2.37 0 011.602-.747zm1.404 2.716c0-1.566-.44-2.273-1.289-2.33-.85-.056-1.45.632-1.48 1.886-.028 1.255.545 2.282 1.413 2.15.464-.13.864-.421 1.127-.82.143-.275.221-.578.229-.886zM37.63 83.239c.955.245 2.167-.368 3.055.594l-2.024-.32v1.753l1.671-.198.057.82-1.718-.367v2.008l2.377-.433c-.869 1.395-2.272.405-3.408.82l-.01-4.677zm22.415.066h.954a25.75 25.75 0 00.048 3.215 1.43 1.43 0 00.954.943c.411 0 1.175-.386 1.222-.688.092-1.145.11-2.295.058-3.442h.677c-.057.877-.124 1.745-.152 2.612 0 1.415-.592 2-1.91 1.98-1.317-.019-1.68-.547-1.737-1.98-.019-.877-.019-1.744-.114-2.64zm-40.237 2.593l.115 1.886h-.955V83.38c1.842-.292 2.864 0 2.95 1.028.114 1.405-1.003 1.405-2.11 1.49zm0-.622l.286.226c.316-.16.812-.264.907-.51a1.644 1.644 0 00-.238-1.065c-.067-.132-.468-.113-.707-.16l-.248 1.509zm4.821-2.216l2.1 4.715-1.136.056c0-.707.143-1.462-.888-1.528-.84-.056-1.413.123-1.46 1.104 0 .17-.392.32-.716.283l2.1-4.63zm.496 2.829l-.687-1.65-.64 1.65h1.327zm32.781 1.81v-4.385h1.031v4.385h-1.03z" fill="#2F80ED"/></g><defs><clipPath id="dclip0"><path fill="#fff" d="M0 0h90v90H0z"/></clipPath></defs></symbol></svg>