<?xml version="1.0" encoding="utf-8"?><svg xmlns="http://www.w3.org/2000/svg" xmlns:xlink="http://www.w3.org/1999/xlink"><symbol viewBox="0 0 480.026 480.026" id="arrows" xmlns="http://www.w3.org/2000/svg"><path d="M475.922 229.325l-144-160c-3.072-3.392-7.36-5.312-11.904-5.312h-96a16.052 16.052 0 00-14.624 9.472c-2.56 5.792-1.504 12.544 2.72 17.216l134.368 149.312-134.368 149.28c-4.224 4.704-5.312 11.456-2.72 17.216 2.592 5.792 8.32 9.504 14.624 9.504h96c4.544 0 8.832-1.952 11.904-5.28l144-160c5.472-6.08 5.472-15.36 0-21.408z"/><path d="M267.922 229.325l-144-160c-3.072-3.392-7.36-5.312-11.904-5.312h-96a16.052 16.052 0 00-14.624 9.472c-2.56 5.792-1.504 12.544 2.72 17.216l134.368 149.312L4.114 389.293c-4.224 4.704-5.312 11.456-2.72 17.216 2.592 5.792 8.32 9.504 14.624 9.504h96c4.544 0 8.832-1.952 11.904-5.28l144-160c5.472-6.08 5.472-15.36 0-21.408z"/></symbol><symbol viewBox="0 0 414.72 543.28" id="flip" xmlns="http://www.w3.org/2000/svg"><path d="M479 265.166c0 57.977-25.452 112.68-69.818 150.09l-38.538-45.727c30.854-26.013 48.551-64.055 48.551-104.363 0-72.504-56.885-131.795-128.352-136.009H261.59l24.636 62.368a4.986 4.986 0 01-1.643 5.822 4.984 4.984 0 01-6.053-.024l-122.498-94.185a5.005 5.005 0 01-1.954-3.966c0-1.554.724-3.021 1.954-3.963l122.51-94.18A4.933 4.933 0 01281.58 0a5.002 5.002 0 014.658 6.833l-24.636 62.358 21.185.062v-.316c7.571 0 15.043.479 22.396 1.321 4.877.508 10.32 1.229 14.452 2.202C410.257 89.761 479 169.562 479 265.166zm-214.263 80.791a4.975 4.975 0 00-6.053-.023 5.01 5.01 0 00-1.64 5.828l24.636 62.365h-29.252c-71.452-4.221-128.346-63.518-128.346-136.014 0-37.728 15.058-72.832 42.398-98.845l-41.231-43.326C85.93 173.36 64.276 223.844 64.276 278.113c0 95.596 68.733 175.402 159.375 192.703 4.14.97 9.581 1.69 14.455 2.199 7.353.845 14.818 1.324 22.396 1.324v-.319l21.184.064-24.636 62.358a4.996 4.996 0 004.655 6.833 4.968 4.968 0 003.044-1.028l122.492-94.188a4.99 4.99 0 000-7.921l-122.504-94.181z"/></symbol><symbol viewBox="0 0 24.76 20.61" id="telegram" xmlns="http://www.w3.org/2000/svg"><path d="M1.29 10.853l5.636 1.914 13.379-8.18c.194-.118.392.145.225.3l-10.129 9.322-.377 5.22a.432.432 0 00.734.339l3.119-3.067 5.7 4.316a1.057 1.057 0 001.671-.615l3.97-18.025a1.322 1.322 0 00-1.765-1.52L1.262 9.355c-.697.267-.678 1.258.028 1.498z"/></symbol><symbol viewBox="0 0 24.71 27.96" id="ticktok" xmlns="http://www.w3.org/2000/svg"><path d="M25.267 7.021A7.044 7.044 0 0121.011 5.6 7.06 7.06 0 0118.197.02h-4.564v12.473l-.006 6.832a4.132 4.132 0 01-2.838 3.92 4.153 4.153 0 01-1.534.204 4.114 4.114 0 01-1.89-.58 4.131 4.131 0 01-2.02-3.481 4.135 4.135 0 014.141-4.192c.456 0 .893.074 1.303.209V10.77a8.98 8.98 0 00-1.317-.097 8.753 8.753 0 00-6.577 2.942 8.563 8.563 0 00-2.16 5.165 8.552 8.552 0 002.547 6.663 8.754 8.754 0 006.19 2.534 8.98 8.98 0 001.317-.097 8.724 8.724 0 004.874-2.437 8.546 8.546 0 002.563-6.082L18.203 9.16a11.54 11.54 0 007.078 2.405V7.02l-.014.001z"/></symbol><symbol viewBox="0 0 28.08 24.43" id="twitter" xmlns="http://www.w3.org/2000/svg"><path d="M27.876 4.99a.835.835 0 00-.784-.395l-1.396.122 1.335-2.69A.835.835 0 0025.916.904l-3.532 1.73c-2.183-1.152-4.909-.81-6.785.9-1.566 1.425-2.389 3.619-2.235 5.806-4.092-.41-7.556-2.752-9.605-6.537a.835.835 0 00-1.405-.1C1.084 4.421.994 6.774 1.99 8.71c-.274-.07-.566-.164-.89-.272a.835.835 0 00-1.089.928c.394 2.39 1.787 4.225 3.988 5.312-.286.1-.579.181-.876.243a.835.835 0 00-.44 1.388c1.586 1.694 3.875 2.528 5.501 2.928-1.849 1.448-3.845 1.69-6.745 1.59a.837.837 0 00-.647 1.396C2 23.556 6.406 25.058 11.036 25.171c.183.005.37.007.561.007 3.251 0 7.548-.697 10.632-3.781 2.335-2.335 3.795-5.022 4.34-7.987.44-2.396.162-4.314.028-5.235l-.029-.203 1.306-2.105a.835.835 0 00.002-.877z"/></symbol></svg>