<?xml version="1.0" encoding="utf-8"?><svg xmlns="http://www.w3.org/2000/svg" xmlns:xlink="http://www.w3.org/1999/xlink"><symbol viewBox="0 0 98.3 74.7" id="logo" xmlns="http://www.w3.org/2000/svg"><path fill="#E55028" d="M70.098 32.877c-.951 1.28-2.524 2.065-4.392 2.152-2.689.125-3.996-2.211-4.227-7.18-.195-4.222.7-12.311.555-15.448l-.104-2.241c-.896.041-5.063 17.529-7.315 20.628-.664 1.004-1.783 1.918-3.164 1.981-3.176.147-5.363-3.42-5.619-8.948-.168-3.625.494-10.318.141-17.937-.038-.824-.203-1.152-.352-1.146-2.989.139-9.656 20.25-9.976 30.298-.044 1.463.219 3.921.578 5.215-3.605-.244-7.463-.29-7.631-3.914-.154-3.324 1.577-10.404 3.644-16.679C33.68 15.287 39.273.278 45.175.005c6.537-.304 5.774 11.524 6.294 22.693.083 1.791.144 3.101.375 4.063C57.981 8.958 59.122 3.7 62.783 3.531c2.093-.098 3.717 2.635 3.887 6.296.099 2.129.073 6.435.195 9.05.546 11.768 1.761 11.337 3.233 14zm20-17.187c-.048 2.364-6.179 11.961-12.003 11.842-3.201-.066-4.799-2.139-4.742-4.866.049-2.365 1.189-4.745 2.058-6.295-5.588-.951-6.262-3.551-6.231-5.006.059-2.911 2.857-4.384 4.64-4.348 1.419.029 1.832 1.202 1.816 1.968-.019.872-.402 1.921-1.013 3.181 2.754.678 7.269.732 7.225 2.882-.04 1.964-3.348 5.211-3.402 7.868-.02.981.404 1.536 1.17 1.552 3.057.063 6.985-6.848 8.766-10.234 1.267.245 1.73.73 1.716 1.456z"/><path fill="#F9B43B" d="M94.032 41.441c-.035 1.723-4.502 8.716-8.745 8.629-2.334-.048-3.497-1.558-3.456-3.546.035-1.725.867-3.457 1.5-4.587-4.072-.693-4.563-2.588-4.541-3.647.043-2.121 2.082-3.194 3.381-3.168 1.033.021 1.334.876 1.322 1.434-.013.636-.293 1.399-.736 2.318 2.006.494 5.295.533 5.263 2.099-.029 1.433-2.438 3.797-2.478 5.733-.016.716.295 1.12.852 1.132 2.228.046 5.09-4.99 6.387-7.458.925.179 1.263.532 1.251 1.061zm.683 17.468c-.028 1.357-3.547 6.866-6.89 6.798-1.838-.038-2.756-1.228-2.723-2.794.027-1.356.683-2.724 1.181-3.613-3.207-.545-3.595-2.038-3.577-2.873.035-1.671 1.641-2.516 2.664-2.495.814.017 1.052.689 1.043 1.13-.011.499-.231 1.103-.582 1.825 1.58.39 4.173.42 4.147 1.655-.023 1.127-1.923 2.989-1.954 4.517-.011.562.232.881.673.89 1.754.036 4.01-3.932 5.031-5.876.73.142.996.419.987.836z"/><path fill="#8BC334" d="M88.913 25.685c.041-1.983 2.199-3.441 4.765-3.389 2.612.053 4.619 1.308 4.587 2.902-.053 2.565-2.671 5.125-5.283 5.072-2.614-.053-4.1-3.085-4.069-4.585z"/><path fill="#F9B43B" d="M50.903 68.48c.025-1.241 1.375-2.152 2.979-2.119 1.633.033 2.889.817 2.867 1.814-.032 1.604-1.669 3.204-3.303 3.171-1.634-.033-2.562-1.928-2.543-2.866z"/><path fill="#E55028" d="M30.218 46.802c.025-1.241 1.375-2.152 2.979-2.119 1.633.033 2.888.817 2.868 1.815-.033 1.603-1.669 3.203-3.303 3.17-1.635-.033-2.564-1.929-2.544-2.866z"/><path fill="#F9B43B" d="M60.528 55.991c-.062 2.992-2.562 6.684-8.605 6.56-3.441-.07-5.892-1.707-5.856-3.444.011-.508.35-.98.894-1.297.917.556 2.042 1.148 4.197 1.192 3.381.069 4.955-2.262 5.003-4.596.046-2.273-1.325-3.92-3.36-4.021-1.734-.036-3.321-.037-4.502.626-.981-.349-1.446-1.047-1.432-1.705.026-1.257 1.053-1.744 2.37-1.718a7.344 7.344 0 011.759.275c2.111-.735 5.241-3.005 5.307-6.237.057-2.751-2.271-4.477-6.131-4.556-.809-.017-1.648.057-2.519.158.202.334.315.666.309.994-3.89 7.224-4.585 22.177-1.9 26.931-.398.441-2.318.642-3.185.624-2.154-.044-3.536-1.33-3.762-3.43-.854-6.542 1.331-16.736 3.201-21.785.256-.804.539-1.456.85-2.049-1.419.599-2.662 1.383-3.578 2.23-.982-.288-1.657-.932-1.645-1.56.004-.209.068-.388.191-.596.683-1.152 5.832-4.1 12.624-3.961 8.826.182 11.26 4.183 11.205 6.815-.078 3.799-4.174 6.471-7.244 7.335 3.901.981 5.872 4.194 5.809 7.215zm23.741-14.067c-.025 1.235-4.68 9.245-9.137 9.153-1.82-.037-2.973-1.038-3.353-3.129-1.301 1.568-3.056 3.028-5.007 2.988-2.277-.047-3.387-1.501-3.33-4.234.022-1.104.296-3.312.342-5.557.03-1.461-.02-2.214-.226-3.291.946-.143 1.86-.287 2.771-.269 1.593.032 2.261.827 2.224 2.648-.021 1.074-.368 3.67-.404 5.46-.025 1.236.191 1.727.549 1.734.488.01 1.775-.809 3.018-2.703.126-1.397.319-2.857.345-4.094.024-1.171-.056-2.052-.241-2.574.557-.088 1.207-.172 1.794-.159 2.082.042 3.003 1.134 2.95 3.704-.018.846-.453 3.083-.485 4.645-.03 1.496.149 2.216.735 2.228 1.105.022 4.277-3.882 5.82-7.722.785-.213 1.656.163 1.635 1.172zm-7.067 18.971c-2.256.077-4.504.913-6.465 2.147l-.014.711c-.08 3.894-1.665 10.649-5.854 10.563-1.74-.035-2.698-1.084-2.661-2.897.058-2.818 2.301-5.81 5.189-8.077.003-.172.007-.319-.016-.444-.851.867-1.79 1.288-2.795 1.268-1.666-.034-2.599-1.181-2.559-3.115.06-2.941 3.23-5.743 6.269-5.681 1.004.021 1.999.435 1.982 1.243-.012.612-.657.99-1.986 1.305-.164-.418-.381-.595-.601-.599-1.054-.021-2.375 2.279-2.407 3.847-.014.687.176.959.471.965.637.014 1.696-1.46 1.355-2.789 1.193-.761 1.511-.754 1.976-.745 1.03.021 1.481.717 1.613 2.632 1.906-.965 3.879-1.538 5.545-1.504.614.011 1.146.389.958 1.17zm-9.982 5.163c-1.606 1.877-2.631 4.014-2.671 5.999-.011.515.104.858.399.864 1.126.023 1.966-3.881 2.272-6.863z"/><path fill="#F9B43B" d="M87.722 60.522c-.023 1.176-4.121 7.342-8.676 7.248-3.455-.07-5.904-2.522-5.836-5.879.066-3.234 2.178-5.763 4.822-5.709 1.887.039 2.989 1.262 2.948 3.271-.044 2.156-1.718 3.715-3.185 4.688.475.794 1.151 1.25 1.984 1.267 1.886.039 4.408-2.263 6.316-5.679.988-.298 1.644-.016 1.627.793zm-10.666.321c-.01.467.005.907.07 1.301.775-.794 1.383-1.712 1.406-2.839.011-.539-.177-.91-.398-.915-.465-.01-1.053 1.204-1.078 2.453z"/><path fill-rule="evenodd" clip-rule="evenodd" fill="#E55028" d="M.004 29.345H.002L0 29.35z"/><g fill-rule="evenodd" clip-rule="evenodd"><path fill="#E55028" d="M16.591 51.478l1.104-1.103c.116.836-.023 1.49-.405 2.104-.055.118-.111.234-.164.351-.107.34-.333.576-.631.754l-.205.141c-.119.075-.241.148-.361.222-.079.021-.158.038-.237.057l.023.359c1.227.24 2.442.3 3.628-.206 1.134-.483 1.828-1.463 2.63-2.317.106-.254.296-.423.524-.562a1.62 1.62 0 01.646-.646c.177-.271.427-.451.722-.569.478-.575 1.177-.62 1.832-.776-.083-.703-.898-.643-1.186-1.135-1.96-1.289-3.993-2.394-6.42-2.469-.127.037-.252.076-.38.114-.26.09-.516.183-.776.264-2.304.732-4.358 2.038-6.617 2.875a12.306 12.306 0 01-5.247.731c-.536-.04-1.04-.441-1.604-.149.951 1.728 2.491 2.779 4.218 3.572 1.992.916 4.024.583 6.045.054l1.496-.706c.455-.321.91-.642 1.365-.96z"/><path fill="#F9B43B" d="M32.426 58.221c-1.174-.394-2.376-.705-3.583-.242-1.696.652-3.396 1.288-5.128 1.84-1.39.442-2.796.794-4.283.647-.32-.032-.71-.216-1.011.236 2.812 1.149 5.504 2.677 8.71 1.845l2.711-1.091c.066-.042.133-.082.199-.122 1.264-.631 2.45-1.41 3.77-1.928-.087-.833-.893-.829-1.385-1.185zM22.016 35.08c-.822-.457-1.882-.436-2.76-.384-1.202.067-2.362.073-3.533-.165a32.958 32.958 0 00-.273-.132c.328.908.994 1.563 1.633 2.256.411.444.821.54 1.39.581 1.492.108 2.934-.383 4.417-.295.226.058.453.114.678.173-.319-.834-.798-1.616-1.552-2.034z"/><path fill="#E55028" d="M38.82 70.154c-1.171-.494-2.296-.518-3.313.302-.573.464-1.194.786-1.997 1.032 1.17.57 2.313.802 3.478.628.804-.116 1.623-.376 2.042-1.234.163-.338.24-.539-.21-.728z"/></g></symbol><symbol viewBox="0 0 46.7 57.73" id="map-marker" xmlns="http://www.w3.org/2000/svg"><path fill-rule="evenodd" clip-rule="evenodd" fill="#E45028" d="M23.122 57.727h-.185c-.072-.075-.135-.164-.217-.225a79.117 79.117 0 01-8.019-6.756 66.348 66.348 0 01-7.328-8.306c-1.932-2.606-3.591-5.385-4.87-8.378C1.356 31.378.543 28.608.22 25.698c-.474-4.298.14-8.417 1.964-12.349a22.933 22.933 0 015.893-7.794 22.327 22.327 0 015.453-3.483c1.698-.764 3.453-1.367 5.3-1.667.876-.144 1.754-.271 2.632-.405h3.136c.117.029.232.072.352.083 2.025.199 3.996.612 5.915 1.316 4.017 1.475 7.367 3.869 10.053 7.188a22.621 22.621 0 014.486 9.182c1.039 4.431.682 8.784-.766 13.069-1.745 5.164-4.655 9.661-8.084 13.835-1.517 1.847-3.16 3.595-4.81 5.326-2.173 2.279-4.521 4.374-6.977 6.347-.558.448-1.097.92-1.645 1.381z"/><path fill="#FFF" d="M29.899 18.672c-.405.546-1.076.881-1.873.918-1.147.053-1.704-.943-1.803-3.063-.083-1.801.299-5.251.236-6.589l-.044-.956c-.382.018-2.158 7.478-3.12 8.8-.283.428-.761.818-1.349.845-1.354.063-2.288-1.459-2.397-3.817-.072-1.546.211-4.401.06-7.651-.016-.352-.086-.492-.15-.489-1.274.06-4.118 8.638-4.255 12.923-.019.624.094 1.672.247 2.225-1.538-.104-3.183-.124-3.255-1.669-.066-1.418.672-4.438 1.554-7.114.616-1.865 3.002-8.267 5.52-8.383 2.788-.129 2.463 4.916 2.685 9.68.035.764.061 1.322.16 1.733 2.617-7.594 3.104-9.837 4.665-9.909.894-.042 1.586 1.124 1.658 2.686.042.908.031 2.745.084 3.86.232 5.018.749 4.835 1.377 5.97zm8.532-7.33c-.021 1.008-2.636 5.102-5.12 5.051-1.365-.028-2.047-.912-2.022-2.075.021-1.009.507-2.024.878-2.686-2.384-.405-2.671-1.514-2.658-2.135.025-1.242 1.219-1.87 1.979-1.854.605.012.782.513.775.839-.008.372-.172.819-.433 1.356 1.175.289 3.101.313 3.082 1.229-.017.837-1.428 2.223-1.451 3.356-.009.418.172.655.499.662 1.304.027 2.979-2.92 3.739-4.365.54.105.738.312.732.622zm1.677 10.984c-.015.735-1.92 3.718-3.729 3.681-.996-.021-1.492-.665-1.475-1.513.016-.735.37-1.475.64-1.957-1.736-.295-1.946-1.104-1.937-1.556.019-.905.888-1.362 1.442-1.351.44.009.568.374.563.611-.005.271-.125.597-.313.989.855.211 2.258.228 2.244.895-.013.611-1.04 1.62-1.057 2.446-.007.305.126.478.363.483.95.02 2.171-2.129 2.725-3.181.396.076.54.227.534.453zm.291 7.451c-.012.578-1.513 2.928-2.938 2.899-.783-.017-1.176-.523-1.161-1.192.012-.578.291-1.161.504-1.541-1.368-.232-1.533-.869-1.526-1.226.016-.713.7-1.073 1.137-1.064.348.007.448.294.444.482-.004.213-.099.471-.248.778.674.166 1.78.18 1.77.706-.01.48-.82 1.275-.834 1.927-.004.239.1.376.287.379.748.016 1.711-1.677 2.146-2.506.31.061.423.179.419.358zm-2.474-14.173c.018-.846.938-1.468 2.033-1.445 1.114.022 1.97.558 1.956 1.238-.022 1.095-1.14 2.186-2.254 2.164-1.114-.023-1.748-1.316-1.735-1.957zM21.712 33.859c.011-.529.586-.918 1.271-.904.696.015 1.231.35 1.223.774-.014.684-.712 1.367-1.409 1.353s-1.093-.824-1.085-1.223zm-8.823-9.247c.011-.53.587-.918 1.271-.904.697.014 1.232.349 1.223.774-.014.684-.712 1.366-1.409 1.352-.697-.014-1.093-.822-1.085-1.222z"/><path fill="#FFF" d="M25.817 28.532c-.025 1.276-1.092 2.851-3.67 2.798-1.468-.03-2.513-.729-2.498-1.469.004-.217.149-.419.381-.554.391.237.871.49 1.79.509 1.442.029 2.114-.965 2.134-1.96.02-.969-.565-1.672-1.434-1.715-.74-.015-1.417-.016-1.92.267-.418-.148-.617-.446-.611-.727.011-.536.449-.744 1.011-.733.243.005.498.048.75.118.901-.313 2.236-1.282 2.264-2.661.023-1.173-.97-1.909-2.616-1.943a8 8 0 00-1.074.067.796.796 0 01.132.424c-1.659 3.082-1.956 9.459-.81 11.487-.17.188-.989.273-1.359.266-.919-.019-1.508-.566-1.604-1.463-.364-2.79.568-7.138 1.365-9.292a5.26 5.26 0 01.363-.874c-.605.255-1.136.59-1.526.952-.419-.123-.707-.397-.701-.666a.497.497 0 01.082-.254c.292-.492 2.488-1.749 5.385-1.689 3.765.078 4.802 1.784 4.78 2.907-.034 1.62-1.78 2.76-3.091 3.128 1.664.418 2.505 1.788 2.477 3.077zm10.127-6.001c-.011.527-1.996 3.944-3.897 3.904-.776-.016-1.268-.442-1.43-1.334-.556.669-1.304 1.292-2.136 1.274-.972-.02-1.444-.64-1.421-1.806.01-.471.127-1.413.146-2.371.013-.623-.009-.944-.097-1.404.404-.061.794-.122 1.183-.114.679.014.964.353.948 1.13-.01.458-.157 1.565-.173 2.329-.011.527.082.737.234.74.208.004.757-.345 1.287-1.153.054-.596.136-1.219.147-1.746.01-.5-.024-.875-.104-1.098a4.48 4.48 0 01.766-.068c.888.018 1.28.483 1.258 1.58-.007.361-.192 1.315-.207 1.981-.013.638.064.945.314.95.471.009 1.824-1.656 2.482-3.294.338-.09.709.07.7.5zm-3.014 8.093c-.962.032-1.921.389-2.757.916l-.006.303c-.034 1.661-.711 4.543-2.497 4.506-.742-.015-1.151-.462-1.135-1.236.024-1.201.981-2.478 2.213-3.444a.943.943 0 00-.007-.19c-.362.37-.763.55-1.191.541-.711-.015-1.108-.504-1.092-1.328.025-1.255 1.378-2.45 2.674-2.424.429.009.853.186.846.53-.005.262-.28.423-.848.557-.069-.178-.162-.254-.256-.255-.449-.01-1.013.972-1.026 1.641-.006.293.074.409.2.411.271.006.724-.622.578-1.189.51-.324.645-.321.843-.317.439.009.632.306.688 1.122.813-.411 1.654-.656 2.365-.642.261.003.488.165.408.498zm-4.258 2.202c-.685.8-1.122 1.712-1.139 2.559-.005.22.044.366.17.369.481.009.839-1.656.969-2.928z"/><path fill="#FFF" d="M37.417 30.464c-.01.502-1.758 3.132-3.7 3.092-1.474-.03-2.519-1.076-2.489-2.508.028-1.38.929-2.458 2.057-2.435.805.017 1.275.538 1.258 1.395-.02.92-.733 1.585-1.358 2 .202.339.491.533.847.54.804.017 1.88-.965 2.693-2.422.42-.127.7-.006.692.338zm-4.55.137c-.004.199.003.387.03.555.331-.338.59-.73.6-1.211.005-.229-.075-.388-.17-.39-.198-.005-.449.514-.46 1.046z"/><path fill-rule="evenodd" clip-rule="evenodd" fill="#FFF" d="M.001 17.166L0 17.168zM7.077 26.606l.471-.47c.049.356-.01.636-.173.897l-.07.149a.564.564 0 01-.27.321l-.087.06-.154.095-.101.024.01.153c.523.103 1.042.128 1.548-.088.483-.206.779-.624 1.122-.988a.511.511 0 01.224-.24.693.693 0 01.275-.275.635.635 0 01.308-.243c.204-.245.502-.265.782-.331-.036-.3-.383-.274-.506-.484-.836-.55-1.703-1.021-2.738-1.053l-.162.049c-.111.038-.22.078-.331.112-.983.313-1.859.87-2.822 1.227a5.251 5.251 0 01-2.238.312c-.229-.017-.443-.188-.684-.064.405.737 1.063 1.186 1.799 1.524.85.391 1.717.249 2.579.022l.638-.301.58-.408zm6.754 2.877c-.501-.168-1.014-.301-1.528-.104a39.56 39.56 0 01-2.188.785c-.593.188-1.192.338-1.827.276-.136-.015-.303-.093-.431.101 1.2.49 2.348 1.142 3.715.786l1.156-.465.085-.052c.539-.27 1.045-.602 1.608-.822-.036-.355-.38-.353-.59-.505zm-4.44-9.871c-.351-.195-.803-.186-1.177-.164-.514.03-1.008.032-1.507-.07l-.117-.056c.14.388.424.667.697.962.175.189.35.23.592.248.637.046 1.251-.163 1.884-.125l.289.074c-.135-.357-.34-.69-.661-.869zm7.168 14.961c-.5-.211-.979-.221-1.413.129a2.415 2.415 0 01-.852.44c.499.243.986.342 1.483.268.343-.05.692-.16.871-.526.069-.145.102-.231-.089-.311z"/></symbol></svg>