<?xml version="1.0" encoding="utf-8"?><svg xmlns="http://www.w3.org/2000/svg" xmlns:xlink="http://www.w3.org/1999/xlink"><symbol viewBox="0 0 512 407.864" id="bootstrap" xmlns="http://www.w3.org/2000/svg"><path d="M106.344 0C77.13 0 55.513 25.57 56.481 53.3c.929 26.641-.278 61.145-8.964 89.283C38.8 170.8 24.068 188.681 0 190.976v25.912c24.068 2.3 38.8 20.172 47.516 48.393 8.687 28.138 9.893 62.642 8.964 89.283-.968 27.726 20.649 53.3 49.868 53.3h299.347c29.214 0 50.827-25.57 49.859-53.3-.929-26.641.278-61.145 8.964-89.283 8.717-28.221 23.413-46.1 47.482-48.393v-25.912c-24.068-2.3-38.764-20.172-47.482-48.393-8.687-28.134-9.893-62.642-8.964-89.283.968-27.726-20.645-53.3-49.859-53.3H106.34zm240.775 251.067c0 38.183-28.481 61.34-75.746 61.34h-80.458a8.678 8.678 0 01-8.678-8.678V104.136a8.678 8.678 0 018.678-8.678h80c39.411 0 65.276 21.348 65.276 54.124 0 23.005-17.4 43.6-39.567 47.208v1.2c30.176 3.31 50.495 24.21 50.495 53.077zm-84.519-128.1h-45.876v64.8h38.639c29.87 0 46.34-12.028 46.34-33.527-.003-20.148-14.163-31.273-39.103-31.273zm-45.876 90.511v71.411h47.564c31.1 0 47.573-12.479 47.573-35.931s-16.935-35.484-49.573-35.484h-45.564z" fill="#7952b3" fill-rule="evenodd"/></symbol><symbol viewBox="0 0 512 512" id="css" xmlns="http://www.w3.org/2000/svg"><path fill="#2196f3" d="M32 0l40.8 460.8L256 512l183.136-51.168L480 0z"/><path fill="#fafafa" d="M392.768 150.688l-5.152 57.888-15.552 173.536L256 414.208l-.096.032-116-32.128-8.096-90.752h56.832l4.224 47.072 63.072 17.024.032-.032 63.168-17.024 8.608-78.432-198.656.544-5.632-53.632 209.056-2.464 4.224-57.408-218.88.608-3.68-53.408h283.648z"/></symbol><symbol viewBox="0 0 1755 2553" id="figma" xmlns="http://www.w3.org/2000/svg"><path fill="none" d="M-1-1h1755v2553H-1z"/><path d="M458.268 2524.976c230 0 416.666-186.666 416.666-416.666v-416.667H458.268c-230 0-416.667 186.667-416.667 416.667s186.667 416.666 416.667 416.666z" fill="#0acf83"/><path d="M41.601 1274.976c0-230 186.667-416.666 416.667-416.666h416.666v833.333H458.268c-230 0-416.667-186.667-416.667-416.667z" fill="#a259ff"/><path d="M41.601 441.643c0-230 186.667-416.667 416.667-416.667h416.666V858.31H458.268c-230 0-416.667-186.667-416.667-416.667z" fill="#f24e1e"/><path d="M874.934 24.976h416.667c230 0 416.667 186.667 416.667 416.667S1521.6 858.31 1291.6 858.31H874.934V24.976z" fill="#ff7262"/><path d="M1708.268 1274.976c0 230-186.667 416.667-416.667 416.667s-416.667-186.667-416.667-416.667 186.667-416.666 416.667-416.666 416.667 186.666 416.667 416.666z" fill="#1abcfe"/></symbol><symbol preserveAspectRatio="xMidYMid" viewBox="0 0 255.33 566.74" id="gulp" xmlns="http://www.w3.org/2000/svg"><path d="M197.28 548.749l5.427-90.43 14.985-25.58s-34.106 13.952-91.205 13.952c-57.1 0-90.689-13.694-90.689-13.694l16.794 27.904 5.941 87.848c0 9.418 31.059 17.052 69.374 17.052 38.313 0 69.373-7.634 69.373-17.052m-17.119-422.295l11.391-45.025 63.081-66.376L238.007.892l-66.784 70.707-13.226 53.793a886.14 886.14 0 00-29.873-.497c-70.336 0-127.355 8.016-127.355 17.902 0 9.887 57.019 17.902 127.355 17.902 70.335 0 127.353-8.015 127.353-17.902 0-7.28-30.924-13.546-75.316-16.343" fill="#D34A47"/><path d="M173.535 151.669s-2.467.553-9.724.584c-7.259.03-12.413-.047-14.466-1.917-.552-.502-.854-1.499-.851-2.174.006-1.285.918-2.042 2.08-2.516l1.099 1.724c-.478.165-.751.36-.752.568-.004.976 7.422 1.644 13.102 1.572 5.681-.07 12.545-.538 12.551-1.5 0-.291-.519-.565-1.422-.781l1.094-1.712c1.472.457 2.757 1.34 2.754 2.868-.014 2.598-3.32 2.993-5.465 3.284" fill="#FFF"/><path d="M254.509 15.184c1.586-1.832-.821-6.518-5.376-10.465C244.576.774 239.596-.94 238.007.892c-1.587 1.832.821 6.518 5.378 10.463 4.555 3.946 9.537 5.662 11.124 3.829m-60.263 312.681c-1.495-14.384 31.462-35.216 23.004-35.883-18.208 1.041-27.27 21.338-36.431 42.596-3.357 7.791-14.844 41.013-22.378 36.923-7.532-4.088 9.765-31.407 14.613-47.631-5.594 4.102-26.109 20.041-31.396 5.114-8.5 7.219-26.663 11.13-24.614-7.833-4.522 8.01-14.671 19.193-26.853 14.546-15.998-6.101 9.27-57.062 15.553-54.491 6.284 2.57-1.268 14.179-3.246 18.687-4.35 9.921-9.375 22.393-6.018 24.946 5.751 4.374 21.401-16.547 21.749-17.007 2.927-3.867 11.266-29.166 17.987-26.261 6.721 2.905-16.764 36.308-7.983 42.937 1.771 1.338 9.017-.825 13.425-5.594 2.852-3.085 1.871-9.918 11.378-32.59 9.507-22.671 17.98-50.905 24.5-48.754 6.52 2.15 1.146 16.641-1.193 22.043-10.976 25.354-29.956 67.241-21.005 64.07 8.951-3.17 13.612-3.356 22.377-13.613 8.765-10.257 8.361-27.152 14.203-26.793 5.844.36 4.863 5.777 3.446 9.902 5.75-6.58 27.256-20.438 32.448-6.713 6.15 16.249-30.769 39.72-21.564 38.523 8.975-1.167 23.515-10.376 29.723-18.749l17.088-153.626s-17.195 14.23-126.589 14.23c-109.395 0-124.811-13.934-124.811-13.934l14.548 140.224c7.722-21.947 26.059-66.339 54.963-64.849 13.148.678 30.7 25.995 15.665 26.853-6.364.362-7.01-12.637-14.546-14.546-5.438-1.378-13.009 3.043-17.902 7.833-9.758 9.55-30.745 47.229-27.972 66.014 3.533 23.949 33.048-8.322 38.042-17.903 3.517-6.749 5.893-26.745 13.585-24.647 7.693 2.098-.671 22.734-6.247 40.979-6.264 20.487-9.557 42.098-17.408 39.612-7.852-2.484 4.938-28.932 4.475-33.566-7.38 6.809-20.976 24.047-38.37 15.515l9.035 87.078s24.013 18.973 96.35 18.973c72.337 0 97.239-18.677 97.239-18.677l11.219-100.857c-9.179 8.938-38.229 24.81-40.089 6.919" fill="#D34A47"/></symbol><symbol viewBox="0 0 512 512" id="html" xmlns="http://www.w3.org/2000/svg"><path fill="#ff5722" d="M32 0l40.8 460.8L256 512l183.136-51.168L480 0z"/><path fill="#fafafa" d="M391.52 150.688H176.8l5.12 57.888H386.4l-15.392 173.568L256 414.24l-.096.032-114.944-32.128-8.032-90.784h56.32l4.192 47.104 62.496 16.992.064-.032 62.56-16.992 6.528-73.312H130.624L115.456 94.208h281.056z"/></symbol><symbol viewBox="0 0 512 512" id="jquery" xmlns="http://www.w3.org/2000/svg"><circle cx="256" cy="256" fill="#0769AD" r="256"/><g fill="#FFF"><path d="M116.3 174.3C88 215 91.5 268 113.1 311.3c.5 1 1.1 2 1.6 3.1.3.7.7 1.3 1 2 .2.4.4.7.6 1.1.4.7.7 1.3 1.1 2 .7 1.2 1.4 2.4 2.1 3.5.4.7.8 1.3 1.2 1.9.8 1.2 1.6 2.5 2.4 3.8.3.5.7 1.1 1 1.6 1.1 1.7 2.3 3.3 3.5 5l.1.1c.2.3.4.5.6.8 1 1.4 2.1 2.8 3.2 4.2l1.2 1.5c1 1.2 1.9 2.4 2.9 3.6.4.4.7.9 1.1 1.3 1.3 1.6 2.7 3.1 4.1 4.7l.1.1.2.2c1.3 1.5 2.7 2.9 4.1 4.4.4.5.9.9 1.3 1.3l3.3 3.3c.5.4.9.9 1.4 1.3 1.5 1.4 3 2.8 4.5 4.1h.1c.3.2.5.5.8.7 1.4 1.2 2.7 2.3 4.1 3.5.6.5 1.1.9 1.7 1.4 1.1.9 2.3 1.8 3.4 2.7.6.5 1.2.9 1.8 1.4 1.3.9 2.5 1.9 3.8 2.8.5.4.9.7 1.4 1 .1.1.3.2.4.3 1.2.9 2.5 1.7 3.8 2.5.5.4 1.1.7 1.6 1.1 1.9 1.2 3.9 2.4 5.9 3.6.5.3 1.1.6 1.6.9 1.5.8 2.9 1.6 4.4 2.5l2.4 1.2c1.1.5 2.1 1.1 3.1 1.6.2.1.5.2.7.4.4.2.9.4 1.3.6 1.6.8 3.3 1.6 5 2.3.4.2.7.3 1.1.5 1.9.9 3.9 1.7 5.8 2.4.5.2.9.4 1.4.6 1.8.7 3.6 1.4 5.5 2 .2.1.5.1.7.2 2 .7 4.1 1.4 6.1 2 .5.1 1 .3 1.5.4 2.1.7 4.1 1.4 6.3 1.8 137 25 176.8-82.3 176.8-82.3-33.4 43.5-92.7 55-149 42.2-2.1-.5-4.2-1.1-6.3-1.8-.5-.1-1-.3-1.6-.5-2-.6-4-1.3-6-2-.3-.1-.6-.2-.8-.3-1.8-.7-3.6-1.3-5.3-2l-1.5-.6c-1.9-.8-3.9-1.6-5.8-2.4-.4-.2-.8-.3-1.1-.5-1.6-.7-3.2-1.5-4.9-2.3-.5-.2-.9-.4-1.4-.7-1.2-.6-2.5-1.3-3.8-1.9-.8-.4-1.7-.9-2.5-1.3-1.5-.8-3-1.6-4.5-2.5-.5-.3-1-.5-1.5-.8-2-1.2-3.9-2.4-5.9-3.6-.5-.3-1.1-.7-1.6-1-1.4-.9-2.8-1.8-4.2-2.8-.5-.3-.9-.7-1.3-.9-1.3-.9-2.6-1.9-3.9-2.9-.6-.4-1.2-.9-1.7-1.3-1.2-.9-2.4-1.8-3.6-2.8-.5-.4-1.1-.9-1.6-1.3-1.5-1.2-3-2.5-4.4-3.7-.2-.1-.3-.3-.5-.4-1.6-1.4-3.1-2.8-4.7-4.2-.5-.4-.9-.8-1.3-1.2-1.1-1.1-2.3-2.2-3.3-3.3l-1.3-1.3c-1.4-1.4-2.8-2.9-4.1-4.4l-.2-.2c-1.4-1.6-2.8-3.1-4.2-4.7-.4-.4-.7-.9-1.1-1.3-1-1.2-2-2.5-3-3.7-.4-.4-.7-.9-1.1-1.4-1.2-1.5-2.3-3.1-3.5-4.6-31.2-42.6-42.4-101.3-17.5-149.5"/><path d="M204.3 139.9c-20.5 29.5-19.4 69-3.4 100.1 2.7 5.2 5.7 10.3 9.1 15.1 3.1 4.4 6.5 9.6 10.5 13.2 1.5 1.6 3 3.2 4.6 4.8l1.2 1.2c1.5 1.5 3.1 2.9 4.7 4.4l.2.2c1.8 1.6 3.6 3.1 5.5 4.5.4.3.8.7 1.2 1l5.7 4.2c.1 0 .1.1.2.1.9.6 1.7 1.1 2.6 1.7.4.3.8.6 1.2.8 1.4.9 2.8 1.8 4.2 2.6.2.1.4.2.6.4 1.2.7 2.5 1.4 3.8 2.1.4.2.9.5 1.3.7.9.5 1.7.9 2.6 1.4.1.1.3.1.4.2 1.8.9 3.6 1.7 5.5 2.6.4.2.8.3 1.2.5l4.5 1.8c.6.2 1.3.5 1.9.7 1.4.5 2.8 1 4.1 1.4.6.2 1.2.4 1.9.6 2 .6 3.9 1.4 6 1.7C391.6 325.4 416 244 416 244c-22 31.7-64.6 46.8-110.1 35-2-.5-4-1.1-6-1.7l-1.8-.6c-1.4-.5-2.8-.9-4.2-1.5-.6-.2-1.3-.5-1.9-.7l-4.5-1.8c-.4-.2-.8-.3-1.2-.5-1.9-.8-3.7-1.7-5.5-2.6-.9-.4-1.9-.9-2.8-1.4-.5-.3-1.1-.6-1.6-.8-1.2-.6-2.3-1.3-3.5-2-.3-.2-.6-.3-.8-.5-1.4-.8-2.8-1.7-4.2-2.6-.4-.3-.9-.6-1.3-.9l-2.7-1.8c-2-1.3-3.8-2.8-5.7-4.2-.4-.4-.9-.7-1.3-1-19.9-15.7-35.7-37.2-43.2-61.6-7.9-25.3-6.2-53.6 7.5-76.6"/><path d="M278.2 114.3c-12.1 17.8-13.3 39.8-4.9 59.5 8.8 20.9 26.9 37.2 48.1 44.9.9.3 1.7.6 2.6.9.4.1.8.2 1.2.4 1.2.4 2.5.8 3.8 1.1 58.4 11.3 74.2-30 78.5-36.1-13.9 20-37.2 24.8-65.8 17.8-2.3-.5-4.7-1.4-6.9-2.1-2.8-1-5.6-2.1-8.2-3.4-5.1-2.4-9.9-5.4-14.4-8.8-25.6-19.4-41.5-56.5-24.8-86.7"/></g></symbol><symbol viewBox="0 0 1052 1052" id="js" xmlns="http://www.w3.org/2000/svg"><path fill="#f0db4f" d="M0 0h1052v1052H0z"/><path d="M965.9 801.1c-7.7-48-39-88.3-131.7-125.9-32.2-14.8-68.1-25.399-78.8-49.8-3.8-14.2-4.3-22.2-1.9-30.8 6.9-27.9 40.2-36.6 66.6-28.6 17 5.7 33.1 18.801 42.8 39.7 45.4-29.399 45.3-29.2 77-49.399-11.6-18-17.8-26.301-25.4-34-27.3-30.5-64.5-46.2-124-45-10.3 1.3-20.699 2.699-31 4-29.699 7.5-58 23.1-74.6 44-49.8 56.5-35.6 155.399 25 196.1 59.7 44.8 147.4 55 158.6 96.9 10.9 51.3-37.699 67.899-86 62-35.6-7.4-55.399-25.5-76.8-58.4-39.399 22.8-39.399 22.8-79.899 46.1 9.6 21 19.699 30.5 35.8 48.7 76.2 77.3 266.899 73.5 301.1-43.5 1.399-4.001 10.6-30.801 3.199-72.101zm-394-317.6h-98.4c0 85-.399 169.4-.399 254.4 0 54.1 2.8 103.7-6 118.9-14.4 29.899-51.7 26.2-68.7 20.399-17.3-8.5-26.1-20.6-36.3-37.699-2.8-4.9-4.9-8.7-5.601-9-26.699 16.3-53.3 32.699-80 49 13.301 27.3 32.9 51 58 66.399 37.5 22.5 87.9 29.4 140.601 17.3 34.3-10 63.899-30.699 79.399-62.199 22.4-41.3 17.6-91.3 17.4-146.6.5-90.2 0-180.4 0-270.9z" fill="#323330"/></symbol><symbol viewBox="0 0 512 512" id="photoshop" xmlns="http://www.w3.org/2000/svg"><path d="M467 0H45C20.099 0 0 20.099 0 45v422c0 24.901 20.099 45 45 45h422c24.901 0 45-20.099 45-45V45c0-24.901-20.099-45-45-45z" fill="#19cffc"/><path d="M512 45v422c0 24.901-20.099 45-45 45H256V0h211c24.901 0 45 20.099 45 45z" fill="#1ea1e3"/><path d="M467 30H45c-8.401 0-15 6.599-15 15v422c0 8.401 6.599 15 15 15h422c8.401 0 15-6.599 15-15V45c0-8.401-6.599-15-15-15z" fill="#053791"/><path d="M482 45v422c0 8.401-6.599 15-15 15H256V30h211c8.401 0 15 6.599 15 15z" fill="#1b2868"/><path d="M256 151.3C242.5 133 220.6 121 196 121h-90c-8.401 0-15 6.599-15 15v240c0 8.401 6.599 15 15 15s15-6.599 15-15V271h75c24.6 0 46.199-11.7 60-30 9.3-12.299 15-28.2 15-45s-5.4-32.401-15-44.7zM196 241h-75v-90h75c24.901 0 45 20.099 45 45s-20.099 45-45 45z" fill="#19cffc"/><path d="M361 391c-33.091 0-60-26.909-60-60 0-8.291 6.709-15 15-15s15 6.709 15 15c0 16.538 13.462 30 30 30s30-13.462 30-30-13.462-30-30-30c-33.091 0-60-26.909-60-60s26.909-60 60-60 60 26.909 60 60c0 8.291-6.709 15-15 15s-15-6.709-15-15c0-16.538-13.462-30-30-30s-30 13.462-30 30 13.462 30 30 30c33.091 0 60 26.909 60 60s-26.909 60-60 60zm-90-195c0 16.8-5.7 32.701-15 45v-89.7c9.6 12.299 15 27.9 15 44.7z" fill="#1ea1e3"/></symbol><symbol viewBox="0 130.746 595.28 580.399" id="photoshop_1" xmlns="http://www.w3.org/2000/svg"><radialGradient id="ia" cx="-183.69" cy="328.972" r=".76" gradientTransform="matrix(545.6736 0 0 528.3113 100439.305 -173525.125)" gradientUnits="userSpaceOnUse"><stop offset="0" stop-color="#34364e" stop-opacity=".98"/><stop offset="1" stop-color="#0c0824"/></radialGradient><path d="M24.803 155.549h545.674v530.792H24.803V155.549z" fill="url(#ia)"/><path d="M24.803 155.549h545.674v530.792H24.803V155.549zM0 711.145h595.28V130.746H0v580.399zm401.318-342.287c-19.595 0-26.291 9.921-26.291 18.106 0 8.929 4.464 15.13 30.756 28.772 38.941 18.851 51.095 36.957 51.095 63.497 0 39.685-30.26 61.016-71.186 61.016-21.579 0-40.182-4.465-50.847-10.665-1.736-.744-1.984-1.984-1.984-3.969v-36.461c0-2.48 1.24-3.225 2.977-1.984 15.626 10.17 33.484 14.634 49.854 14.634 19.595 0 27.78-8.185 27.78-19.347 0-8.929-5.705-16.866-30.757-29.764-35.221-16.866-49.854-33.98-49.854-62.504 0-31.997 25.052-58.536 68.457-58.536 21.331 0 36.213 3.225 44.398 6.945 1.984 1.24 2.48 3.224 2.48 4.96v33.98c0 1.984-1.24 3.225-3.721 2.48-10.913-6.943-27.035-11.16-43.157-11.16zm-213.309 29.516c5.705.496 10.17.496 20.091.496 29.021 0 56.304-10.169 56.304-49.606 0-31.5-19.595-47.375-52.583-47.375-9.921 0-19.347.496-23.812.744v95.741zM143.86 266.668c0-1.736 3.473-2.977 5.456-2.977 15.875-.744 39.438-1.24 63.993-1.24 68.705 0 95.492 37.701 95.492 85.82 0 63-45.638 90.036-101.693 90.036-9.425 0-12.649-.496-19.347-.496v95.245c0 1.984-.744 2.976-2.976 2.976h-37.949c-1.984 0-2.977-.744-2.977-2.976V266.668z" fill="#31c5f0"/></symbol><symbol viewBox="0 0 515.77 364.79" id="pug" xmlns="http://www.w3.org/2000/svg"><path fill="none" d="M-1-1h514.082v363.082H-1z"/><path stroke="null" fill="#a07765" d="M503.929 161.92c-.1.07-16.88 11.97-16.88 26.69 0 23.9-18.31 57.7-47.67 63.21-10.626 26.922-29.491 34.847-33.15 45.85-3.46 10.38-14.42 26.15-69.44 43.22-29.82 9.26-63.43 15.72-81.74 15.72s-51.92-6.46-81.74-15.72c-55.02-17.07-65.98-32.84-69.44-43.22-3.65-10.978-22.534-18.952-33.15-45.85-29.36-5.51-47.67-39.31-47.67-63.21 0-14.72-16.78-26.62-16.95-26.74-6.48-4.21-8.79-12.28-5.82-19.41 12.75-30.666 47.459-104.086 79.61-120.16 22.7-11.35 53.38-9.78 76.65-5.98C199.65.744 309.23.303 353.559 16.32c23.27-3.8 53.95-5.36 76.64 5.98 32.049 16.014 67.014 89.841 79.62 120.16 2.97 7.13.58 15.26-5.89 19.46z"/><path fill="#ffdfba" d="M447.049 204.651c0 67.692-35.732 77.76-40.82 93.06-3.46 10.38-14.42 26.15-69.44 43.22-29.82 9.26-63.43 15.72-81.74 15.72s-51.92-6.46-81.74-15.72c-55.02-17.07-65.98-32.84-69.44-43.22-5.191-15.611-40.82-24.796-40.82-93.06 0-68.598 50.003-161.899 79.12-181.31 26.899-17.869 88.663-18.69 120.88-18.69 27.556 0 81.783 3.292 104.86 18.68 29.351 19.562 79.14 112.98 79.14 181.32z"/><path fill="#ffebd2" d="M443.129 168.142c-7.597 34.095-33.036 45.949-36.9 57.57-3.46 10.38-14.42 26.15-69.44 43.22-29.82 9.26-63.43 15.72-81.74 15.72s-51.92-6.46-81.74-15.72c-55.02-17.07-65.98-32.84-69.44-43.22-3.918-11.78-29.31-23.507-36.9-57.57 11.588-57.644 49.028-127.352 75.2-144.8 39.218-26.053 189.224-24.359 225.74-.01 26.29 17.521 63.661 87.31 75.22 144.81z"/><path fill="#a07765" d="M349.659 331.231c-1.81 4.07-5.3 7.3-9.74 8.72-30.26 9.68-65.95 16.7-84.87 16.7s-54.61-7.02-84.87-16.7a15.976 15.976 0 01-9.74-8.72c-19.042-37.004-42.039-100.55-12.7-129.89 21.931-21.986 40.238-47.55 73.17-52.02 9.228-1.242 17.601 5.627 18.13 14.98.74 2.5 7.08 8.35 16.01 8.35s15.27-5.85 16.01-8.35c.53-9.371 8.919-16.219 18.13-14.98 32.866 4.461 51.055 29.849 73.17 52.02 29.368 29.369 6.285 92.996-12.7 129.89z"/><path fill="#c79a83" d="M374.279 222.681c-4.144 22.327-14.563 49.006-24.62 68.55-1.81 4.07-5.3 7.3-9.74 8.72-30.26 9.68-65.95 16.7-84.87 16.7s-54.61-7.02-84.87-16.7a15.976 15.976 0 01-9.74-8.72c-9.976-19.386-20.45-46.083-24.62-68.55 3.952-15.012 10.224-19.282 23.36-33.24 16.87-17.89 34.32-36.4 61.73-40.12 9.228-1.242 17.601 5.627 18.13 14.98.74 2.5 7.08 8.35 16.01 8.35s15.27-5.85 16.01-8.35c.53-9.371 8.919-16.219 18.13-14.98 27.41 3.72 44.86 22.23 61.73 40.12 12.511 13.294 19.331 17.936 23.36 33.24z"/><path fill="#a07765" d="M147.049 124.651c-15.537 0-28.016 12.586-28.016 28 0 15.464 12.536 28 28 28 15.537 0 28.016-12.586 28.016-28 0-15.464-12.536-28-28-28zm215.984 56c15.537 0 28.016-12.586 28.016-28 0-15.464-12.536-28-28-28-15.537 0-28.016 12.586-28.016 28 0 15.464 12.536 28 28 28z"/><path fill="#999" d="M317.214 261.569c.469-.234-15.342-30.714-46.165-38.86v-34.058c0-8.837-7.164-16-16-16s-16 7.163-16 16v34.058c-30.606 8.088-45.593 37.351-46.311 38.787l.146.073c-7.256 10.498.201 25.083 13.165 25.083 7.058 0 13.037-4.576 15.162-10.919l.149.074c-3.083 6.101 9.505-23.155 33.689-23.155 21.477 0 33.615 23.014 33.735 23.247-.061-.12-.084-.073.102-.166 2.125 6.343 8.104 10.919 15.162 10.919 12.967-.001 20.421-14.587 13.166-25.083z"/><path fill="#818182" d="M303.049 164.651c0 21.929-23.769 40-48 40-24.571 0-48-18.353-48-40 0-15.47 12.61-32 48-32s48 16.53 48 32z"/></symbol><symbol viewBox="0 0 496 443" id="react" xmlns="http://www.w3.org/2000/svg"><path fill="none" d="M-1-1h496v443H-1z"/><g fill="#61dafb"><path d="M492.3 220.55c0-32.5-40.7-63.3-103.1-82.4 14.4-63.6 8-114.2-20.2-130.4-6.5-3.8-14.1-5.6-22.4-5.6v22.3c4.6 0 8.3.9 11.4 2.6 13.6 7.8 19.5 37.5 14.9 75.7-1.1 9.4-2.9 19.3-5.1 29.4-19.6-4.8-41-8.5-63.5-10.9-13.5-18.5-27.5-35.3-41.6-50 32.6-30.3 63.2-46.9 84-46.9V2.05c-27.5 0-63.5 19.6-99.9 53.6-36.4-33.8-72.4-53.2-99.9-53.2v22.3c20.7 0 51.4 16.5 84 46.6-14 14.7-28 31.4-41.3 49.9-22.6 2.4-44 6.1-63.6 11-2.3-10-4-19.7-5.2-29-4.7-38.2 1.1-67.9 14.6-75.8 3-1.8 6.9-2.6 11.5-2.6V2.55c-8.4 0-16 1.8-22.6 5.6-28.1 16.2-34.4 66.7-19.9 130.1-62.2 19.2-102.7 49.9-102.7 82.3 0 32.5 40.7 63.3 103.1 82.4-14.4 63.6-8 114.2 20.2 130.4 6.5 3.8 14.1 5.6 22.5 5.6 27.5 0 63.5-19.6 99.9-53.6 36.4 33.8 72.4 53.2 99.9 53.2 8.4 0 16-1.8 22.6-5.6 28.1-16.2 34.4-66.7 19.9-130.1 62-19.1 102.5-49.9 102.5-82.3zm-130.2-66.7c-3.7 12.9-8.3 26.2-13.5 39.5-4.1-8-8.4-16-13.1-24-4.6-8-9.5-15.8-14.4-23.4 14.2 2.1 27.9 4.7 41 7.9zm-45.8 106.5c-7.8 13.5-15.8 26.3-24.1 38.2-14.9 1.3-30 2-45.2 2-15.1 0-30.2-.7-45-1.9-8.3-11.9-16.4-24.6-24.2-38-7.6-13.1-14.5-26.4-20.8-39.8 6.2-13.4 13.2-26.8 20.7-39.9 7.8-13.5 15.8-26.3 24.1-38.2 14.9-1.3 30-2 45.2-2 15.1 0 30.2.7 45 1.9 8.3 11.9 16.4 24.6 24.2 38 7.6 13.1 14.5 26.4 20.8 39.8-6.3 13.4-13.2 26.8-20.7 39.9zm32.3-13c5.4 13.4 10 26.8 13.8 39.8-13.1 3.2-26.9 5.9-41.2 8 4.9-7.7 9.8-15.6 14.4-23.7 4.6-8 8.9-16.1 13-24.1zm-101.4 106.7c-9.3-9.6-18.6-20.3-27.8-32 9 .4 18.2.7 27.5.7 9.4 0 18.7-.2 27.8-.7-9 11.7-18.3 22.4-27.5 32zm-74.4-58.9c-14.2-2.1-27.9-4.7-41-7.9 3.7-12.9 8.3-26.2 13.5-39.5 4.1 8 8.4 16 13.1 24s9.5 15.8 14.4 23.4zm73.9-208.1c9.3 9.6 18.6 20.3 27.8 32-9-.4-18.2-.7-27.5-.7-9.4 0-18.7.2-27.8.7 9-11.7 18.3-22.4 27.5-32zm-74 58.9c-4.9 7.7-9.8 15.6-14.4 23.7-4.6 8-8.9 16-13 24-5.4-13.4-10-26.8-13.8-39.8 13.1-3.1 26.9-5.8 41.2-7.9zm-90.5 125.2c-35.4-15.1-58.3-34.9-58.3-50.6s22.9-35.6 58.3-50.6c8.6-3.7 18-7 27.7-10.1 5.7 19.6 13.2 40 22.5 60.9-9.2 20.8-16.6 41.1-22.2 60.6-9.9-3.1-19.3-6.5-28-10.2zm53.8 142.9c-13.6-7.8-19.5-37.5-14.9-75.7 1.1-9.4 2.9-19.3 5.1-29.4 19.6 4.8 41 8.5 63.5 10.9 13.5 18.5 27.5 35.3 41.6 50-32.6 30.3-63.2 46.9-84 46.9-4.5-.1-8.3-1-11.3-2.7zm237.2-76.2c4.7 38.2-1.1 67.9-14.6 75.8-3 1.8-6.9 2.6-11.5 2.6-20.7 0-51.4-16.5-84-46.6 14-14.7 28-31.4 41.3-49.9 22.6-2.4 44-6.1 63.6-11 2.3 10.1 4.1 19.8 5.2 29.1zm38.5-66.7c-8.6 3.7-18 7-27.7 10.1-5.7-19.6-13.2-40-22.5-60.9 9.2-20.8 16.6-41.1 22.2-60.6 9.9 3.1 19.3 6.5 28.1 10.2 35.4 15.1 58.3 34.9 58.3 50.6-.1 15.7-23 35.6-58.4 50.6z"/><circle r="45.7" cy="218.5" cx="245.2"/></g></symbol><symbol viewBox="0 0 467 362.58" id="sass" xmlns="http://www.w3.org/2000/svg"><path fill="none" d="M-1-1h467v355H-1z"/><path fill="#CF649A" d="M398.51 202.293c-16.096.07-30.035 3.952-41.675 9.7-4.24-8.552-8.624-16.024-9.343-21.628-.86-6.54-1.796-10.42-.789-18.18 1.007-7.761 5.532-18.755 5.461-19.544-.07-.79-1.006-4.743-10.275-4.815-9.269-.071-17.244 1.796-18.179 4.239-.936 2.443-2.73 7.977-3.808 13.725-1.653 8.407-18.54 38.443-28.097 54.107-3.16-6.106-5.819-11.497-6.395-15.808-.862-6.54-1.796-10.42-.79-18.18 1.006-7.761 5.532-18.755 5.46-19.544-.072-.79-1.006-4.743-10.274-4.815-9.27-.071-17.244 1.796-18.18 4.24-.934 2.442-1.94 8.19-3.808 13.726-1.867 5.53-24.359 55.54-30.25 68.548-3.02 6.609-5.605 11.927-7.474 15.52-.286.575-.502.935-.646 1.223.215-.36.36-.72.36-.574a257.052 257.052 0 01-2.516 4.813v.07c-1.222 2.3-2.587 4.383-3.233 4.383-.432 0-1.365-6.034.216-14.298 3.376-17.39 11.352-44.404 11.28-45.34-.072-.503 1.508-5.173-5.246-7.69-6.538-2.37-8.91 1.583-9.484 1.583s-1.006 1.438-1.006 1.438 7.258-30.467-13.94-30.467c-13.22 0-31.615 14.516-40.668 27.665-5.677 3.09-17.965 9.772-30.898 16.885-4.958 2.73-10.06 5.532-14.874 8.192-.359-.361-.647-.72-1.006-1.08-25.724-27.446-73.22-46.847-71.207-83.71.718-13.437 5.39-48.716 91.327-91.542 70.418-35.065 126.751-25.436 136.453-4.024 13.938 30.539-30.109 87.376-103.256 95.566-27.88 3.09-42.537-7.688-46.202-11.711-3.809-4.24-4.384-4.456-5.82-3.665-2.373 1.293-.863 5.03 0 7.257 2.155 5.676 11.136 15.736 26.442 20.766 13.435 4.383 46.13 6.827 85.65-8.48 44.405-17.101 78.968-64.741 68.836-104.62C280.31 5.7 213.126-7.593 149.536 14.969 111.667 28.405 70.71 49.53 41.25 77.05 6.257 109.817.653 138.342 2.951 150.27c8.192 42.322 66.537 69.915 89.89 90.32-1.15.648-2.228 1.223-3.233 1.798-11.712 5.819-56.19 29.1-67.328 53.677-12.573 27.879 2.083 47.853 11.712 50.585 30.035 8.334 60.79-6.683 77.316-31.33 16.525-24.645 14.514-56.836 6.898-71.495-.073-.215-.216-.357-.287-.575 3.017-1.795 6.106-3.592 9.197-5.388 5.963-3.521 11.784-6.756 16.885-9.556-2.875 7.76-4.958 17.098-6.036 30.609-1.293 15.807 5.246 36.286 13.725 44.334 3.735 3.52 8.262 3.594 11.065 3.594 9.916 0 14.37-8.193 19.328-17.965 6.108-11.93 11.497-25.798 11.497-25.798s-6.754 37.51 11.712 37.51c6.754 0 13.51-8.694 16.526-13.15v.072s.145-.286.504-.86c.718-1.08 1.077-1.726 1.077-1.726v-.217c2.73-4.67 8.695-15.377 17.675-33.052 11.642-22.851 22.778-51.378 22.778-51.378s1.006 6.972 4.457 18.54c2.011 6.826 6.25 14.299 9.627 21.557-2.729 3.736-4.383 5.892-4.383 5.892s0 .07.07.143a225.373 225.373 0 01-7.112 8.984c-9.198 10.92-20.12 23.425-21.556 27.017-1.726 4.24-1.294 7.399 2.012 9.844 2.442 1.869 6.754 2.155 11.28 1.797 8.264-.577 14.084-2.587 16.886-3.883 4.454-1.578 9.63-4.095 14.515-7.615 8.982-6.61 14.444-16.094 13.94-28.597-.288-6.898-2.517-13.797-5.247-20.262.791-1.151 1.654-2.374 2.444-3.593 14.23-20.77 25.222-43.544 25.222-43.544s1.006 6.968 4.454 18.537c1.725 5.82 5.102 12.216 8.191 18.466-13.365 10.85-21.627 23.427-24.502 31.688-5.318 15.306-1.15 22.202 6.682 23.786 3.521.718 8.551-.936 12.288-2.517 4.67-1.581 10.275-4.096 15.52-7.976 8.982-6.61 17.677-15.88 17.103-28.454-.217-5.677-1.797-11.353-3.88-16.814 11.28-4.741 25.94-7.33 44.621-5.173 40.023 4.67 47.854 29.675 46.345 40.093-1.507 10.492-9.914 16.24-12.717 17.965-2.804 1.725-3.665 2.372-3.448 3.665.358 1.868 1.651 1.797 4.022 1.364 3.307-.574 20.982-8.48 21.771-27.808 1.152-24.431-22.343-51.303-63.947-51.088zM90.04 306.266c-13.22 14.443-31.76 19.904-39.735 15.305-8.55-4.956-5.174-26.226 11.137-41.604 9.916-9.34 22.706-17.962 31.185-23.28 1.94-1.148 4.743-2.873 8.192-4.957.575-.357.862-.502.862-.502.646-.433 1.365-.791 2.084-1.223 5.962 21.844.214 41.1-13.726 56.26zm96.572-65.675c-4.599 11.28-14.3 40.023-20.19 38.514-5.03-1.294-8.12-23.21-1.006-44.764 3.592-10.851 11.208-23.784 15.736-28.813 7.256-8.121 15.232-10.708 17.101-7.474 2.514 4.239-8.768 35.496-11.64 42.537zm79.757 38.085c-1.939 1.005-3.736 1.65-4.598 1.148-.646-.36.791-1.725.791-1.725s9.986-10.706 13.94-15.594a679.32 679.32 0 007.831-9.986c0 .357.07.719.07 1.148-.069 12.864-12.428 21.56-18.034 25.009zm61.51-14.013c-1.438-1.006-1.224-4.383 3.591-14.875 1.87-4.096 6.181-10.993 13.652-17.604.863 2.73 1.365 5.316 1.365 7.759-.073 16.168-11.64 22.204-18.609 24.72z"/></symbol><symbol viewBox="0 0 2500 2165.1" id="vue" xmlns="http://www.w3.org/2000/svg"><path d="M1538.7 0L1250 500 961.3 0H0l1250 2165.1L2500 0z" fill="#4dba87"/><path d="M1538.7 0L1250 500 961.3 0H500l750 1299L2000 0z" fill="#435466"/></symbol></svg>