<?xml version="1.0" encoding="utf-8"?><svg xmlns="http://www.w3.org/2000/svg" xmlns:xlink="http://www.w3.org/1999/xlink"><symbol viewBox="0 0 414.72 543.28" id="flip" xmlns="http://www.w3.org/2000/svg"><path d="M479 265.166c0 57.977-25.452 112.68-69.818 150.09l-38.538-45.727c30.854-26.013 48.551-64.055 48.551-104.363 0-72.504-56.885-131.795-128.352-136.009H261.59l24.636 62.368a4.986 4.986 0 01-1.643 5.822 4.984 4.984 0 01-6.053-.024l-122.498-94.185a5.005 5.005 0 01-1.954-3.966c0-1.554.724-3.021 1.954-3.963l122.51-94.18A4.933 4.933 0 01281.58 0a5.002 5.002 0 014.658 6.833l-24.636 62.358 21.185.062v-.316c7.571 0 15.043.479 22.396 1.321 4.877.508 10.32 1.229 14.452 2.202C410.257 89.761 479 169.562 479 265.166zm-214.263 80.791a4.975 4.975 0 00-6.053-.023 5.01 5.01 0 00-1.64 5.828l24.636 62.365h-29.252c-71.452-4.221-128.346-63.518-128.346-136.014 0-37.728 15.058-72.832 42.398-98.845l-41.231-43.326C85.93 173.36 64.276 223.844 64.276 278.113c0 95.596 68.733 175.402 159.375 192.703 4.14.97 9.581 1.69 14.455 2.199 7.353.845 14.818 1.324 22.396 1.324v-.319l21.184.064-24.636 62.358a4.996 4.996 0 004.655 6.833 4.968 4.968 0 003.044-1.028l122.492-94.188a4.99 4.99 0 000-7.921l-122.504-94.181z"/></symbol><symbol viewBox="0 0 24.76 20.61" id="telegram" xmlns="http://www.w3.org/2000/svg"><path d="M1.29 10.853l5.636 1.914 13.379-8.18c.194-.118.392.145.225.3l-10.129 9.322-.377 5.22a.432.432 0 00.734.339l3.119-3.067 5.7 4.316a1.057 1.057 0 001.671-.615l3.97-18.025a1.322 1.322 0 00-1.765-1.52L1.262 9.355c-.697.267-.678 1.258.028 1.498z"/></symbol><symbol viewBox="0 0 977 1086" id="telegram_arr" xmlns="http://www.w3.org/2000/svg"><path d="M651 46.9c-88 38.6-97.6 43.1-98.5 45.5-1.9 5.3.3 7 25.5 19.5l23.5 11.6 5.8 35c4 24.3 6.3 35.5 7.4 36.7.9 1 3 1.8 4.7 1.8 2.7 0 5.6-2.4 21.6-18.5 10.2-10.2 18.8-18.5 19.2-18.5.4 0 12.4 8.4 26.7 18.6 22.7 16.2 26.4 18.5 29.3 18.2 2.3-.2 3.6-1 4.5-2.8C721.8 191.8 758 12.6 758 9.2c0-2.2-3.9-5.2-6.7-5.1-1.6 0-46.7 19.3-100.3 42.8zm74.5 59c-7.9 39.8-14.6 72.6-14.8 72.8-.3.2-65.2-45.5-68.7-48.4-.2-.2 21.6-22.4 48.5-49.3 27-27 49.1-48.7 49.3-48.2.1.4-6.3 33.3-14.3 73.1zM699 41.4c-3.6 3.3-91.6 68.9-92.5 68.9-2.2 0-31.5-14.7-30.8-15.4.7-.7 123-54.7 124.3-54.8.2-.1-.2.5-1 1.3zm-46.7 58.8c-30.1 30.3-27 25.9-30.4 43.8-.6 3.6-1.5 6.8-1.8 7.3-.8.8-5.5-27.5-4.9-29.3.3-1 62.4-48.6 63.8-48.9.2 0-11.8 12.2-26.7 27.1zm-9.2 47l5.9 4.2-9.2 9.3c-5 5.1-9.3 9.1-9.4 9-.6-.6 5.2-26.7 5.9-26.7.4 0 3.5 1.9 6.8 4.2zm301.6-43.6c-1.4 1.4-2.9 4-3.2 5.7-1.7 7.7-13.9 48.9-20 67.2-70 209.8-197.8 381.6-380.1 511-139.1 98.8-320.6 173.3-492.1 202-1.8.3-3.3.3-3.3 0s13-17 28.8-37.3c15.9-20.2 29.2-37.9 29.6-39.4.8-3.4-1.5-9.2-4.2-10.7-3.2-1.7-9.7-1.3-12 .6-1.1 1-19.6 24.2-41.1 51.6C9.5 902.2 8 904.2 8 908.4c0 3.3.6 4.8 2.7 6.8 1.6 1.4 28 16.3 58.9 33.2 61.5 33.6 61.3 33.5 66.8 28 3.5-3.6 3.7-10.4.4-13.7-1.3-1.2-22.4-13.2-47-26.7-24.6-13.4-44.5-24.7-44.3-25.1.3-.3 2.8-.9 5.7-1.3 10.4-1.3 38.7-6.8 60.3-11.6 130.2-29.2 259.1-80.6 372-148.3C594 683.5 691.9 598.4 769.7 500.8c65.9-82.6 119.4-177.3 157.4-278.8 14.5-39 34-102.1 34.3-111.3.1-4.2-.3-5.2-2.7-7.3-4-3.4-10.5-3.3-14 .2zM856 588.8c-88.1 38.6-97.5 43-98.4 45.4-2 5.6-.3 6.8 24.8 19.1 19.2 9.4 23.6 12 24.1 13.9.3 1.2 2.9 17.1 5.9 35.2 5.9 35.2 6.3 36.6 11.9 36.6 2.6 0 5.7-2.6 21.7-18.5 10.2-10.2 18.9-18.5 19.2-18.5.4 0 12.4 8.3 26.6 18.5 26.4 18.9 29.2 20.3 32.6 16.9 2-2-.2 8.2 20.6-95.8 19.8-99.3 19.3-94.8 12-95.3-2.7-.2-24.9 9.1-101 42.5zm74.4 58.6c-11.2 56-15 73.4-15.9 72.8-4.5-2.5-67.4-47.8-67.2-48.4.4-1.3 96.9-98.9 97.4-98.4.2.2-6.2 33.5-14.3 74zm-28.1-63.1c-1.5 1.3-22.6 17.2-46.8 35.4l-44 32.9-15.8-7.4c-8.6-4.2-15.7-7.8-15.7-8.1 0-.6 122.6-54.8 124.3-55 .5-.1-.4 1-2 2.2zm-44.5 57.4L830 669.5l-2.5 12.4c-1.4 6.8-2.5 12.7-2.6 13-.1.3-1.4-6.6-2.9-15.4-2-11.6-2.5-16.2-1.6-16.7.6-.4 15.3-11.5 32.6-24.7s31.7-24 32-24c.3-.1-12 12.4-27.2 27.6zm-9.5 47.7l5.7 4-9.2 9.3c-5 5.1-9.3 9.1-9.5 9-.1-.2.9-6.5 2.4-13.9 1.7-8.7 3.1-13.4 3.8-13.1.5.4 3.6 2.5 6.8 4.7zM280.5 925.6c-53.3 23.4-97.6 43.2-98.2 44.1-1.8 2.4-1.6 6.7.5 8.5.9.9 11.9 6.6 24.4 12.6 18.6 9 22.8 11.4 23.3 13.4.3 1.2 2.9 17.1 5.9 35.2 5.9 35.2 6.3 36.6 11.9 36.6 2.6 0 5.7-2.6 21.7-18.5 10.2-10.2 18.8-18.5 19.1-18.5.3 0 12.2 8.3 26.5 18.5 26.1 18.7 28.8 20.1 32.7 17.3 2.4-1.8 39.1-184.7 37.7-188.2-.9-2.5-2.9-3.6-6.3-3.6-1.2.1-45.8 19.2-99.2 42.6zm74 58.6c-8.1 40.3-14.8 73.4-14.9 73.6-.2.1-65-45.7-68.5-48.4-.2-.2 21.6-22.6 48.5-49.8 26.8-27.3 48.9-49.4 49.2-49.2.2.2-6.3 33.4-14.3 73.8zm-26-64.4c-.6.5-21.2 16.1-46 34.7-24.7 18.6-45.5 34.1-46 34.6-1 .8-32.5-13.8-32.5-15 0-.5 123.7-55 125-55.1.2 0 0 .4-.5.8zm-47.2 59.4l-27.3 27.3-2.5 12.4c-1.4 6.8-2.5 12.7-2.6 13-.1.3-1.4-6.6-2.9-15.4-2.5-14.6-2.6-16.1-1.1-17.2.9-.6 15.3-11.5 32.1-24.1 16.8-12.7 30.7-23.1 31-23.1.3-.1-11.8 12.2-26.7 27.1zm-9.1 47.3l5.7 4.1-9.6 9.5c-7.3 7.2-9.4 8.8-9 6.9.3-1.4 1.6-7.8 2.8-14.2 1.5-7.4 2.7-11.4 3.3-11 .6.3 3.7 2.4 6.8 4.7z"/></symbol><symbol viewBox="0 0 28.08 24.43" id="twitter" xmlns="http://www.w3.org/2000/svg"><path d="M27.876 4.99a.835.835 0 00-.784-.395l-1.396.122 1.335-2.69A.835.835 0 0025.916.904l-3.532 1.73c-2.183-1.152-4.909-.81-6.785.9-1.566 1.425-2.389 3.619-2.235 5.806-4.092-.41-7.556-2.752-9.605-6.537a.835.835 0 00-1.405-.1C1.084 4.421.994 6.774 1.99 8.71c-.274-.07-.566-.164-.89-.272a.835.835 0 00-1.089.928c.394 2.39 1.787 4.225 3.988 5.312-.286.1-.579.181-.876.243a.835.835 0 00-.44 1.388c1.586 1.694 3.875 2.528 5.501 2.928-1.849 1.448-3.845 1.69-6.745 1.59a.837.837 0 00-.647 1.396C2 23.556 6.406 25.058 11.036 25.171c.183.005.37.007.561.007 3.251 0 7.548-.697 10.632-3.781 2.335-2.335 3.795-5.022 4.34-7.987.44-2.396.162-4.314.028-5.235l-.029-.203 1.306-2.105a.835.835 0 00.002-.877z"/></symbol></svg>