<?xml version="1.0" encoding="utf-8"?><svg xmlns="http://www.w3.org/2000/svg" xmlns:xlink="http://www.w3.org/1999/xlink"><symbol viewBox="0 0 414.72 543.28" id="flip" xmlns="http://www.w3.org/2000/svg"><path d="M479 265.166c0 57.977-25.452 112.68-69.818 150.09l-38.538-45.727c30.854-26.013 48.551-64.055 48.551-104.363 0-72.504-56.885-131.795-128.352-136.009H261.59l24.636 62.368a4.986 4.986 0 01-1.643 5.822 4.984 4.984 0 01-6.053-.024l-122.498-94.185a5.005 5.005 0 01-1.954-3.966c0-1.554.724-3.021 1.954-3.963l122.51-94.18A4.933 4.933 0 01281.58 0a5.002 5.002 0 014.658 6.833l-24.636 62.358 21.185.062v-.316c7.571 0 15.043.479 22.396 1.321 4.877.508 10.32 1.229 14.452 2.202C410.257 89.761 479 169.562 479 265.166zm-214.263 80.791a4.975 4.975 0 00-6.053-.023 5.01 5.01 0 00-1.64 5.828l24.636 62.365h-29.252c-71.452-4.221-128.346-63.518-128.346-136.014 0-37.728 15.058-72.832 42.398-98.845l-41.231-43.326C85.93 173.36 64.276 223.844 64.276 278.113c0 95.596 68.733 175.402 159.375 192.703 4.14.97 9.581 1.69 14.455 2.199 7.353.845 14.818 1.324 22.396 1.324v-.319l21.184.064-24.636 62.358a4.996 4.996 0 004.655 6.833 4.968 4.968 0 003.044-1.028l122.492-94.188a4.99 4.99 0 000-7.921l-122.504-94.181z"/></symbol></svg>