<?xml version="1.0" encoding="utf-8"?><svg xmlns="http://www.w3.org/2000/svg" xmlns:xlink="http://www.w3.org/1999/xlink"><symbol viewBox="0 0 512 512" id="kids" xmlns="http://www.w3.org/2000/svg"><path d="M134 1.4c-12 4.2-27.8 22.2-32.6 37.1-.9 2.7-2.7 6.3-3.9 8-6.7 9-10.5 20.7-10.5 31.9.1 9.9 1.2 15.1 5.2 23.5 3.8 8 15 19.5 22.8 23.3 29.6 14.5 63.9.5 73.8-30.2 4.4-13.8 3.7-25.6-2.4-38.8-3.8-8.4-13-18.6-20-22.3-2.4-1.3-4.4-2.7-4.4-3.1 0-.3 2.3-2.2 5-4.2 5-3.6 6.1-6.2 4.2-9.4-2.1-3.2-15.7-4.2-24.9-1.9l-5.2 1.4 2.5-4.8c5.1-10.2 1.2-14.4-9.6-10.5z"/><path d="M243.5 42.4c-2.9 1.5-6.1 4.2-7.6 6.4-1.4 2-12.6 25.4-24.9 52l-22.3 48.3-4.6-.8c-7.9-1.4-17.9-.7-37.6 2.6-15.3 2.6-20.2 3.8-25.8 6.5l-6.9 3.3-37.5-40.3C36 77.1 34.7 76 25.3 76c-5.2 0-13.6 3.4-16.5 6.6-1 1.1-2.7 4.2-3.9 6.9-2.8 6.4-2.2 14.9 1.4 20.3 1.4 2 21.4 24.1 44.6 48.9L93 204l14.5 92.7 14.6 92.8-.7 49.6c-.8 55.7-.8 55.6 6.3 63.9 5.2 6 12 9 20.8 9 11.2-.1 19.6-5.1 24.5-14.7 2.4-4.5 2.5-6.1 3.1-26.3.4-11.8.7-36.6.8-55l.1-33.5-3.5-21.5c-1.9-11.8-3.3-21.5-3.2-21.6.1-.2 6-1.3 13-2.7l12.7-2.4 15 18.4 15 18.5v40.2c0 46 .2 47.6 7.3 55.3 6.3 6.8 10.7 8.7 20.2 8.8 9.5 0 15.7-2.6 21.1-8.9 6.5-7.6 6.5-7.8 6.2-63.7-.3-46.6-.4-50.7-2.1-53.7-1.6-3-14-18.7-33-41.9l-5.9-7.2-8.9-56.8c-4.9-31.2-8.9-57.5-8.9-58.4 0-.9 12-27.5 26.6-59 30.1-64.9 29.8-64 24.7-73.9-4-7.9-9.4-11.3-18.1-11.8-5.6-.3-7.5.1-11.7 2.2zm146.6 11.8c-.9 2.5-.5 4.2 1.6 7.3 2.2 3.3 1.7 4.6-1.4 3.4-4.7-1.9-16.6-1.6-19.6.4-3.8 2.5-3.4 5 1.5 9.1 2.3 2 4 3.7 3.7 3.9-.2.1-2.2 1.4-4.4 2.9-12.1 7.7-19.5 21.3-19.5 35.8 0 25.2 18.6 44 43.5 44 17.6 0 31.7-9 39.4-25 3.5-7.2 3.6-7.9 3.6-18.5 0-9.9-.3-11.6-2.8-17-1.5-3.2-3.9-7.4-5.2-9.1-1.4-1.8-2.5-3.9-2.5-4.7 0-3.6-7.7-16.4-13.7-22.8-9.9-10.5-22.1-15.3-24.2-9.7z"/><path d="M293 86.6c-7.4 3.2-11 8.7-11.1 16.7-.1 4.8 1.8 9.4 22.1 53.2 12.3 26.4 22.3 48.4 22.3 49 0 .5-3.3 22.5-7.3 48.8l-7.4 47.7-11.9 14.7-12 14.6 1.7 2.6c3.9 6 7.6 15 8.5 21.1.6 3.8 1.1 25 1.1 50.4v43.9l4.1-.7c8.7-1.4 16.8-8.1 18.9-15.6.6-2 1-18.5 1-37.4v-33.9l11.6-14.3c6.3-7.8 12.2-14.8 12.9-15.4 1-.9 3.6-.7 10.2.5 4.8.9 9.5 1.8 10.4 2.1 1.4.4 1.2 2.4-1.3 18.2l-2.9 17.7.4 45c.4 42.5.5 45.3 2.4 49.5 8 17.9 32.4 18.8 41.6 1.7 2.2-4.2 2.2-4.4 1.9-47.2l-.4-43 7.6-47.5c6.4-40.4 16.6-105.8 16.6-106.6 0-.1 16.3-17.7 36.1-39.1 19.9-21.3 36.8-40.2 37.5-42 3.1-7.2.5-17.6-5.3-22-6.9-5-15-5.3-22-.6-2.1 1.4-17.3 17.1-33.8 34.9-16.4 17.9-30.2 32.3-30.5 32.1-9.9-5.8-37.8-11.3-53.1-10.4-8.1.4-8.8.3-9.7-1.7-.6-1.1-9.2-19.6-19.1-41-10-21.4-19.1-40.1-20.3-41.4-5.2-5.6-14-7.5-20.8-4.6z"/></symbol></svg>