<?xml version="1.0" encoding="utf-8"?><svg xmlns="http://www.w3.org/2000/svg" xmlns:xlink="http://www.w3.org/1999/xlink"><symbol viewBox="0 0 35.19 40" id="_1" xmlns="http://www.w3.org/2000/svg"><path d="M32.903 2.344a4.66 4.66 0 00-2.344.63V1.172A1.171 1.171 0 0029.387 0h-18.75C9.99 0 9.465.525 9.465 1.172v1.817a4.657 4.657 0 00-2.368-.645A4.693 4.693 0 002.409 7.03a9.79 9.79 0 001.69 5.51c1.881 2.778 4.202 3.5 6.122 4.267a10.603 10.603 0 006.138 5.977l-.864 5.496h-.17a3.52 3.52 0 00-3.516 3.516v5.86h-1.172a1.172 1.172 0 000 2.343h18.75a1.172 1.172 0 000-2.344h-1.172v-5.86A3.52 3.52 0 0024.7 28.28h-.17l-.864-5.496a10.604 10.604 0 006.143-5.988c1.814-.726 4.191-1.45 6.092-4.257a9.79 9.79 0 001.69-5.509 4.693 4.693 0 00-4.688-4.687zM9.457 13.979A7.447 7.447 0 014.753 7.03a2.346 2.346 0 012.344-2.343A2.346 2.346 0 019.44 7.03c0 .083.008.163.025.24v5.62c0 .376.02.748.059 1.115l-.068-.027zm16.415 23.677H14.153v-2.343h11.719v2.343zM24.7 30.625c.646 0 1.172.526 1.172 1.172v1.172H14.153v-1.172c0-.646.526-1.172 1.172-1.172H24.7zm-6.833-2.344l.776-4.932a10.603 10.603 0 002.74 0l.775 4.932h-4.29zm10.348-15.39c0 4.523-3.68 8.203-8.203 8.203s-8.203-3.68-8.203-8.203V7.03h16.407v5.86zm0-8.204H11.81V2.345h16.407v2.344zm2.328 9.292l-.041.016c.038-.363.057-.731.057-1.104V7.03a2.347 2.347 0 012.344-2.343 2.346 2.346 0 012.344 2.343 7.447 7.447 0 01-4.704 6.948z"/></symbol><symbol viewBox="0 0 40 39.66" id="_2" xmlns="http://www.w3.org/2000/svg"><path d="M37.857 14.174c-.527-1.634-.303-4.088-1.674-5.982-1.383-1.91-3.788-2.452-5.146-3.445-1.343-.983-2.593-3.12-4.853-3.858-2.197-.717-4.443.255-6.184.255-1.741 0-3.987-.972-6.184-.256-2.26.738-3.51 2.877-4.853 3.859-1.357.992-3.763 1.536-5.145 3.445-1.371 1.893-1.148 4.352-1.675 5.982C1.64 15.726 0 17.588 0 20c0 2.413 1.64 4.269 2.143 5.826.527 1.634.302 4.088 1.674 5.982 1.383 1.91 3.788 2.452 5.146 3.445 1.343.983 2.593 3.121 4.853 3.859 2.195.716 4.445-.256 6.184-.256 1.737 0 3.992.97 6.184.256 2.26-.738 3.51-2.876 4.853-3.859 1.357-.992 3.763-1.536 5.145-3.445 1.371-1.892 1.148-4.351 1.675-5.982C38.36 24.274 40 22.412 40 20c0-2.413-1.639-4.268-2.143-5.826zm-2.973 10.691c-.615 1.905-.454 4.036-1.232 5.11-.789 1.09-2.86 1.586-4.46 2.756-1.58 1.156-2.689 2.99-3.978 3.41-1.22.398-3.206-.41-5.214-.41-2.022 0-3.989.81-5.214.41-1.289-.42-2.396-2.253-3.979-3.41-1.589-1.163-3.672-1.67-4.459-2.756-.775-1.07-.62-3.217-1.232-5.11-.6-1.854-1.991-3.46-1.991-4.865 0-1.406 1.39-3.006 1.991-4.865.615-1.904.454-4.036 1.232-5.11.788-1.088 2.862-1.587 4.46-2.756 1.586-1.16 2.687-2.988 3.978-3.41 1.218-.397 3.212.41 5.214.41 2.026 0 3.988-.81 5.214-.41 1.289.421 2.396 2.253 3.979 3.41 1.589 1.163 3.672 1.67 4.459 2.756.775 1.071.62 3.215 1.232 5.11.599 1.854 1.991 3.46 1.991 4.865 0 1.406-1.39 3.007-1.991 4.865zm-7.685-9.88c.61.61.61 1.6 0 2.21l-7.821 7.82c-.61.61-1.6.61-2.21 0l-4.367-4.366a1.562 1.562 0 112.21-2.21l3.262 3.262 6.716-6.716c.61-.61 1.6-.61 2.21 0z"/></symbol><symbol viewBox="0 0 40.51 37.33" id="_3" xmlns="http://www.w3.org/2000/svg"><path d="M36.899 19.735V1.52c0-.65-.527-1.177-1.177-1.177H4.197C3.547.343 3.02.87 3.02 1.52v19.667a3.562 3.562 0 00-1.613.667c-1.548 1.098-1.914 3.553-.618 5.068l5.3 6.425c3.281 3.84 6.766 4.31 11.947 4.31 4.446 0 6.434.02 10.308-.863l3.773-.903c.612.855 1.583 1.408 2.675 1.408h1.859c1.846 0 3.349-1.583 3.349-3.528V23.252c0-1.857-1.37-3.383-3.101-3.517zm-5.29 2.42l-1.567-.796a9.322 9.322 0 00-8.177-.132c-.714.28-2.272 1.224-3.08 1.192h-5.44a3.276 3.276 0 00-3.273 3.273v.858l-.03-.032-3.886-4.217a3.585 3.585 0 00-.783-.64V9.987h9.63v4.314c0 .65.527 1.176 1.176 1.176h7.425c.65 0 1.177-.527 1.177-1.176V9.987h9.764v9.748c-1.374.106-2.52 1.09-2.935 2.42zM17.357 9.987h5.071v3.137h-5.071V9.987zm17.19-2.353H24.78V2.696h9.764v4.938zM22.426 2.696v4.938h-5.071V2.696h5.071zm-7.424 0v4.938h-9.63V2.696h9.63zm12.795 31.809c-3.58.82-5.735.786-9.72.786-4.863 0-7.213-.078-10.173-3.442l-5.3-6.425c-.922-1.2.748-2.617 1.82-1.528l3.885 4.217c1.027 1.083 2.32 1.68 3.912 1.714h10.77a1.177 1.177 0 100-2.353H12.426v-1.782a.92.92 0 01.92-.92h5.44c1.225.088 2.994-.935 4.073-1.411a6.98 6.98 0 016.12.097l2.465 1.252v8.923l-3.645.872zm9.849-.734c0 .648-.447 1.175-.996 1.175h-1.859c-.549 0-.995-.527-.995-1.175V23.252c0-.648.446-1.175.995-1.175h1.859c.549 0 .996.527.996 1.175v10.519z"/></symbol><symbol viewBox="0 0 35.29 40" id="_4" xmlns="http://www.w3.org/2000/svg"><path d="M34.462 15.975C34.2 7.122 26.916 0 18 0S1.8 7.122 1.537 15.975L.353 17.16v8.033l1.176 1.177v5.473a5.81 5.81 0 005.804 5.804h1.458A3.535 3.535 0 0012.118 40h2.353a3.535 3.535 0 003.328-2.356l.201.003c5.681 0 10.435-4.048 11.528-9.412h3.077l3.042-3.042V17.16l-1.185-1.185zM18 2.353c6.983 0 12.797 5.096 13.92 11.765h-2.392C28.435 8.754 23.681 4.706 18 4.706S7.565 8.754 6.472 14.118H4.079C5.203 7.449 11.017 2.353 18 2.353zm9.114 11.765c-3.803-.012-6.49.22-8.704-3.018l-1.076-1.572-.924 1.666c-1.347 2.426-3.16 2.924-5.469 2.924H8.886c1.047-4.055 4.737-7.06 9.114-7.06 4.378 0 8.067 3.005 9.114 7.06zM6.235 25.882H4.37L2.706 24.22v-6.085l1.664-1.663h1.865v9.411zm-2.353 5.961v-3.608H6.47a11.661 11.661 0 003.072 5.826 3.52 3.52 0 00-.751 1.233H7.333a3.455 3.455 0 01-3.45-3.45zm10.589 5.804h-2.353a1.178 1.178 0 010-2.353h2.353a1.178 1.178 0 010 2.353zm12.94-11.765c0 5.19-4.221 9.412-9.411 9.412a6.87 6.87 0 01-.203-.003 3.535 3.535 0 00-3.326-2.35c-2.416.005-2.378-.012-2.679.016a9.357 9.357 0 01-3.204-7.075v-9.411h2.353c2.082 0 4.618-.344 6.58-2.733 2.59 2.714 5.755 2.733 8.596 2.733h1.295v9.411zm5.883-1.663l-1.664 1.663h-1.865v-9.411h1.865l1.664 1.663v6.085z"/></symbol><symbol viewBox="0 0 13.62 7.81" id="arrow-down" xmlns="http://www.w3.org/2000/svg"><path fill-rule="evenodd" clip-rule="evenodd" d="M13.47.864a.9.9 0 010 1.272L7.636 7.97a.9.9 0 01-1.272 0L.53 2.136A.9.9 0 111.803.864L7 6.06 12.197.864a.9.9 0 011.273 0z"/></symbol><symbol viewBox="0 0 19.57 13.64" id="arrow-link" xmlns="http://www.w3.org/2000/svg"><path fill-rule="evenodd" clip-rule="evenodd" d="M12.47.47a.75.75 0 000 1.06l4.72 4.72H1a.75.75 0 000 1.5h16.19l-4.72 4.72a.75.75 0 101.06 1.06l6-6a.75.75 0 000-1.06l-6-6a.75.75 0 00-1.06 0z"/></symbol><symbol viewBox="0 0 22.3 20.3" id="cart" xmlns="http://www.w3.org/2000/svg"><path fill-rule="evenodd" clip-rule="evenodd" d="M3.15 3.408a7.57 7.57 0 00-.496-.008H1a.9.9 0 110-1.8h1.681c.216 0 .425 0 .603.013.197.015.42.05.649.152a1.9 1.9 0 01.803.675c.14.208.212.422.26.613a8.487 8.487 0 01.121.619l.253 1.45 13.092.388c.513.015.95.028 1.309.067.377.042.744.12 1.092.305A2.9 2.9 0 0122.1 7.154c.175.355.242.723.272 1.102.029.36.029.797.029 1.31v.068c0 .482 0 .894-.026 1.235-.029.36-.09.71-.25 1.05a2.9 2.9 0 01-1.142 1.258c-.323.192-.666.287-1.021.35-.337.059-.747.099-1.227.145l-9.728.941c-.492.048-.912.089-1.262.095-.369.006-.73-.023-1.091-.155a2.9 2.9 0 01-1.36-1.036c-.223-.312-.347-.653-.438-1.01a17.24 17.24 0 01-.244-1.242L3.344 3.98a7.569 7.569 0 00-.093-.486.774.774 0 00-.018-.06.1.1 0 00-.021-.019.775.775 0 00-.063-.007zm2.534 3.524l.694 3.991c.092.53.153.875.22 1.136.065.251.118.353.16.412a1.1 1.1 0 00.515.392c.068.025.18.05.44.045.27-.005.618-.038 1.153-.09l9.661-.934c.522-.051.862-.085 1.122-.13.248-.044.352-.088.413-.124a1.1 1.1 0 00.433-.477c.03-.064.064-.172.084-.424.02-.262.021-.604.021-1.129 0-.556 0-.921-.023-1.2-.022-.269-.059-.381-.091-.447a1.1 1.1 0 00-.469-.482c-.064-.034-.175-.075-.443-.105-.279-.03-.643-.042-1.2-.058l-12.69-.376zM8.5 17.9a1.1 1.1 0 100 2.2 1.1 1.1 0 000-2.2zM5.6 19a2.9 2.9 0 115.8 0 2.9 2.9 0 01-5.8 0zM18 17.9a1.1 1.1 0 100 2.2 1.1 1.1 0 000-2.2zM15.1 19a2.9 2.9 0 115.8 0 2.9 2.9 0 01-5.8 0z"/></symbol><symbol viewBox="0 0 12 8" id="check" xmlns="http://www.w3.org/2000/svg"><path d="M13 1L4.75 9 1 5.364"/></symbol><symbol viewBox="0 0 16.97 16.97" id="close" xmlns="http://www.w3.org/2000/svg"><defs><path id="ia" d="M691.485 160.07l-1.414 1.415-7.071-7.071-7.071 7.071-1.414-1.414 7.07-7.071-7.07-7.071 1.414-1.415 7.07 7.071 7.072-7.07 1.414 1.414-7.07 7.07z"/></defs><use xlink:href="#ia" transform="translate(-674 -144)"/></symbol><symbol viewBox="0 0 23.2 21.23" id="favorite" xmlns="http://www.w3.org/2000/svg"><path fill-rule="evenodd" clip-rule="evenodd" d="M12 18.023c-4.64-2.635-7.236-5.26-8.493-7.55C2.224 8.138 2.33 6.156 3.052 4.74c1.478-2.9 5.684-3.828 8.242-.593l.705.893.707-.893c2.558-3.235 6.764-2.307 8.242.593.721 1.415.827 3.398-.456 5.735-1.257 2.289-3.852 4.914-8.492 7.549zm0-15.778C8.52-1.144 3.337.215 1.448 3.922.42 5.939.4 8.555 1.93 11.34c1.517 2.763 4.548 5.69 9.634 8.502l.436.24.435-.24c5.086-2.811 8.118-5.74 9.635-8.502 1.53-2.785 1.51-5.4.482-7.418C20.662.215 15.48-1.144 12 2.245z"/></symbol><symbol viewBox="0 0 384 512" class="ksvg-inline--fa kfa-map-marker-alt kfa-w-12 kfa-2x" id="location" xmlns="http://www.w3.org/2000/svg"><path d="M172.268 501.67C26.97 291.031 0 269.413 0 192 0 85.961 85.961 0 192 0s192 85.961 192 192c0 77.413-26.97 99.031-172.268 309.67-9.535 13.774-29.93 13.773-39.464 0zM192 272c44.183 0 80-35.817 80-80s-35.817-80-80-80-80 35.817-80 80 35.817 80 80 80z"/></symbol><symbol viewBox="0 0 512 512" id="logo" xmlns="http://www.w3.org/2000/svg"><path d="M184 37c-1.4 1.1-5 3.2-8 4.7-3.9 1.9-8.6 5.8-16.4 13.7-19.3 19.8-37.1 45.6-62.1 90.4-9.4 17-26.8 57.3-33.5 77.7-2.2 6.7-2.3 7.2-.9 16.5 1 6.5 1.3 16.6 1.1 32-.1 12.4 0 23.5.3 24.7.7 2.9 4.5 3.2 4.5.4 0-1 .5-3.2 1.1-4.9.8-2.3 1.8-3.1 4.4-3.6 1.8-.4 3.8-1.3 4.4-2 2.5-3 15.3-2.7 24.5.7 10.7 3.9 28.8 20.1 41.6 37.3 3.8 5 9.5 12 12.8 15.5 3.2 3.5 6.2 7.4 6.6 8.6 1.4 4.3 9.2 16.3 14.1 21.6 2.8 3 6.3 6.8 7.8 8.6 4.7 5.1 6.6 3.4 2.6-2.4-9.3-13.8-22.9-55.6-28.9-89-1.1-6.6-2.5-13.3-3-14.9-.6-1.6-.8-3.1-.6-3.4.3-.2 2.9 1.8 5.8 4.6 2.9 2.7 5.8 5.1 6.5 5.3 2.7.9 20.6 15.9 24.1 20.3.7.9 2.4 1.6 3.8 1.6 1.3 0 4.7 1.7 7.4 3.7s5.7 3.8 6.6 3.9c.9.1 2.6 1.2 3.9 2.4 1.3 1.2 2.9 2.2 3.7 2.4 1.4.2 21 11.3 26 14.7 1.5 1.1 3.2 1.9 3.7 1.9.6 0 2.6 2.4 4.6 5.2l3.5 5.3v15.2c0 14.3.8 20.3 2.8 20.3.5 0 1.2-5.3 1.6-11.8.9-16.1 3.5-27.4 7.1-31.2 1.8-1.9 3.5-2.8 4.6-2.5 1.1.4 2.3-.2 3.2-1.5 1.9-2.7 20-13 22.8-13 1.2 0 3.9-1.8 6-4 2.2-2.2 5.3-4.3 6.8-4.6 1.6-.4 4.2-1.9 5.7-3.5s3.2-2.9 3.7-2.9 3.4-1.9 6.5-4.3c3.2-2.4 9.1-6.9 13.2-10 4.1-3.1 10.9-8.3 15.1-11.6 4.8-3.8 7.6-5.4 7.3-4.3-.2.9-1.5 7.8-2.8 15.2-5.5 30.7-17.6 69.8-26.2 85.2-3 5.3-5.4 9.9-5.4 10.2 0 1.4 2.2.4 4.3-1.8 1.2-1.3 4.3-4.5 6.9-7.2 4.6-4.8 11.2-14.5 14.6-21.4 2.5-5.2 6.2-10 7.6-10 .7 0 5-5.1 9.6-11.3 15.9-21.3 32.3-36.1 47.2-42.7 3.7-1.6 5.4-1.8 12.8-1 4.7.5 10.5 1.5 13 2.3 4.1 1.3 4.6 1.8 5.6 5.8.8 3.3 1.6 4.5 3.2 4.7 2 .3 2.2-.1 2.3-5 0-2.9.1-14.3.2-25.3.2-16.4.6-21.2 2.1-26.7l2-6.7-3.3-9.8c-7.8-23-23.4-59.5-32.6-76.3-25.6-46.8-42.6-71.9-62.9-92.8-7.5-7.7-12.5-12-16.1-13.8-2.9-1.4-6.8-3.6-8.6-5-3.4-2.5-6-2.4-8.6.2-1.8 1.8-1.6 3.2.6 4.4 3.3 1.7 4.6 1.2 2.6-1-1.6-1.8-1.6-2-.2-1.5.9.4 4.1 3.7 7.2 7.5 5.3 6.5 6.7 8.9 4.3 7.4-.7-.4-.8-.3-.4.5.4.6 1.1.9 1.6.6 1.3-.8 3.3 3.4 7.8 17 7.9 23.8 10.2 32.8 10.2 40.9 0 3.6-.1 3.8-1.7 2.4-3.4-3-10.9-6.1-18.8-7.9-18.6-4.3-37.2-1-52 9.1-2.2 1.5-6.4 4-9.3 5.5-2.9 1.5-8.5 5.9-12.4 9.7-6.9 6.6-7.2 6.8-9 5.1-1.1-1-2.6-3.2-3.3-5-.8-1.8-2.1-3.3-3-3.3-.9 0-5.1-2.2-9.2-5-8.3-5.4-29.5-14.2-38.3-15.8-16.8-3.2-26.8-2.2-39.6 3.7l-6.2 2.9.5-4.2c.9-8.4 4.1-20.6 9.9-37.9 5.2-15.5 7.6-19.7 16.2-28.8 5.2-5.6 6.3-7.2 5.1-8-2.1-1.3-3.1-1.1-5.9 1.1zm-22.9 33.3c-.2 6.9-1 12.4-3.2 20.3-1.6 6-3.6 13.8-4.5 17.4-.8 3.6-2.4 9.8-3.5 13.7-4 14.8-5.1 26-5.6 55.1-.5 28.2-.2 34.4 3.8 70.7 1 9.9 7.3 42.8 11.8 62.5 2.9 12.5 5.2 27.1 4.4 28-.2.2-2.1-1.6-4.1-4-6.3-7.8-28.4-29.9-36.2-36.2-7.3-6-21.6-13.6-29.5-15.7-2.2-.6-7.4-1.1-11.6-1.1-10 0-10.3-.4-9.6-12.2 1.2-20.8 5.8-39.7 17.6-72.5 12.8-35.5 36.4-86.5 51.4-111.3 4.3-7 18-25 18.6-24.4.2.2.3 4.6.2 9.7zm205-.8c8.3 10.3 13.7 19 23.2 38 19 37.6 30.9 65.1 41.8 95.9 5.8 16.5 12.9 41.7 12.9 46 0 1.7.7 6.3 1.5 10.1 2 9.5 1.9 17.4-.2 19.7-1.3 1.4-3.1 1.8-8.7 1.8-3.9 0-9.1.5-11.6 1.1-6.7 1.5-21.6 9.4-29 15.4-8 6.4-30.1 28.4-35.5 35.3-2.2 2.8-4.3 5.1-4.7 5.2-1.4 0 .4-15.3 2.8-24.5 1.3-5 4.1-18.2 6.4-29.5 2.3-11.3 5-23.9 6-28 3.6-14.1 5.3-41.2 4.7-75-.3-16.8-1.1-33.4-1.7-37-1.8-11.1-7.3-34.6-12.6-53.5-2.7-9.7-4.2-32.3-2-29.3.6.7 3.6 4.5 6.7 8.3zm-30.6 41c14 2.7 29.2 12.4 31.5 20.3 1.8 5.8 2.8 10.2 2.5 10.2-.2 0-2.6-2.2-5.4-4.9-7.7-7.5-18-14.9-24.1-17.2-3-1.2-10.4-3-16.4-4-6-1.1-11.1-2.1-11.4-2.4-.7-.6 9-3.4 12.5-3.4 1.7-.1 6.6.6 10.8 1.4zm-139 1.4c5.7.9 5 1.3-5.5 3.5-12.9 2.8-25.3 10.1-37.3 22.1l-3 3 .6-6.4c.7-8.3 2.4-10.5 12.8-16.3 11.5-6.5 19-7.9 32.4-5.9zm205.3 8.4c17.9 30 31 56.9 42.2 86.2 9.3 24.5 10.5 28.9 9.1 34.9-.7 2.8-1.5 8.6-1.8 12.9-.3 4.3-.9 7.4-1.3 7-.4-.4-2-6.2-3.5-12.8-4.9-21.7-8.4-34-14.4-50.6-10-27.8-20.2-52.2-30.3-72.3-8.6-17.1-8.6-19.7 0-5.3zm-283.6 4.3c-10.7 21.3-21.6 47-30.4 71.9-7.5 21.1-10.5 31.8-16.9 60.8-1.5 6.5-2.9 5-2.9-3.2 0-3.7-.7-9-1.5-11.8-1.4-4.7-1.3-5.4.9-12.9 5.4-18.5 19.8-53.2 30.4-73.4 10.5-19.9 24-42.5 24.9-41.6.3.2-1.8 4.8-4.5 10.2zm101.3-6.6c15.7 4.4 29.1 13.7 36.1 25.1 4.2 6.8 4.6 6.7 9.5-1.7 5.4-9.6 18.8-18.6 34.7-23.4 14.1-4.3 34.2-1 47.8 7.8 8.2 5.3 16.7 13.8 19.7 19.7 3.4 6.9 5.7 30.1 5.7 58.5 0 18.2-.4 23.7-2.5 35.9-2.5 14.6-3.1 16.3-9.3 23.9-5.8 7.1-46.8 36.2-69.7 49.4-20 11.6-31.2 17-33.4 16.3-5.4-1.7-40.6-22.1-58.6-34-7.7-5.1-16.5-10.8-19.5-12.7-3-1.9-8.8-6.3-12.7-9.7-6.1-5.2-8-7.6-11.3-14.4-4.8-9.9-6.5-18-8.1-39.9-1.2-17.6-.6-52.9 1.2-63.2 1.6-8.9 4.9-14.6 13-21.9 16.6-15.2 38.3-21.1 57.4-15.7z"/><path d="M250.1 185.1c-20.1 3.5-36 22.7-36.1 43.4 0 12.6 5.5 27.1 13 34.5 10.7 10.4 28.2 14.5 44.5 10.4 18-4.5 30.2-20.1 32.1-41.3 1.7-18.3-10.4-38.1-27.2-44.3-8-3-18.6-4-26.3-2.7zm23.6 6c8.4 2.6 16.6 10.2 21.9 20.1 3.3 6.3 3.8 8.4 4.2 15.4.5 9.3-1.2 16.6-6 25.7-3.8 7-8.2 11.1-16.4 14.9-20.6 9.7-45 2.3-54.2-16.4-4.3-8.8-5.5-14.4-5.1-24 .5-10.1 3.5-17 11.1-25.3 6.4-7 11.4-10 20.3-11.9 8-1.7 15-1.3 24.2 1.5zM257 386.5c0 4.6-.5 11.6-1.2 15.5l-1.2 7-57.6-.1c-54-.1-63 .3-63 2.6 0 1.7 3.2 3.5 6.2 3.6l3.3.2-3.5.7c-4.1.9-3.3 1.2 3 1.2 2.5 0 3.5.2 2.3.5-2.5.5-3.2 3.3-.8 3.3 1.2 0 1.5 1.6 1.5 8s-.3 8-1.5 8c-.8 0-1.5.7-1.5 1.5 0 1.2 1.3 1.5 5.5 1.5s5.5-.3 5.5-1.5c0-.8-.7-1.5-1.5-1.5-1 0-1.5-1-1.5-3 0-2.5.4-3 2.3-3 7.7 0 9.7-9.4 2.6-12.4-3-1.2-2.8-1.3 5.3-2 11.5-.9 137.1-3.6 171.3-3.6 29.5 0 41.6-.7 36-2.1-1.6-.4-5-1.3-7.4-2-3.5-1-8.2-.9-23 .1-22.6 1.6-74.5 1-76.4-.9-1.1-1.1-1.6-7.8-1.7-23.9 0-4.8-.3-6.2-1.5-6.2s-1.5 1.6-1.5 8.5z"/><path d="M169 418.2c-.1 2.6-7.1 18.3-8.5 19.1-2.5 1.3-.7 2.7 3.6 2.7 2.8 0 3.9-.4 3.9-1.5 0-.8-.7-1.5-1.5-1.5-1.3 0-1.4-.4-.5-2 .7-1.4 2.1-2 4.4-2 2.5 0 3.5.5 3.9 2 .3 1.1.1 2-.4 2s-.9.7-.9 1.5c0 1.2 1.7 1.5 9 1.5s9-.3 9-1.5c0-.8-.7-1.5-1.5-1.5-1.2 0-1.5-1.3-1.5-5.7v-5.7l5 6.5c2.7 3.5 5 6.7 5 7.1 0 .5.9.8 2 .8 1.9 0 2-.7 2-9.5s.1-9.5 2-9.5c1.8 0 2 .7 2 8 0 6.4-.3 8-1.5 8-.8 0-1.5.7-1.5 1.5 0 1.2 1.4 1.5 6.5 1.5 10 0 15.5-3.8 15.5-10.7 0-9.1-5.2-12.2-20.2-12.3-9.1 0-9.8.1-9.8 2 0 1.1.7 2 1.5 2 1.1 0 1.5 1.2 1.5 5.2 0 2.9-.4 4.8-.8 4.2-.5-.5-3-3.7-5.7-7.2-4.2-5.4-5.2-6.2-8.1-6.2-3.8 0-4.9 2.8-1.4 3.7 1.8.5 2 1.4 2 8.4s-.2 7.9-1.8 7.9c-1.4 0-3-2.5-6.2-10-2.4-5.5-4.9-10-5.7-10-.7 0-1.3.6-1.3 1.2zm56 .8c0 1.1.7 2 1.5 2 1.2 0 1.5 1.6 1.5 8s-.3 8-1.5 8c-.8 0-1.5.7-1.5 1.5 0 1.2 1.6 1.5 8.3 1.5h8.3l1.3-3.6c1.6-4.5.9-5.3-2-2-1.5 1.7-3.3 2.6-5.3 2.6-2.9 0-3.1-.3-3.1-3.5s.3-3.5 2.8-3.5c1.7 0 2.7.5 2.7 1.5 0 1.6 1.5 2.1 2.4.7.2-.4.8-4 1.1-8l.8-7.2h-8.7c-7.9 0-8.6.2-8.6 2z"/><path d="M243 419c0 1.1.7 2 1.5 2 1.2 0 1.5 1.6 1.5 8s-.3 8-1.5 8c-.8 0-1.5.7-1.5 1.5 0 1.1 1.2 1.5 4.5 1.5s4.5-.4 4.5-1.5c0-.8-.7-1.5-1.5-1.5-1.2 0-1.5-1.2-1.4-5.3l.1-5.2 3.1 6.7c1.7 3.8 3.5 6.8 3.9 6.8.5 0 1.3-1.2 1.9-2.8.5-1.5 1.8-4.5 2.9-6.7l1.8-4 .1 5.2c.1 4.1-.2 5.3-1.4 5.3-.8 0-1.5.7-1.5 1.5 0 1.2 1.3 1.5 5.5 1.5s5.5-.3 5.5-1.5c0-.8-.7-1.5-1.5-1.5-1.2 0-1.5-1.6-1.5-8s.3-8 1.5-8c.8 0 1.5-.9 1.5-2 0-1.6-.7-2-3.7-2-3.7 0-3.9.2-6.8 7-1.6 3.8-3.3 7-3.6 7-.3 0-2.1-3.2-3.8-7-3.1-6.7-3.4-7-6.7-7-2.7 0-3.4.4-3.4 2z"/><path d="M274.8 420c-4.3 3.6-5.7 8.4-3.8 13.1 3.7 8.8 15.1 9.4 19.5.9 2.7-5.2 2-8.9-2.5-13.2-5-4.7-8.2-4.9-13.2-.8z"/><path d="M290 418.6c0 .9.9 1.8 2 2.1 1.8.5 2 1.4 2 8.4 0 6.4-.3 7.9-1.5 7.9-.8 0-1.5.7-1.5 1.5 0 1.1 1.2 1.5 5 1.5s5-.4 5-1.5c0-.8-.7-1.5-1.5-1.5-1.2 0-1.5-1.3-1.5-5.7 0-3.1.4-5.3.8-4.8.5.6 3 3.8 5.7 7.2 6.7 8.8 7.5 8.4 7.5-3.2 0-8.8.1-9.5 2-9.5 1.8 0 2 .7 2 8 0 6.4-.3 8-1.5 8-.8 0-1.5.7-1.5 1.5 0 1.2 1.3 1.5 5.5 1.5s5.5-.3 5.5-1.5c0-.8-.7-1.5-1.5-1.5-1.2 0-1.5-1.6-1.5-8 0-7.9 0-8 2.5-8 2.4 0 2.5.2 2.5 7.5 0 9.3 1.6 11.5 8.4 11.5 6.5 0 8.6-3 8.6-12.1 0-6.1.2-6.9 1.9-6.9s2 .9 2.3 8c.3 7 .1 8-1.6 8.4-3.2.8-.6 2.6 4 2.6 3.2 0 4.4-.4 4.4-1.5 0-.8-.7-1.5-1.5-1.5-1.2 0-1.5-1.2-1.4-5.3v-5.2l2.7 6.8c1.7 4.2 3.2 6.6 4 6.5.8-.2 2.4-2.7 3.7-5.7l2.3-5.4.4 4.1c.2 3 0 4.2-.9 4.2-.7 0-1.3.7-1.3 1.5 0 1.1 1.2 1.5 5 1.5s5-.4 5-1.5c0-.8-.4-1.5-1-1.5s-1-3.3-1-8 .4-8 1-8 1-.9 1-2c0-1.6-.7-2-3.3-2-3.2 0-3.5.3-6.8 7.7l-3.5 7.8-3.1-7.5-3.2-7.5-6.7-.3c-3.7-.2-7.3-.1-8 .2-1.8.7-.7 3.6 1.3 3.6 1.3 0 1.5 1.3 1.1 7.1-.4 7.6-1.4 9.1-5.8 8.7-2.8-.3-3.8-2.8-3.9-10.6-.1-4 .2-5.2 1.4-5.2.8 0 1.5-.9 1.5-2 0-1.9-.7-2-14-2s-14 .1-14 2c0 1.1.7 2 1.5 2 1.1 0 1.5 1.2 1.5 5.1v5.2l-5.7-7.2c-5-6.3-6-7.1-9-7.1-2.3 0-3.3.5-3.3 1.6zm63 25.4c-10.7.4-62.4 1.1-114.8 1.5-97.2.8-99.9 1-97.7 4.5.7 1.1 11.9 1.2 60.9.7 33.1-.4 87-1 119.8-1.4 32.8-.3 60.3-1 61-1.4 1-.6 1-1.3.2-2.6-1.3-2.2-2.8-2.2-29.4-1.3z"/></symbol><symbol viewBox="0 0 12.98 23.98" id="p-left" xmlns="http://www.w3.org/2000/svg"><path fill-rule="evenodd" d="M1.453 12l11.535 11.284-.721.705L.732 12.705.011 12l.721-.705L12.267.01l.721.705L1.453 12z"/></symbol><symbol viewBox="0 0 12.73 24.04" id="p-right" xmlns="http://www.w3.org/2000/svg"><path fill-rule="evenodd" d="M12.107 12.5L.793 1.186 1.5.479l11.314 11.314.707.707-.707.707L1.5 24.521l-.707-.707L12.107 12.5z"/></symbol><symbol viewBox="0 0 16.03 16.03" id="phone" xmlns="http://www.w3.org/2000/svg"><path d="M11.43 11.067l-.515.773c-.103.154-.239.286-.418.334-.588.155-2.147.225-4.521-2.15C3.6 7.65 3.67 6.09 3.826 5.503c.048-.18.18-.315.334-.418l.773-.516a1.253 1.253 0 00.348-1.737L3.82.642A1.253 1.253 0 002.283.184l-.659.282c-.5.215-.908.6-1.152 1.086-.203.407-.36.836-.382 1.29-.068 1.432.246 4.96 4.176 8.89 3.93 3.93 7.458 4.243 8.89 4.176.454-.021.883-.179 1.29-.382a2.302 2.302 0 001.086-1.152l.282-.66c.238-.554.046-1.2-.456-1.535l-2.191-1.46a1.253 1.253 0 00-1.737.347z"/></symbol><symbol viewBox="0 0 15.22 15.76" id="search" xmlns="http://www.w3.org/2000/svg"><path fill-rule="evenodd" clip-rule="evenodd" d="M6.75 2.233a4.517 4.517 0 100 9.034 4.517 4.517 0 000-9.034zM.433 6.75a6.317 6.317 0 1111.375 3.785l3.495 3.495a.9.9 0 01-1.273 1.273l-3.495-3.495A6.317 6.317 0 01.434 6.75z"/></symbol><symbol viewBox="0 0 18.03 18.06" id="send" xmlns="http://www.w3.org/2000/svg"><path d="M17.782.217a.75.75 0 00-.787-.172l-16.5 6a.75.75 0 000 1.402l6.442 2.573 4.756-4.77 1.057 1.057-4.777 4.778 2.58 6.442a.75.75 0 00.697.473.75.75 0 00.69-.495l6-16.5a.75.75 0 00-.158-.788z"/></symbol><symbol viewBox="0 0 18 20" id="share" xmlns="http://www.w3.org/2000/svg"><path d="M15 14c-.788 0-1.5.31-2.034.807L5.91 10.7c.05-.23.09-.46.09-.7 0-.24-.04-.47-.09-.7l7.05-4.11c.54.5 1.25.81 2.04.81 1.66 0 3-1.34 3-3s-1.34-3-3-3-3 1.34-3 3c0 .24.04.47.09.7L5.04 7.81C4.5 7.31 3.79 7 3 7c-1.66 0-3 1.34-3 3s1.34 3 3 3c.79 0 1.5-.31 2.04-.81l7.048 4.118A2.984 2.984 0 0012 17a3 3 0 103-3z"/></symbol></svg>